<?xml version="1.0" encoding="iso-8859-1"?>
<!-- Generator: Adobe Illustrator 19.0.0, SVG Export Plug-In . SVG Version: 6.00 Build 0)  -->
<svg version="1.1" id="Layer_1" xmlns="http://www.w3.org/2000/svg" xmlns:xlink="http://www.w3.org/1999/xlink" x="0px" y="0px"
	 viewBox="0 0 512.001 512.001" style="enable-background:new 0 0 512.001 512.001;" xml:space="preserve">
<g>
	<path style="fill:#F2F2F2;" d="M369.216,220.695v0.014c-3.349,107.968-45.556,206.123-113.088,280.998h-0.124
		c-95.642,0-178.506-54.629-219.107-134.405c80.022-82.356,179.92-145.303,291.937-181.1c3.404,5.435,7.618,10.734,12.573,15.689
		C350.028,210.511,359.691,216.866,369.216,220.695z"/>
	<path style="fill:#F2F2F2;" d="M501.699,255.999c0,26.958-4.337,52.9-12.367,77.167c-3.473,10.528-7.645,20.726-12.449,30.568
		c5.463-54.176-31.542-115.202-63.963-149.201c8.977-11.708,7.234-30.815-3.39-48.933c37.005-11.695,69.481-0.741,75.63,1.565
		C495.838,194.712,501.699,224.676,501.699,255.999z"/>
	<path style="fill:#F2F2F2;" d="M328.574,21.189c15.442,33.189,26.862,68.657,33.642,105.717
		c-14.234-4.283-27.589-2.704-35.948,5.641c-3.006,3.02-5.147,6.698-6.437,10.816C267.013,114.8,206.523,98.589,142.258,98.589
		c-28.221,0-55.7,3.13-82.122,9.045C104.992,48.49,176.037,10.29,256.005,10.29C281.261,10.29,305.638,14.106,328.574,21.189z"/>
</g>
<path style="fill:#F95428;" d="M409.53,165.6c10.624,18.118,12.367,37.225,3.39,48.933c-0.659,0.878-1.386,1.716-2.169,2.498
	c-9.443,9.43-25.269,10.24-41.535,3.679v-0.014c-9.526-3.83-19.189-10.185-27.809-18.805c-4.955-4.955-9.169-10.253-12.573-15.689
	c-9.416-14.961-12.765-30.842-9.004-42.839c1.29-4.118,3.431-7.796,6.437-10.816c8.359-8.345,21.714-9.924,35.948-5.641
	c11.269,3.39,23.087,10.473,33.395,20.795C401.239,153.315,405.906,159.409,409.53,165.6z"/>
<g>
	<path style="fill:#2BA5F7;" d="M412.92,214.533c32.421,33.999,69.426,95.025,63.963,149.201
		c-39.901,81.656-123.753,137.918-220.754,137.973c67.532-74.875,109.739-173.029,113.088-280.998
		c16.265,6.561,32.091,5.751,41.535-3.679C411.534,216.248,412.261,215.411,412.92,214.533z"/>
	<path style="fill:#2BA5F7;" d="M480.342,155.634c1.702,3.788,3.308,7.645,4.818,11.53c-6.149-2.306-38.625-13.259-75.63-1.565
		c-3.624-6.19-8.29-12.285-13.918-17.899c-10.308-10.322-22.126-17.405-33.395-20.795c-6.781-37.06-18.201-72.528-33.642-105.717
		C396.38,42.121,451.655,91.617,480.342,155.634z"/>
	<path style="fill:#2BA5F7;" d="M328.835,186.202c-75.877,24.254-146.209,60.957-208.552,107.735
		c-29.689,22.25-57.567,46.792-83.385,73.365c-17.02-33.409-26.601-71.238-26.601-111.304c0-55.727,18.557-107.131,49.839-148.364
		c26.422-5.916,53.902-9.045,82.122-9.045c10.473,0,20.836,0.425,31.089,1.277c52.68,4.337,102.272,19.587,146.483,43.498
		C316.07,155.36,319.419,171.241,328.835,186.202z"/>
</g>
<path style="fill:#2197D8;" d="M167.198,107.635c-31.281,41.233-49.839,92.636-49.839,148.364c0,12.902,1.002,25.571,2.924,37.939
	c-29.689,22.25-57.567,46.792-83.385,73.365c-17.02-33.409-26.601-71.238-26.601-111.304c0-55.727,18.557-107.131,49.839-148.364
	c26.422-5.916,53.902-9.045,82.122-9.045c10.473,0,20.836,0.425,31.089,1.277C171.233,102.419,169.188,104.999,167.198,107.635z"/>
<g>
	<path style="fill:#CCCCCC;" d="M142.258,98.589c-28.221,0-55.7,3.13-82.122,9.045C104.992,48.49,176.037,10.29,256.005,10.29
		c18.393,0,36.305,2.031,53.559,5.861c-54.396,12.093-102.011,42.166-136.216,83.715C163.094,99.015,152.731,98.589,142.258,98.589z
		"/>
	<path style="fill:#CCCCCC;" d="M309.536,495.846c-17.199,3.83-35.07,5.847-53.408,5.861h-0.124
		c-95.642,0-178.506-54.629-219.107-134.405c25.819-26.573,53.696-51.115,83.385-73.365c4.022,26.038,12.134,50.717,23.677,73.365
		C176.751,431.746,237.132,479.773,309.536,495.846z"/>
</g>
<path style="fill:#333333;" d="M489.733,151.421C459.576,84.111,401.941,33.058,331.606,11.35C307.207,3.819,281.77,0,256.001,0
	c-40.737,0-79.683,9.288-115.756,27.607c-34.4,17.469-64.937,42.992-88.311,73.81C17.958,146.192,0.001,199.647,0.001,256
	c0,40.832,9.327,79.853,27.72,115.979c21.104,41.462,53.133,76.445,92.627,101.167c40.607,25.419,87.515,38.855,135.785,38.855
	c54.894-0.029,107.222-17.179,151.326-49.596c43.211-31.762,74.904-75.334,91.65-126.004c8.554-25.858,12.893-52.909,12.893-80.4
	C512.001,219.575,504.509,184.39,489.733,151.421z M467.185,151.898c-13.764-2.325-32.544-3.318-53.129,1.753
	c-3.286-4.654-7.017-9.089-11.166-13.232c-9.542-9.552-20.39-16.81-31.675-21.263c-5.393-27.394-13.347-54.234-23.725-80.121
	C399.455,60.939,442.042,100.943,467.185,151.898z M373.467,211.317c-0.137-0.062-0.275-0.121-0.416-0.178
	c-8.56-3.438-16.983-9.154-24.359-16.53c-4.324-4.325-8.072-8.993-11.144-13.888c-7.67-12.186-10.697-25.319-7.899-34.275
	c0.822-2.622,2.136-4.847,3.902-6.613c5.279-5.279,14.644-6.399,25.695-3.07c10.043,3.025,20.371,9.491,29.088,18.218
	c4.877,4.867,9.021,10.19,12.319,15.821c8.502,14.515,10.149,29.575,4.033,37.558c-0.353,0.469-0.762,0.937-1.215,1.392
	C397.526,215.694,386.06,216.287,373.467,211.317z M149.566,45.965c33.159-16.839,68.969-25.377,106.435-25.377
	c22.166,0,44.058,3.07,65.145,9.128c12.267,27.136,21.673,55.52,28.041,84.622c-12.035-0.379-22.601,3.344-30.193,10.935
	c-1.303,1.303-2.482,2.705-3.561,4.185c-53.353-26.958-112.993-41.17-173.175-41.17c-18.555,0-37.078,1.356-55.361,3.996
	C105.082,73.53,126.363,57.748,149.566,45.965z M20.59,256c0-50.549,15.716-98.552,45.478-139.088
	c24.908-5.312,50.514-8.035,76.187-8.035c57.763,0,114.989,13.829,166.009,40.037c-0.987,9.759,1.017,20.552,5.772,31.331
	c-102.464,34.723-196.724,92.993-274.092,169.397C27.097,320.139,20.59,288.706,20.59,256z M49.529,369.161
	c77.085-77.652,171.963-136.524,275.249-170.792c2.83,3.754,5.935,7.379,9.356,10.798c7.424,7.424,15.794,13.528,24.506,17.974
	c-4.571,97.511-42.415,190.903-107.09,264.193c-42.704-0.8-84.203-13.058-120.279-35.641
	C97.034,434.262,68.904,404.443,49.529,369.161z M279.419,490.246c58.895-72.805,93.783-162.445,99.456-256.001
	c3.628,0.682,7.176,1.04,10.598,1.04c8.538,0,16.313-2.117,22.74-6.276c41.33,46.803,57.196,98.938,54.563,132.016
	C430.884,433.246,360.289,482.223,279.419,490.246z M483.158,317.966c-9.486-38.563-32.629-77.004-57.593-104.891
	c4.945-11.438,4.499-25.82-1.264-40.578c23.551-4.462,43.893,0.147,52.937,2.877c9.402,25.739,14.175,52.785,14.175,80.628
	C491.412,277.078,488.632,297.864,483.158,317.966z"/>
<g>
	<path style="fill:#FFFFFF;" d="M344.72,458.226c-3.889,0-7.61-2.214-9.35-5.974c-2.387-5.16-0.14-11.279,5.02-13.666
		c8.093-3.744,16.014-8.078,23.543-12.879c31.375-20.007,56.572-48.206,72.864-81.546c3.957-8.108,7.383-16.521,10.182-24.999
		c6.711-20.281,10.111-41.529,10.111-63.163c0-25.099-4.546-49.551-13.51-72.676c-1.268-3.257-2.597-6.437-3.943-9.438
		c-11.847-26.436-28.849-49.549-50.539-68.704c-4.261-3.764-4.664-10.268-0.902-14.53c3.764-4.261,10.268-4.665,14.532-0.902
		c23.905,21.111,42.644,46.583,55.696,75.71c1.487,3.311,2.95,6.815,4.35,10.41c9.894,25.521,14.906,52.477,14.906,80.131
		c0,23.835-3.751,47.258-11.151,69.622c-3.086,9.352-6.864,18.632-11.231,27.575c-17.959,36.751-45.724,67.827-80.295,89.871
		c-8.303,5.294-17.039,10.073-25.967,14.204C347.637,457.918,346.166,458.226,344.72,458.226z"/>
	<circle style="fill:#FFFFFF;" cx="374.253" cy="80.704" r="10.294"/>
</g>
<g>
</g>
<g>
</g>
<g>
</g>
<g>
</g>
<g>
</g>
<g>
</g>
<g>
</g>
<g>
</g>
<g>
</g>
<g>
</g>
<g>
</g>
<g>
</g>
<g>
</g>
<g>
</g>
<g>
</g>
</svg>
