<?xml version="1.0" encoding="iso-8859-1"?>
<!-- Generator: Adobe Illustrator 19.0.0, SVG Export Plug-In . SVG Version: 6.00 Build 0)  -->
<svg version="1.1" id="Layer_1" xmlns="http://www.w3.org/2000/svg" xmlns:xlink="http://www.w3.org/1999/xlink" x="0px" y="0px"
	 viewBox="0 0 512.001 512.001" style="enable-background:new 0 0 512.001 512.001;" xml:space="preserve">
<path style="fill:#FFB655;" d="M301.262,490.477c7.075,12.959,23.315,17.73,36.275,10.655c12.959-7.075,17.73-23.315,10.655-36.275
	c-7.075-12.959-159.265-266.761-172.224-259.687C163.009,212.245,294.188,477.518,301.262,490.477z"/>
<path style="fill:#FFA733;" d="M324.727,477.667c-4.741-8.685-74.661-125.545-124.168-199.554
	c-17.459-40.188-28.865-70.609-24.591-72.943c12.959-7.075,165.149,246.728,172.224,259.686c7.075,12.959,2.304,29.2-10.655,36.275
	c-4.28,2.336-8.914,3.356-13.46,3.24C328.868,496.488,329.466,486.348,324.727,477.667z"/>
<ellipse transform="matrix(0.4792 0.8777 -0.8777 0.4792 317.5288 -45.9364)" style="fill:#830018;" cx="197.473" cy="244.599" rx="30.487" ry="30.009"/>
<path style="fill:#FFC477;" d="M33.814,160.572c27.364,50.124,113.493,111.279,163.617,83.915s45.265-132.883,17.901-183.008
	S125.152-7.097,75.027,20.266S6.451,110.447,33.814,160.572z"/>
<path style="fill:#FFB655;" d="M159.291,92.073C137.268,51.73,92.28,31.927,49.425,39.994c7.263-7.682,15.821-14.387,25.603-19.726
	c50.124-27.365,112.941-8.913,140.305,41.212s32.224,155.644-17.901,183.008c-9.78,5.339-20.933,7.295-32.749,6.635
	C188.754,208.642,181.317,132.418,159.291,92.073z"/>
<path style="fill:#FF0C38;" d="M226.519,88.967c6.45,21.377,9.843,46.527,8.995,70.561c-16.426,17.418-36.448,33.032-59.545,45.641
	c-23.097,12.609-47.059,21.007-70.594,25.403c-20.675-12.283-39.996-28.738-54.488-45.725c32.105-1.744,66.04-11.141,98.293-28.748
	S207.689,115.029,226.519,88.967z"/>
<path style="fill:#D80027;" d="M175.393,139.572c20.468-14.763,37.695-32.015,51.126-50.604c6.45,21.377,9.843,46.527,8.995,70.561
	c-15.819,16.775-34.981,31.866-57.005,44.222C180.756,182.833,179.43,160.284,175.393,139.572z"/>
<path style="fill:#6DC82A;" d="M50.887,184.847c-6.915-8.105-12.733-16.329-17.072-24.275c-4.775-8.747-8.124-17.884-10.184-27.148
	c31.87-1.856,65.513-11.243,97.5-28.705s58.076-40.684,76.875-66.487c6.678,6.743,12.553,14.502,17.328,23.248
	c4.338,7.947,8.108,17.289,11.186,27.488c-18.832,26.061-45.087,49.525-77.339,67.131
	C116.928,173.705,82.993,183.101,50.887,184.847z"/>
<path style="fill:#5EAC24;" d="M159.291,92.074c-1.663-3.047-3.472-5.961-5.386-8.769c17.381-13.455,32.204-28.744,44.1-45.072
	c6.678,6.743,12.553,14.502,17.328,23.248c4.338,7.947,8.108,17.289,11.186,27.488c-13.432,18.589-30.659,35.841-51.126,50.604
	C171.887,121.587,166.342,104.988,159.291,92.074z"/>
<path style="fill:#FFC477;" d="M210.757,490.477c-7.075,12.959-23.315,17.73-36.275,10.655s-17.73-23.315-10.655-36.275
	c7.075-12.959,159.265-266.761,172.224-259.687C349.011,212.245,217.832,477.518,210.757,490.477z"/>
<path style="fill:#FFB655;" d="M187.293,477.667c4.741-8.685,74.661-125.545,124.168-199.554
	c17.459-40.188,28.865-70.609,24.591-72.943c-12.959-7.075-165.149,246.728-172.224,259.686c-7.075,12.959-2.304,29.2,10.655,36.275
	c4.28,2.336,8.914,3.356,13.46,3.24C183.152,496.488,182.554,486.348,187.293,477.667z"/>
<ellipse transform="matrix(0.4792 -0.8777 0.8777 0.4792 -50.857 403.4292)" style="fill:#C70024;" cx="314.523" cy="244.57" rx="30.487" ry="30.009"/>
<path style="fill:#FFDAAA;" d="M478.205,160.572c-27.364,50.124-113.492,111.279-163.617,83.915S269.323,111.604,296.686,61.48
	c27.364-50.124,90.182-68.577,140.306-41.213S505.568,110.447,478.205,160.572z"/>
<g>
	<path style="fill:#FFC477;" d="M352.729,92.073c22.024-40.343,67.013-60.145,109.866-52.08
		c-7.264-7.682-15.821-14.386-25.603-19.726C386.868-7.097,324.051,11.354,296.687,61.48
		c-27.364,50.125-32.224,155.644,17.901,183.008c9.78,5.339,20.933,7.295,32.749,6.635
		C323.266,208.642,330.703,132.418,352.729,92.073z"/>
	<path style="fill:#FFC477;" d="M448.349,82.263c-2.921-7.528-7.135-14.357-12.524-20.296c-2.823-3.11-2.589-7.919,0.521-10.741
		c3.111-2.822,7.92-2.589,10.741,0.521c6.648,7.325,11.843,15.742,15.44,25.013c1.519,3.916-0.48,8.183-4.338,9.841
		C454.055,88.377,449.518,85.274,448.349,82.263z"/>
	<path style="fill:#FFC477;" d="M460.411,115.061c-0.05,0-7.37,0-7.606-7.748c-0.06-1.95-0.015-3.931-0.154-5.887
		c-0.298-4.189,2.855-7.827,7.044-8.125c4.208-0.305,7.827,2.855,8.126,7.044c0.171,2.41,0.235,4.851,0.191,7.256
		C467.932,111.751,464.543,115.061,460.411,115.061z"/>
</g>
<path style="fill:#FF3F62;" d="M285.501,88.967c-6.45,21.377-9.843,46.527-8.995,70.561c16.426,17.418,36.448,33.032,59.545,45.641
	c23.097,12.609,47.059,21.007,70.594,25.403c20.675-12.284,39.996-28.74,54.488-45.726c-32.105-1.744-66.04-11.141-98.293-28.748
	C330.587,138.492,304.331,115.029,285.501,88.967z"/>
<path style="fill:#FF0C38;" d="M336.627,139.572c-20.468-14.763-37.695-32.015-51.126-50.604
	c-6.45,21.377-9.843,46.527-8.995,70.561c15.819,16.775,34.981,31.866,57.005,44.222
	C331.264,182.833,332.59,160.284,336.627,139.572z"/>
<path style="fill:#7ED63E;" d="M461.133,184.847c6.915-8.105,12.733-16.329,17.072-24.275c4.775-8.747,8.124-17.884,10.184-27.148
	c-31.87-1.856-65.513-11.243-97.5-28.705s-58.076-40.684-76.875-66.487c-6.678,6.743-12.553,14.502-17.328,23.248
	c-4.338,7.947-8.108,17.289-11.186,27.488c18.832,26.061,45.087,49.525,77.339,67.131
	C395.092,173.705,429.027,183.101,461.133,184.847z"/>
<path style="fill:#6DC82A;" d="M352.729,92.074c1.663-3.047,3.472-5.961,5.386-8.769c-17.381-13.455-32.204-28.744-44.1-45.072
	c-6.678,6.743-12.553,14.502-17.328,23.248c-4.338,7.947-8.108,17.289-11.186,27.488c13.432,18.589,30.659,35.841,51.126,50.604
	C340.133,121.587,345.678,104.988,352.729,92.074z"/>
<path d="M440.636,13.592C424.347,4.7,405.986,0,387.538,0c-40.681,0-78.05,22.161-97.525,57.836
	c-14.436,26.444-22.691,67.276-21.029,104.026c1.105,24.442,6.219,45.099,14.86,60.979c-12.964,19.984-4,37.205-2.913,39.35
	c-8.008,11.992-16.464,24.976-24.917,38.15c-9.059-14.116-17.416-26.91-24.923-38.151c1.086-2.144,11.74-22.069-2.914-39.349
	c8.64-15.879,13.755-36.537,14.86-60.979c1.662-36.75-6.593-77.582-21.029-104.026C192.678,4.111,125.11-15.736,71.384,13.592
	C50.276,25.116,33.815,42.72,23.782,64.5c-1.757,3.814-0.09,8.331,3.725,10.088c3.814,1.757,8.33,0.088,10.087-3.725
	c8.657-18.789,22.86-33.977,41.077-43.922c36.243-19.787,79.786-13.638,109.161,12.135c-18.33,23.473-42.519,43.777-70.345,58.968
	c-27.821,15.189-57.978,24.554-87.633,27.278c-1.68-11.119-1.409-22.526,0.901-33.682c0.853-4.112-1.792-8.136-5.903-8.989
	c-4.109-0.846-8.136,1.792-8.988,5.904c-5.327,25.71-1.323,52.581,11.276,75.66c14.436,26.444,44.319,55.469,76.128,73.947
	c21.157,12.288,41.293,19.149,59.322,20.469c5.718,17.819,19.469,22.461,31.511,23.698c8.334,19.146,18.624,41.86,30.609,67.572
	c-10.858,17.426-20.551,33.197-27.796,45.053c-2.19,3.583-0.959,8.106,2.523,10.454c3.596,2.425,9.021-0.178,10.454-2.524
	c18.312-29.965,52.295-84.991,81.112-128.384c5.127,3.093,9.123,5.371,11.097,6.046c-35.482,80.951-92.999,197.092-98.018,206.286
	c-5.052,9.258-16.699,12.68-25.957,7.624c-4.485-2.449-15.14-12.864-7.624-25.957c0.86-1.499,4.442-7.713,11.899-20.184
	c2.156-3.604,0.981-8.273-2.623-10.429c-3.602-2.155-8.273-0.981-10.429,2.623c-6.328,10.581-11,18.514-12.196,20.703
	c-14.191,25.956,5.635,42.198,13.685,46.593c5.211,2.845,10.839,4.193,16.395,4.193c12.165,0,23.97-6.472,30.197-17.88
	c2.561-4.692,18.673-36.982,38.581-78.273c20.462,42.437,36.25,74.012,38.575,78.273C300.816,505.53,312.618,512,324.784,512
	c5.555,0,11.183-1.356,16.396-4.193c10.285-5.598,26.018-23.002,13.685-46.593c-2.975-5.69-32.752-55.452-67.555-111.315
	c10.917-23.423,21.556-46.778,30.606-67.569c12.042-1.238,24.61-4.358,31.525-23.728c50.544-3.858,112.052-51.551,135.437-94.387
	C514.208,110.491,494.36,42.921,440.636,13.592z M433.349,26.941c36.243,19.786,54.62,59.737,48.827,98.383
	c-29.658-2.723-59.818-12.089-87.643-27.279c-27.822-15.188-52.008-35.489-70.337-58.958c17.229-15.145,39.63-23.878,63.342-23.878
	C403.447,15.208,419.288,19.265,433.349,26.941z M342.989,243.653c-9.329,0-17.658-1.965-24.757-5.84
	c-16.608-9.067-27.989-29.978-32.315-58.576c13.968,12.42,29.533,23.351,46.491,32.607c16.958,9.258,34.572,16.439,52.574,21.472
	C370.587,239.781,356.159,243.653,342.989,243.653z M127.152,233.285c17.962-5.031,35.538-12.202,52.459-21.44
	c16.922-9.237,32.457-20.143,46.403-32.53c-3.947,26.262-14.105,48.605-32.227,58.499
	C175.663,247.706,151.376,244.167,127.152,233.285z M66.947,190.992c29.218-3.721,58.616-13.337,85.876-28.218
	c27.261-14.882,51.248-34.409,70.179-56.974c3.505,16.163,5.27,33.698,4.906,50.666c-15.944,16.453-34.625,30.59-55.583,42.03
	c-20.958,11.442-42.951,19.51-65.415,24.024C92.441,213.65,78.646,202.681,66.947,190.992z M33.363,140.247
	c31.025-3.158,62.438-13.038,91.411-28.854c28.981-15.821,54.285-36.907,73.722-61.304c10.875,10.237,16.924,29.202,19.602,37.449
	c-18.582,24.713-43.584,46.067-72.563,61.887c-28.979,15.82-60.461,25.302-91.298,27.567
	C48.75,170.278,37.687,155.631,33.363,140.247z M179.639,258.144c7.725-1.097,14.908-3.419,21.436-6.983
	c6.522-3.561,12.348-8.35,17.446-14.247c4.876,14.331-4.845,24.886-10.078,27.742C198.58,270.039,186.324,267.056,179.639,258.144z
	 M209.919,280.547c6.378-2.183,9.45-4.745,11.097-6.046c7.838,11.802,16.55,25.201,25.981,39.964
	c-4.287,6.747-8.527,13.465-12.664,20.056C225.023,314.428,216.841,296.338,209.919,280.547z M341.517,468.5
	c6.079,11.403-3.139,23.509-7.624,25.957c-9.261,5.054-20.903,1.632-25.957-7.624c-2.594-4.752-21.556-42.832-43.491-88.542
	c4.962-10.372,10.063-21.112,15.172-31.966C312.072,418.625,339.012,463.801,341.517,468.5z M303.577,264.656
	c-5.233-2.856-15.799-13.399-10.078-27.743c5.097,5.897,10.924,10.687,17.446,14.247c6.496,3.547,13.678,5.876,21.444,6.971
	C325.704,267.055,313.442,270.042,303.577,264.656z M405.237,222.545c-22.507-4.509-44.545-12.586-65.541-24.049
	c-20.996-11.462-39.707-25.629-55.669-42.121c-0.346-16.879,1.443-34.41,4.974-50.598c18.934,22.574,42.928,42.109,70.197,56.995
	c27.279,14.892,56.697,24.511,85.936,28.226C433.451,202.705,419.685,213.677,405.237,222.545z M457.808,176.994
	c-30.845-2.262-62.337-11.745-91.324-27.569c-28.982-15.822-53.986-37.177-72.568-61.892c2.684-8.241,10.76-29.572,19.615-37.434
	c19.436,24.393,44.738,45.476,73.715,61.294c28.981,15.821,60.402,25.702,91.435,28.857
	C474.67,155.631,463.274,170.286,457.808,176.994z"/>
<path d="M183.705,431.364c4.543,2.915,9.012-0.21,10.441-2.573l4.047-6.686c2.176-3.591,1.03-8.267-2.561-10.444
	c-3.59-2.178-8.266-1.031-10.445,2.561l-4.056,6.7C178.958,424.516,180.171,429.096,183.705,431.364z"/>
<g>
</g>
<g>
</g>
<g>
</g>
<g>
</g>
<g>
</g>
<g>
</g>
<g>
</g>
<g>
</g>
<g>
</g>
<g>
</g>
<g>
</g>
<g>
</g>
<g>
</g>
<g>
</g>
<g>
</g>
</svg>
