<svg id="Layer_1" enable-background="new 0 0 512 512" height="512" viewBox="0 0 512 512" width="512" xmlns="http://www.w3.org/2000/svg"><g><path d="m376 408c0 8.853-7.16 16-16 16h-272c-8.84 0-16-7.16-16-16 0-8.853 7.16-16 16-16h272c8.84 0 16 7.16 16 16z" fill="#edebfd"/><path d="m360 392h-48c8.84 0 16 7.16 16 16 0 8.853-7.16 16-16 16h48c4.42 0 8.42-1.79 11.32-4.68 9.976-10.011 2.98-27.32-11.32-27.32z" fill="#d2d2fc"/><path d="m360 424-20.58 68.6c-2.03 6.77-8.26 11.4-15.32 11.4h-200.2c-7.06 0-13.29-4.63-15.32-11.4l-20.58-68.6z" fill="#edebfd"/><path d="m360 424c-14.531 0-263.343 0-272 0l7.2 24h196.096c10.718 0 18.405 10.332 15.325 20.598l-7.201 24.002c-2.03 6.77-8.26 11.4-15.32 11.4h40c7.06 0 13.29-4.63 15.32-11.4 4.378-14.594 16.387-54.622 20.58-68.6z" fill="#d2d2fc"/><path d="m328 392h-200c0-29.615 31.226-49.057 57.78-35.83 5.05-16.32 20.25-28.17 38.22-28.17 19.54 0 35.81 14.01 39.3 32.54 25.981-20.441 64.7-1.989 64.7 31.46z" fill="#79cb9c"/><path d="m223.3 360.54c11.048-8.692 25.56-10.767 38.311-6.152-8.524-23.569-36.279-33.38-57.612-21.035 9.896 5.725 17.112 15.566 19.301 27.187z" fill="#63ac7d"/><path d="m268.007 357.359c11.952 6.918 19.993 19.84 19.993 34.641h40c0-30.955-33.608-49.908-59.993-34.641z" fill="#63ac7d"/><path d="m464 240c0 22.09-17.91 40-40 40h-112c-22.131 0-40-17.958-40-40 0-25.136 22.985-44.225 48.01-39.2-.933-25.181 20.066-48.8 47.99-48.8 18.08 0 33.82 10 42.01 24.76 16.453-4.307 32.142 9.71 29.77 26.48 14.25 6.12 24.22 20.28 24.22 36.76z" fill="#79cb9c"/><path d="m439.78 203.24c2.374-16.787-13.325-30.786-29.77-26.48-13.208-23.802-43.082-31.588-66.005-18.325 7.534 4.361 13.777 10.707 18.005 18.325 16.453-4.307 32.142 9.71 29.77 26.48 14.25 6.12 24.22 20.28 24.22 36.76 0 22.09-17.91 40-40 40h48c22.09 0 40-17.91 40-40 0-16.48-9.97-30.64-24.22-36.76z" fill="#63ac7d"/><path d="m336 96c0 22.09-17.91 40-40 40h-112c-22.09 0-40-17.91-40-40 0-25.252 23.096-44.202 48.01-39.2-.933-25.181 20.066-48.8 47.99-48.8 18.08 0 33.82 10 42.01 24.76 16.453-4.307 32.142 9.71 29.77 26.48 14.25 6.12 24.22 20.28 24.22 36.76z" fill="#79cb9c"/><path d="m311.78 59.24c2.374-16.787-13.325-30.786-29.77-26.48-13.208-23.802-43.082-31.588-66.005-18.325 7.534 4.361 13.777 10.707 18.005 18.325 16.453-4.307 32.142 9.71 29.77 26.48 14.25 6.12 24.22 20.28 24.22 36.76 0 22.09-17.91 40-40 40h48c22.09 0 40-17.91 40-40 0-16.48-9.97-30.64-24.22-36.76z" fill="#63ac7d"/><path d="m259.28 298.28 30.24 53.75c-9.151-.366-18.517 2.449-26.22 8.51-3.49-18.53-19.76-32.54-39.3-32.54-17.97 0-33.17 11.85-38.22 28.17-12.195-6.074-26.865-5.528-38.68 1.72l8.54-93.89h4.36c24.73 0 39.936-26.846 27.72-48h35.3c20.81 0 36.09-19.56 31.04-39.76l-10.06-40.24h48c7.544 30.164 3.924 15.685 16.05 64.2-31.04 3.036-46.64 39.026-28.05 63.8-19.08 0-29.067 19.425-20.72 34.28z" fill="#aa7569"/><path d="m280 264c-18.618-24.811-2.925-60.77 28.05-63.8-5.18-20.72-10.871-43.492-16.05-64.2-10.231 0-37.038 0-48 0l6 24h28l6.343 25.371c1.867 7.469-2.006 15.05-9.005 18.259-13.774 6.315-23.338 20.224-23.338 36.37 0 2.818.719 6.224 1.706 9.573 2.02 6.855-.788 14.164-6.797 18.033-9.674 6.229-13.953 19.42-7.629 30.674l30.24 53.75c-2.72-.109-5.637.071-8.591.598 1.049 2.519 1.854 5.164 2.371 7.912 7.702-6.06 17.067-8.877 26.22-8.51l-30.24-53.75c-8.344-14.848 1.633-34.28 20.72-34.28z" fill="#9a6758"/><path d="m176 272h-29.12l.79-8.72c.38-4.12 3.83-7.28 7.97-7.28h4.36c18.577 0 29.921-20.217 20.79-36-3.07-5.302.756-12 6.93-12h20.27c19.499 25.796 1.311 64-31.99 64z" fill="#9a6758"/><path d="m192 232c0 17.67-14.33 32-32 32h-80c-17.67 0-32-14.33-32-32 0-18.397 15.451-32.618 32.8-31.99 3.7-18.26 19.85-32.01 39.2-32.01s35.5 13.75 39.2 32.01c17.236-.624 32.8 13.479 32.8 31.99z" fill="#79cb9c"/><path d="m187.72 216c-5.969-10.319-17.197-16.4-28.52-15.99-5.449-26.893-35.792-40.201-59.2-26.654 9.745 5.639 16.893 15.269 19.2 26.654 17.236-.623 32.8 13.48 32.8 31.99 0 17.67-14.33 32-32 32h40c24.73 0 39.936-26.846 27.72-48z" fill="#63ac7d"/><path d="m447.961 198.401c-.873-17.639-16.055-31.449-33.956-30.34-10.409-14.969-27.564-24.061-46.005-24.061-26.808 0-49.262 18.938-54.72 44.135l-11.135-44.542c23.573-3.028 41.855-23.209 41.855-47.593 0-17.324-9.274-33.104-24.039-41.599-.873-17.639-16.055-31.449-33.956-30.34-10.409-14.969-27.564-24.061-46.005-24.061-28.165 0-51.539 20.898-55.431 48.003-26.723-.323-48.569 21.341-48.569 47.997 0 26.467 21.533 48 48 48h53.754l8.545 34.18c3.784 15.138-7.654 29.82-23.283 29.82h-31.016c-.363 0-8.35-13.167-26.609-15.638-6.576-19.077-24.765-32.362-45.391-32.362s-38.815 13.285-45.391 32.362c-19.515 2.641-34.609 19.41-34.609 39.638 0 22.056 17.944 40 40 40h66.879l-7.406 81.425c-9.767 7.242-16.691 18.099-18.794 30.575h-32.679c-13.233 0-24 10.767-24 24 0 11.091 7.564 20.444 17.802 23.185l19.114 63.712c3.069 10.23 12.308 17.104 22.988 17.104h200.191c10.681 0 19.919-6.873 22.988-17.104l19.114-63.712c10.239-2.741 17.803-12.094 17.803-23.185 0-13.233-10.767-24-24-24h-24.679c-3.47-20.587-20.086-36.757-40.89-39.557l-28.176-50.089c-5.138-9.135.429-20.244 10.238-22.088 8.787 9.66 21.451 15.734 35.507 15.734h112c26.467 0 48-21.533 48-48 0-17.324-9.274-33.104-24.039-41.599zm-295.961-102.401c0-19.936 18.249-35.406 38.434-31.357 5.063 1.021 9.757-2.969 9.571-8.132-.823-20.8 16.854-40.511 39.995-40.511 14.533 0 27.95 7.909 35.015 20.642 1.772 3.194 5.486 4.788 9.021 3.857 10.899-2.851 21.393 6.472 19.823 17.625-.504 3.574 1.449 7.043 4.766 8.467 11.77 5.055 19.375 16.598 19.375 29.409 0 17.645-14.355 32-32 32h-112c-17.645 0-32-14.355-32-32zm-96 136c0-12.959 10.424-24 24.18-24 4.838 0 7.75-2.891 8.461-6.401 3.005-14.833 16.194-25.599 31.359-25.599s28.354 10.766 31.359 25.599c.753 3.719 4.065 6.527 8.131 6.406 13.175-.374 24.51 10.402 24.51 23.995 0 13.233-10.767 24-24 24-16.918 0-63.329 0-80 0-13.233 0-24-10.767-24-24zm275.758 258.299c-1.022 3.41-4.102 5.701-7.662 5.701h-200.192c-3.561 0-6.64-2.291-7.662-5.701l-17.49-58.299h250.496zm36.242-82.299c0 4.411-3.589 8-8 8h-272c-4.411 0-8-3.589-8-8s3.589-8 8-8h272c4.411 0 8 3.589 8 8zm-49.013-24c-7.092 0-173.444 0-181.975 0 3.561-13.786 16.104-24 30.987-24 12.757 0 14.648 6.208 20.928 3.525 2.157-.924 3.801-2.748 4.495-4.991 4.172-13.478 16.46-22.534 30.578-22.534 15.377 0 28.599 10.943 31.438 26.021 1.111 5.898 8.1 8.515 12.81 4.807 18.122-14.263 44.999-5.053 50.739 17.172zm-66.677-81.802 24.284 43.17c-3.013.731-5.944 1.738-8.755 3.045-7.569-16.959-24.577-28.413-43.839-28.413v-40c0-4.418-3.582-8-8-8s-8 3.582-8 8v16h-8c-4.418 0-8 3.582-8 8s3.582 8 8 8h8v10.71c-11.431 4.004-20.986 12.225-26.629 23.176-8.023-2.334-16.774-2.532-25.108-.429l6.692-73.578c23.728-1.743 41.095-24.024 36.231-47.879h23.829c26.008 0 45.124-24.431 38.805-49.701l-7.574-30.299h31.508l12.504 50.015c-27.144 8.127-41.469 38.023-30.64 64.245-16.595 6.71-24.809 27.05-15.308 43.938zm171.69-30.198h-112c-17.645 0-32-14.355-32-32 0-19.936 18.249-35.406 38.434-31.357 5.077 1.019 9.756-2.978 9.571-8.132-.823-20.8 16.854-40.511 39.995-40.511 14.533 0 27.95 7.909 35.015 20.642 1.773 3.195 5.486 4.786 9.021 3.857 10.899-2.851 21.393 6.472 19.823 17.625-.504 3.574 1.449 7.043 4.766 8.467 11.77 5.055 19.375 16.598 19.375 29.409 0 17.645-14.355 32-32 32z"/></g></svg>