<?xml version="1.0" encoding="iso-8859-1"?>
<!-- Generator: Adobe Illustrator 19.0.0, SVG Export Plug-In . SVG Version: 6.00 Build 0)  -->
<svg version="1.1" id="Layer_1" xmlns="http://www.w3.org/2000/svg" xmlns:xlink="http://www.w3.org/1999/xlink" x="0px" y="0px"
	 viewBox="0 0 512.001 512.001" style="enable-background:new 0 0 512.001 512.001;" xml:space="preserve">
<path style="fill:#FB7B76;" d="M498.519,329.125l-0.054,63.944h-55.961c0-26.035-21.095-47.13-47.116-47.13
	c-26.035,0-47.13,21.095-47.13,47.13h-65.559h-58.384c0-26.035-21.095-47.13-47.13-47.13c-26.022,0-47.116,21.095-47.116,47.13
	H60.336v-40.722v-46.443v-57.092h86.842h116.58l47.857-116.014h57.684h64.98v118.168c35.795,0,64.684,29.253,64.253,65.048
	L498.519,329.125z M387.971,250.966v-65.815h-46.699l-26.991,65.815H387.971z"/>
<path style="fill:#666666;" d="M395.388,345.939c26.022,0,47.116,21.095,47.116,47.13c0,26.022-21.095,47.13-47.116,47.13
	c-26.035,0-47.13-21.108-47.13-47.13C348.258,367.034,369.353,345.939,395.388,345.939z"/>
<polygon style="fill:#E6F6FF;" points="387.971,185.151 387.971,250.966 314.28,250.966 341.271,185.151 "/>
<path style="fill:#666666;" d="M177.185,345.939c26.035,0,47.13,21.095,47.13,47.13c0,26.022-21.095,47.13-47.13,47.13
	c-26.022,0-47.116-21.108-47.116-47.13C130.068,367.034,151.163,345.939,177.185,345.939z"/>
<path d="M13.462,379.607C6.027,379.607,0,385.634,0,393.069s6.027,13.462,13.462,13.462h46.874h57.796
	c6.139,26.951,30.276,47.13,59.053,47.13c28.783,0,52.925-20.179,59.067-47.13h100.071c6.14,26.951,30.282,47.13,59.067,47.13
	c28.776,0,52.913-20.179,59.053-47.13h44.024c7.431,0,13.455-6.02,13.462-13.451l0.055-63.859c0-0.032,0.005-0.063,0.005-0.097
	c0-0.031-0.004-0.062-0.004-0.093l0.011-12.937c0.23-20.913-7.735-40.62-22.436-55.498c-11.507-11.647-26.024-19.202-41.818-21.941
	V132.798c0-7.435-6.027-13.462-13.462-13.462h-51.518V85.264h50.011c7.435,0,13.462-6.027,13.462-13.462
	c0-7.435-6.027-13.462-13.462-13.462h-155.97c-5.452,0-10.366,3.287-12.444,8.328l-44.421,107.673H60.336
	c-7.435,0-13.462,6.027-13.462,13.462c0,7.435,6.027,13.462,13.462,13.462h73.381v34.085H60.336
	c-7.435,0-13.462,6.027-13.462,13.462v43.63H25.981c-7.435,0-13.462,6.027-13.462,13.462c0,7.435,6.027,13.462,13.462,13.462h20.893
	v19.52H25.981c-7.435,0-13.462,6.027-13.462,13.462s6.027,13.462,13.462,13.462h20.893v13.798H13.462z M177.185,426.737
	c-18.557,0-33.655-15.104-33.655-33.668s15.097-33.668,33.655-33.668c18.565,0,33.668,15.103,33.668,33.668
	S195.75,426.737,177.185,426.737z M395.388,426.737c-18.565,0-33.668-15.104-33.668-33.668s15.104-33.668,33.668-33.668
	c18.557,0,33.655,15.103,33.655,33.668S413.947,426.737,395.388,426.737z M160.64,201.264h68.305c5.452,0,10.366-3.287,12.444-8.328
	l44.421-107.673h70.026v34.072h-44.222c-5.452,0-10.366,3.289-12.444,8.329l-44.423,107.687H160.64V201.264z M73.798,262.274h189.96
	c5.452,0,10.366-3.289,12.444-8.329l44.423-107.687h100.193v104.706c0,7.435,6.027,13.462,13.462,13.462
	c13.681,0,26.512,5.361,36.128,15.093c9.578,9.693,14.777,22.523,14.663,36.142h-20.878c-7.435,0-13.462,6.027-13.462,13.462
	c0,7.435,6.027,13.462,13.462,13.462h20.855l-0.032,37.02H454.44c-6.139-26.949-30.276-47.13-59.053-47.13
	c-28.783,0-52.925,20.179-59.067,47.13h-40.159v-41.288c0-7.435-6.027-13.462-13.462-13.462c-7.435,0-13.462,6.027-13.462,13.462
	v41.288h-32.986c-6.14-26.949-30.282-47.13-59.067-47.13c-28.776,0-52.913,20.179-59.053,47.13H73.798V262.274z"/>
<path d="M314.28,264.427h73.69c7.435,0,13.462-6.027,13.462-13.462v-65.815c0-7.435-6.027-13.462-13.462-13.462h-46.699
	c-5.463,0-10.382,3.301-12.455,8.354l-26.991,65.815c-1.703,4.152-1.225,8.879,1.275,12.607
	C305.602,262.19,309.794,264.427,314.28,264.427z M350.3,198.613h24.208v38.891h-40.157L350.3,198.613z"/>
<g>
</g>
<g>
</g>
<g>
</g>
<g>
</g>
<g>
</g>
<g>
</g>
<g>
</g>
<g>
</g>
<g>
</g>
<g>
</g>
<g>
</g>
<g>
</g>
<g>
</g>
<g>
</g>
<g>
</g>
</svg>
