<?xml version="1.0" encoding="iso-8859-1"?>
<!-- Generator: Adobe Illustrator 19.0.0, SVG Export Plug-In . SVG Version: 6.00 Build 0)  -->
<svg version="1.1" id="Layer_1" xmlns="http://www.w3.org/2000/svg" xmlns:xlink="http://www.w3.org/1999/xlink" x="0px" y="0px"
	 viewBox="0 0 349.995 349.995" style="enable-background:new 0 0 349.995 349.995;" xml:space="preserve">
<g id="XMLID_948_">
	<polygon id="XMLID_42_" style="fill:#FFDA44;" points="187.316,68.113 217.316,87.23 217.316,21.47 209.497,16.495 	"/>
	<circle id="XMLID_41_" style="fill:#FF9811;" cx="213.742" cy="18.468" r="18.468"/>
	<polygon id="XMLID_40_" style="fill:#FFDA44;" points="162.678,68.113 132.678,87.23 132.678,21.47 140.497,16.495 	"/>
	<circle id="XMLID_39_" style="fill:#BE720D;" cx="136.253" cy="18.468" r="18.468"/>
	<path id="XMLID_949_" style="fill:#FFDA44;" d="M272.939,58.777c-25.373-16.125-45.096-6.904-56.606,2.717
		c-12.065-7.296-26.209-11.498-41.336-11.498c-16.948,0-32.653,5.285-45.59,14.275c-11.828-8.157-29.872-13.77-52.353,0.518
		c0,0,3.341,26.803,22.313,39.13c-2.818,8.176-4.37,16.943-4.37,26.077c0,44.183,35.817,80,80,80s80-35.817,80-80
		c0-10.977-2.215-21.435-6.215-30.958C269.389,87.31,272.939,58.777,272.939,58.777z"/>
	<path id="XMLID_950_" style="fill:#FF9811;" d="M129.408,64.271c-11.828-8.157-29.872-13.77-52.353,0.518
		c0,0,3.341,26.803,22.313,39.13c-2.818,8.176-4.37,16.943-4.37,26.077c0,44.183,35.817,80,80,80v-160
		C158.049,49.996,142.344,55.28,129.408,64.271z"/>
	<path id="XMLID_951_" style="fill:#FFDA44;" d="M258.776,262.562c-8.244-18.151-24.119-34.215-44.219-43.666l-19.56-48.901h-20h-20
		l-19.56,48.9c-20.1,9.451-35.975,25.516-44.219,43.666c-13.09,13.516-21.449,27.974-17.834,42.434
		c4.255,17.019,15.751,23.172,27.555,23.089c11.151,13.489,24.058,21.911,24.058,21.911s42.682,0,50,0s50,0,50,0
		s12.907-8.422,24.058-21.911c11.805,0.083,23.3-6.07,27.555-23.089C280.225,290.535,271.866,276.077,258.776,262.562z"/>
	<path id="XMLID_952_" style="fill:#FF9811;" d="M154.997,169.995l-19.56,48.9c-20.1,9.451-35.975,25.516-44.219,43.666
		c-13.09,13.516-21.449,27.974-17.834,42.434c4.255,17.019,15.751,23.172,27.555,23.089c11.151,13.489,24.058,21.911,24.058,21.911
		s42.682,0,50,0c0,0,0-92.39,0-130c0-4.015,0-7.413,0-10v-40H154.997z"/>
	<ellipse id="XMLID_953_" style="fill:#BE720D;" cx="124.997" cy="304.995" rx="40" ry="45"/>
	<circle id="XMLID_954_" style="fill:#FFDA44;" cx="124.372" cy="317.495" r="17.5"/>
	<ellipse id="XMLID_955_" style="fill:#FF9811;" cx="224.997" cy="304.995" rx="40" ry="45"/>
	<circle id="XMLID_956_" style="fill:#FFDA44;" cx="225.622" cy="317.495" r="17.5"/>
	<circle id="XMLID_957_" style="fill:#003638;" cx="134.997" cy="119.995" r="7.5"/>
	<circle id="XMLID_958_" style="fill:#003638;" cx="214.997" cy="119.995" r="7.5"/>
	<g id="XMLID_959_">
		<path id="XMLID_960_" style="fill:#BE720D;" d="M129.997,249.995c13.808,0,25-11.192,25-25c0-9.534-5.337-17.818-13.186-22.035
			l-6.374,15.935c-10.207,4.799-19.317,11.31-26.899,18.927C112.905,245.113,120.881,249.995,129.997,249.995z"/>
	</g>
	<g id="XMLID_961_">
		<path id="XMLID_962_" style="fill:#FF9811;" d="M194.997,229.995c0,11.046,8.954,20,20,20c10.424,0,18.977-7.977,19.907-18.159
			c-6.095-5.061-12.931-9.453-20.347-12.94l-3.409-8.522C201.945,212.169,194.997,220.266,194.997,229.995z"/>
	</g>
	<ellipse id="XMLID_963_" style="fill:#FFE98F;" cx="174.997" cy="169.995" rx="60" ry="40"/>
	<path id="XMLID_964_" style="fill:#FFDA44;" d="M174.997,209.995c-33.137,0-60-17.908-60-40s26.863-40,60-40"/>
	<circle id="XMLID_965_" style="fill:#FF9811;" cx="157.497" cy="169.995" r="7.5"/>
	<circle id="XMLID_966_" style="fill:#FF9811;" cx="192.497" cy="169.995" r="7.5"/>
</g>
<g>
</g>
<g>
</g>
<g>
</g>
<g>
</g>
<g>
</g>
<g>
</g>
<g>
</g>
<g>
</g>
<g>
</g>
<g>
</g>
<g>
</g>
<g>
</g>
<g>
</g>
<g>
</g>
<g>
</g>
</svg>
