<?xml version="1.0" encoding="UTF-8"?>
<!DOCTYPE svg PUBLIC "-//W3C//DTD SVG 1.1//EN" "http://www.w3.org/Graphics/SVG/1.1/DTD/svg11.dtd">
<!-- Creator: CorelDRAW X7 -->
<svg xmlns="http://www.w3.org/2000/svg" xml:space="preserve" width="920px" height="1179px" version="1.1" style="shape-rendering:geometricPrecision; text-rendering:geometricPrecision; image-rendering:optimizeQuality; fill-rule:evenodd; clip-rule:evenodd"
viewBox="0 0 784 1005"
 xmlns:xlink="http://www.w3.org/1999/xlink">
 <defs>
  <style type="text/css">
   <![CDATA[
    .fil0 {fill:#0B0B0C}
    .fil7 {fill:#2D2E32}
    .fil2 {fill:#5C5E61}
    .fil9 {fill:#61BAEB}
    .fil10 {fill:#6C97AE}
    .fil1 {fill:#7F817E}
    .fil8 {fill:#A1A29D}
    .fil3 {fill:#A8E9F8}
    .fil4 {fill:#BBBCC3}
    .fil5 {fill:#DBDBD5}
    .fil6 {fill:white}
   ]]>
  </style>
 </defs>
 <g id="Слой_x0020_1">
  <metadata id="CorelCorpID_0Corel-Layer"/>
  <g id="_2239908108080">
   <g>
    <path class="fil0" d="M484 33c2,0 0,2 2,-2 0,0 0,0 0,0l4 1c-1,-2 -2,-3 -4,-4 -2,-3 -2,-3 -5,-2 0,3 1,6 3,7z"/>
    <path class="fil0" d="M503 460l-2 -3 2 -3c-2,1 -5,3 -5,6 2,2 3,4 5,0z"/>
    <path class="fil0" d="M459 48l-6 -1 1 5 3 0c2,-2 2,0 2,-4z"/>
    <path class="fil0" d="M98 835c3,-1 4,-3 5,-6 -2,1 -5,3 -5,6z"/>
   </g>
   <g>
    <path class="fil1" d="M433 387c1,-2 0,0 1,-4 0,-1 0,-1 0,-1 3,3 1,2 4,5 3,-4 3,-7 3,-11 0,-4 1,-1 -1,-5 -3,5 -1,8 -4,10 -3,-1 0,2 -1,-1 -2,-5 -1,1 0,-1 2,-7 0,-4 -1,-9 -1,-2 0,-5 0,-7 6,-1 5,2 7,4 3,2 1,1 3,0 0,0 0,0 0,0 0,0 3,-2 -4,-6l-7 -1 -1 4c-3,0 -6,-1 -7,-1 -2,6 1,1 0,7 -4,0 -1,-2 -5,0 -3,1 -3,3 -3,6 3,-1 4,-3 11,0 1,-4 0,-2 0,-3l3 0 1 5c0,2 1,0 -1,2 0,5 -1,5 2,7z"/>
    <path class="fil1" d="M358 648c1,4 -1,3 8,0 2,5 -3,0 1,3 0,0 2,2 2,2 7,0 10,0 16,1l6 -4c-6,-1 -7,-3 -8,-8 0,-4 1,-11 -1,-15 0,6 2,14 -1,18 -2,-3 -1,-3 -3,-6l1 5c-2,-1 -1,-1 -2,-2 -2,-1 0,0 -1,-1 -1,4 -5,5 -9,5 -4,0 -1,-1 -5,1 -3,1 0,1 -4,1z"/>
    <path class="fil1" d="M466 29l9 13c7,6 3,7 10,11l3 1c1,-2 1,-2 1,-4 0,-4 -2,0 1,-4 -3,0 -7,0 -6,-4 0,-2 1,1 1,-3 1,-6 1,-2 -1,-5 1,5 1,2 -2,3l1 2c-5,-3 -4,-1 -5,-5l-4 2 -3 -7c-3,-4 -1,-5 -6,-5l5 4c-3,2 0,1 -4,1z"/>
    <path class="fil1" d="M391 511c-2,-8 -2,-4 -5,-15 2,-2 2,0 2,-2 -2,-3 -4,-6 -7,-7 1,8 -3,1 2,13 1,4 3,9 4,12l4 -1z"/>
    <path class="fil1" d="M201 707c0,4 -1,6 0,9l7 -6c5,-4 5,-3 7,-6l-2 0c3,-3 5,-3 6,-7 -5,1 -8,7 -11,8 0,0 -1,0 -1,0 -2,0 0,0 -1,-1 -1,0 -1,-1 -1,-1 0,4 0,3 -3,7l-1 -3z"/>
    <path class="fil1" d="M379 691c6,-2 18,-11 19,-16 -8,0 -15,9 -19,16z"/>
    <path class="fil1" d="M727 905c6,-2 14,-15 15,-21l0 -3c-4,1 -3,1 -4,5l-11 19z"/>
    <path class="fil1" d="M248 61c-1,-2 0,-1 -3,-2 1,5 -1,4 2,7 2,-1 3,-1 4,-3l-3 -3 0 1z"/>
    <path class="fil1" d="M564 251c3,1 2,1 4,-1 -2,-2 -2,-2 -4,1z"/>
    <path class="fil1" d="M308 207c2,-3 3,0 0,-4 -3,2 -2,2 0,4z"/>
   </g>
   <g>
    <path class="fil2" d="M344 385l-1 0 0 4c-5,1 -7,-2 -7,5 0,1 0,2 0,2 0,3 0,0 1,2l0 -3c1,0 2,-1 2,2 2,1 4,1 6,1 3,2 -2,2 4,2l2 -5c14,0 11,-3 15,-5 1,0 4,0 5,0 -1,5 0,-3 -3,3l7 -2c4,0 4,0 8,0 -5,0 -3,0 -2,-4l2 3 2 -3c-6,-1 -7,2 -8,-3 -4,4 0,3 1,7 -7,1 -2,-3 -10,-8 0,0 2,-1 2,-1 0,0 0,-1 0,-1l2 -1c0,0 0,0 0,-1 1,0 1,1 2,-3 0,-5 -2,-3 -2,-4 -3,5 1,3 -4,6 0,0 0,-1 0,-1l-1 -6c0,-4 -2,-4 -5,-3l0 7c6,5 0,1 4,5l1 1c1,1 1,1 1,1 -5,1 -6,0 -7,-5 -5,0 0,1 -4,-2 -3,5 1,3 -4,4l0 -3c0,0 -3,2 2,-1 0,-3 0,-3 1,-6l-3 -3c0,0 0,0 -1,0l-1 -5c-1,-1 0,-1 -1,-3l-2 -1c-1,2 -1,1 -1,2l-1 8c2,2 3,3 4,4l-6 -1 -1 -3c-6,3 -4,1 -6,4 3,2 8,3 11,3 1,4 0,3 4,7l-3 1c-1,1 0,0 -1,2 2,1 0,0 2,1l5 1c-2,2 -2,3 -5,3 -1,-2 2,0 -1,-2 -2,2 -1,3 -3,4l-2 -6z"/>
    <path class="fil2" d="M433 387c-2,4 -6,5 -13,8l-4 -3c-1,-2 -1,-5 -4,-1l6 5 -2 1c1,2 -1,2 3,2l0 -2 5 -1 0 -2c6,-1 4,0 8,2 0,0 0,0 0,0 1,0 1,0 1,0 7,2 1,-1 5,5 3,-4 0,-3 1,-5 1,4 0,2 3,6 5,-3 2,-2 5,-5l0 3c2,-3 2,-5 4,-6l2 0c1,-7 4,-19 -2,-25 4,-4 3,-1 2,-3 -3,-1 -3,-2 -6,1 -1,-2 0,0 0,-4l-7 -2c7,4 4,6 4,6 0,0 0,0 0,0 -2,1 0,2 -3,0 -2,-2 -1,-5 -7,-4 0,2 -1,5 0,7 1,5 3,2 1,9 -1,2 -2,-4 0,1 1,3 -2,0 1,1 3,-2 1,-5 4,-10 2,4 1,1 1,5 0,4 0,7 -3,11 -3,-3 -1,-2 -4,-5 0,0 0,0 0,1 -1,4 0,2 -1,4z"/>
    <path class="fil2" d="M454 932c3,10 21,25 30,32 5,3 11,11 16,15 3,3 16,10 20,11 -1,-4 0,3 1,-2 0,-1 2,1 -2,-2l2 0c-1,-1 -1,-2 -2,-2 -4,-5 -11,-4 -31,-25l-8 -8c-5,-3 -10,-10 -14,-13 -4,-3 -4,-4 -7,-8 -2,-3 -5,-3 -8,-6 2,3 4,5 6,9 -3,1 0,2 -3,-1z"/>
    <path class="fil2" d="M595 647c1,5 2,11 3,16l4 16c2,-5 0,-2 2,-7 3,5 1,4 3,9 0,0 -1,0 -1,0 -3,0 -3,-1 -4,0l3 14c0,0 0,0 0,1l2 23 -5 -1 8 2c2,-7 -1,1 5,-3l-3 -1c2,-14 -1,-32 -4,-46 -2,-7 -8,-33 -13,-39 -2,4 -1,3 0,7 1,4 0,6 2,9l-2 0z"/>
    <path class="fil2" d="M380 919c-6,0 -13,0 -18,0 -5,-1 -11,-1 -16,-2 1,4 3,4 4,8l1 1 1 -4c5,2 13,3 18,3 3,0 6,-2 9,-3 3,-1 5,-1 7,-4l4 3 1 -2c0,-1 -1,-2 -1,-3 3,1 0,-1 2,3l1 -4c-4,-1 -4,0 -4,-3l-6 1c1,2 5,5 0,7 0,0 -1,0 -1,1l-1 0c-1,0 -1,0 -1,0 -2,-3 -1,-1 0,-2z"/>
    <path class="fil2" d="M677 347c0,0 4,-1 1,5 -1,2 -2,2 -2,6 3,-1 1,-2 3,-4l1 2c3,-3 8,-19 8,-24 -1,-1 -1,-2 -1,-4 1,-5 -1,-1 3,-4 -4,-2 -2,2 -4,-1 0,0 0,0 -1,0l1 -4c-2,7 -7,18 -8,24l0 1c-2,2 -1,0 -1,3z"/>
    <path class="fil2" d="M210 180c6,-2 7,-4 15,-3 6,2 7,7 11,8l3 -3 0 -1c-3,1 -1,1 -4,0 2,-3 0,-1 4,-4 -4,0 -1,0 -4,-3 -2,-1 -3,-2 -5,-3 -3,-2 -11,-3 -13,0 4,-1 3,-1 8,-1l-5 2c-9,4 -11,0 -10,8z"/>
    <path class="fil2" d="M178 448c1,3 2,6 3,8 1,2 4,6 5,7l0 -2 3 1 -1 -3 2 0c-3,-5 -5,-4 -5,-9l3 -1c-6,-6 -1,-8 -8,-11 0,0 -2,0 -2,3 0,4 -1,2 2,5 -1,3 0,1 -2,2z"/>
    <path class="fil2" d="M374 526c2,6 6,9 13,8 3,-1 6,-2 8,-5 3,-3 2,-3 2,-8 -3,2 -2,3 -5,5 -3,2 -4,1 -7,3 -5,-3 -4,0 -8,-4l-3 1z"/>
    <path class="fil2" d="M736 768l5 8c2,-1 2,0 2,-1 1,0 1,0 1,1l0 1c0,0 0,1 0,1 0,0 -1,0 -1,0 3,3 5,6 8,7 2,-5 0,3 2,-2 -1,-3 -1,-2 -3,-3 0,-1 1,0 0,-2 -1,-3 -1,-2 -4,-4 0,-3 0,0 2,-2 -2,-3 -3,-5 -6,-6 -1,3 -2,3 -6,2z"/>
    <path class="fil2" d="M334 403l-2 5c-2,2 -3,2 -2,6 0,1 1,5 1,5l2 -8c3,4 0,8 2,13 1,-2 0,-12 4,-18 3,-3 2,0 4,-4l-4 -2 -3 3 -2 0z"/>
   </g>
   <g>
    <path class="fil3" d="M350 402l2 1c-6,3 -15,12 -11,20l3 0c-1,3 0,2 1,3 0,2 0,-1 -2,3 4,5 8,7 11,12 9,-1 3,-1 8,2 3,2 2,0 3,0 2,-1 2,0 5,1 2,1 4,1 6,1 6,1 -1,2 16,2 28,-1 27,-7 34,-10 3,-3 4,-6 9,-6 2,-1 10,-11 2,-20 -3,-5 -11,-8 -16,-11 -3,-1 -1,0 -2,-1 -4,0 -2,0 -3,-2 -4,0 -12,-3 -15,-3l-8 -1c-3,0 -4,1 -10,1 -9,-1 -25,3 -33,8z"/>
    <path class="fil3" d="M210 180c-3,5 -3,12 1,16 2,3 8,10 11,11l1 -1c-3,-5 0,-3 -2,-8l3 -1c-6,0 -9,-1 -8,-7 4,-1 3,-1 6,1l1 -3c3,3 0,1 6,1l1 3c1,-4 1,-2 5,-2l-5 -1 5 -3 5 3c1,-9 1,-1 3,-7l-4 0 -3 3c-4,-1 -5,-6 -11,-8 -8,-1 -9,1 -15,3z"/>
   </g>
   <g>
    <path class="fil4" d="M575 102c5,3 4,1 8,4 -3,2 -4,2 -7,3 -2,-3 0,0 -1,-3l-4 1c1,-3 0,-4 1,-7l3 2zm-116 -66c2,3 1,1 1,3 0,0 0,0 0,1l0 2c2,-1 4,0 6,2 3,4 3,5 3,8 -6,-1 -9,-5 -10,-4 0,4 0,2 -2,4l-3 0 -1 -5c2,-3 1,-1 2,-3l-6 -4c-1,-2 0,2 -1,-3l-27 -14 -1 2c-4,-2 -2,-2 -6,-1 4,5 4,-2 6,5 -3,0 0,2 -4,-1l6 6 -1 -3 6 1c0,3 2,6 -1,8l4 8c-8,5 -34,-6 -46,-7 -22,-1 -35,4 -54,4 -19,1 -70,19 -85,31l14 4 9 -4c3,2 6,18 12,1l1 3 8 -2 -1 -2 17 1c3,3 1,0 1,4 0,0 0,3 0,3 -2,5 -2,16 -5,19l-22 112c13,-4 15,-57 19,-70 3,-9 16,-68 18,-70 12,-12 123,-4 125,-2l5 1c-1,-4 40,5 52,19l10 -1c7,3 3,-3 11,3 3,2 15,7 19,9 2,1 7,4 9,5 3,1 2,0 4,2 3,2 0,1 5,3 3,2 1,0 4,2 3,3 2,2 5,3 2,1 3,1 5,2l14 8 -1 1c-5,5 1,4 -6,5 4,-1 3,-1 4,1 -3,3 0,4 -6,4l-1 1 13 -12 -1 1 16 8 1 -1 -4 1 -2 2 8 9 4 -2 -4 -10 1 -1 8 -1 -1 0 -2 -13c-6,-6 -14,-11 -21,-15 -8,-6 -15,-9 -24,-13 -11,-6 -41,-19 -53,-19l-4 0c4,3 4,1 7,4l-7 1c0,1 2,0 -1,2 -4,-3 -2,-3 -6,-4 -8,-1 -4,-2 -7,0 -3,-5 1,-2 -2,-5 -2,-2 0,1 -4,-2 3,-3 3,-1 3,-3 0,0 -1,-2 -1,-2 0,0 0,-1 0,-2 -3,1 -5,-1 -7,-4 3,-5 1,0 4,-4 -4,-2 -2,1 -3,-3 -7,-4 -3,-5 -10,-11l-9 -13 -21 -15 0 1 14 21z"/>
    <path class="fil4" d="M276 657l-1 -5c5,1 2,-1 5,1l1 -5 3 3c2,-3 1,-3 4,-3 4,3 3,2 3,7 -3,0 -2,-2 -5,1 -4,4 2,-1 -1,2 -5,-3 0,-2 -4,-3 -4,1 -1,2 -5,2zm64 -10c-4,-2 -1,0 -2,-3l8 0c-2,-2 -1,-1 -4,-2 -4,-2 1,2 -1,-1 1,-2 4,-1 6,0 0,-2 -1,-4 3,-4 2,0 4,1 5,3l-4 2 0 4 -11 1zm-25 3c-4,1 -2,0 -6,0 -5,1 -2,1 -6,2 -3,-4 -1,-1 -3,-6 -2,2 -1,2 -1,5l-2 -4 -4 0c0,0 -1,0 -1,0 2,-3 3,-2 8,-2 -2,-10 4,-4 1,-9 5,3 5,0 10,-1 0,4 -1,0 0,6l-4 -1c-1,1 -1,1 -1,1l-2 0c7,2 9,1 16,1l-1 1c0,0 -1,1 -1,1 0,0 0,0 0,0 0,0 -1,0 -1,0 -4,3 0,2 -5,3 4,2 2,0 3,3zm51 -21c9,1 4,0 10,4 1,-1 3,-2 5,-2 -1,4 0,4 -5,5 -2,0 -5,0 -6,1 -1,2 0,1 0,2l-1 3c-4,-4 -3,-4 -3,-6 0,-2 2,-4 0,-7zm-51 21l25 -3 18 1c4,0 1,0 4,-1 4,-2 1,-1 5,-1 4,0 8,-1 9,-5 1,1 -1,0 1,1 1,1 0,1 2,2l-1 -5c2,3 1,3 3,6 3,-4 1,-12 1,-18l-13 -1 -1 -2 14 -6 -1 -2 -13 -4 1 -3 12 -3c-4,1 -6,1 -9,1 5,-4 2,-1 3,-8l-3 -3 4 1c-10,-6 0,-3 -6,-8 -7,-5 0,4 -9,-2 -5,-3 -5,-1 -12,-3 -10,-3 -4,2 -5,3l0 -1c-11,-1 -7,1 -21,-11l1 2 -13 2 0 -2c4,-6 6,2 4,-4 -3,-4 -2,-6 -6,-7l-2 6 -6 -2 -4 -7 -11 -1 -3 18 -6 0 6 4 -12 -1 0 2 9 1 -1 8c-18,6 -13,22 -26,36l-8 1c6,1 8,0 9,3l-27 32 12 -6 1 3 -12 8c3,3 10,-1 14,-2 10,-3 3,0 10,3l7 -6 -1 5 11 -4 -5 -1 11 -7 0 2 40 -11z"/>
    <path class="fil4" d="M493 661c3,-1 3,-1 6,1 4,3 3,3 5,6 -1,1 -9,3 -11,3 0,-4 1,-1 0,-5 -1,-4 -2,-3 0,-5zm0 -21l7 4c1,1 1,1 3,1 4,0 0,-1 5,0 -2,2 -1,1 -2,3 -2,3 -1,1 -2,4 5,3 -1,-2 5,0 -2,3 0,0 -4,2 2,4 1,1 1,5 0,0 0,2 0,3 -6,-1 0,-1 -5,-2 0,0 -1,0 -1,0 2,-2 1,0 4,-2 -3,-2 -2,-1 -3,-5l-5 0c-2,0 -2,1 -5,1 1,-4 3,0 1,-7 5,1 -3,-3 2,1 0,0 1,2 4,-2 4,-6 -1,4 0,-1l-5 -2 0 -3zm-102 -57l-2 8c5,2 1,10 1,14l16 4c-1,5 1,2 0,6l0 4 -7 0c0,0 -1,0 -1,0 0,0 -1,0 -1,0l2 -3 -12 -1 -1 4 15 8 -1 2 -11 0 -1 0 3 21 -6 4c-6,-1 -9,-1 -16,-1l14 1 50 6 4 1c-15,-6 -31,-8 -46,-9 2,-1 2,-3 5,-3 5,-1 3,2 9,-1 -2,-4 -3,2 -3,-4 4,0 11,3 17,2l-2 -7c5,1 1,3 6,1 -2,-2 -3,-3 -4,-6 4,-3 2,0 5,-2 3,-1 0,0 3,-2 5,5 2,2 8,3 2,0 0,1 4,0l2 -5c3,1 7,5 10,5 0,-5 -4,-6 -2,-10 3,4 4,3 6,6 0,1 1,2 1,3 2,3 2,3 4,4 4,-5 -2,-7 5,-7 -3,-4 -1,-1 -1,-3 7,2 2,4 12,4 0,-7 -3,-6 -3,-6 -2,2 1,-1 -1,4 -7,-2 0,-4 -11,-3 0,-2 0,-2 3,-3 7,-1 5,2 8,-1 2,-2 0,-1 1,-1l10 1c2,1 1,0 2,1 10,6 -5,-1 3,2 0,-1 0,-2 0,-3 0,0 0,0 0,-1l0 -1c0,0 0,0 0,0 1,0 5,1 5,1 4,0 0,0 5,-1l5 3c-3,2 -4,0 -7,-1 -1,1 -1,2 -2,1l-4 0c-1,3 -5,4 -10,8 4,4 3,-2 5,3 3,0 2,2 2,6 6,-2 1,-3 6,1 -8,-5 -8,5 -18,0 -3,-2 -5,-3 -9,-2 -5,2 -3,1 -4,2 -4,3 4,-1 -1,1 0,0 0,-1 -2,1l0 5c-1,0 -1,-3 -3,-5l-2 1c0,0 0,0 0,0 -3,3 -2,7 -1,10l7 4c3,1 5,-3 9,3 3,-5 -2,-2 2,-5 2,3 2,6 2,9 5,2 3,3 8,1 0,9 2,1 3,9 0,0 -3,-1 0,-1 4,0 1,0 2,1 4,2 3,1 4,4 -5,0 -19,-7 -25,-9l-26 -8 0 2 90 39 1 0c-1,-2 2,-9 4,-12 -4,-4 -2,-1 -6,-3 3,-5 3,-2 2,-8 -2,-5 0,-1 1,-5 -3,0 -2,1 -4,-2 2,-5 3,1 4,-5l-4 2c-4,-6 1,-7 -8,-9 1,-11 0,-3 -6,-15 -3,1 -3,1 -2,3l0 -4c-3,-3 -4,-5 -7,-5 4,-1 2,0 3,-2l-7 -2 0 -7c2,0 3,9 9,4l-2 -5 3 1c-1,-5 -3,-5 -3,-10 2,-8 0,-5 -3,-5l-3 -4 3 -1c-1,-4 -4,-4 -6,-6 -3,-3 -1,-4 -2,-5 -1,-2 -3,-1 -5,-6 -3,-6 -3,-3 -7,-6 -1,-3 1,-3 -1,-5 -3,0 -3,1 -6,1 -1,0 -4,-2 -6,-2 -2,2 2,2 -3,4 -8,2 -1,3 -7,6 -7,-2 -2,-6 -7,-3 -6,3 -1,2 -3,6l-5 -3 -4 4c-5,-2 -2,-6 -10,-3l3 2c-9,2 -6,-1 -11,-3 -6,-3 -5,4 -7,2 -3,-2 -2,3 -8,2 -1,-1 -9,-2 -8,2 -1,-5 -4,-4 -7,-6 -1,-4 1,-2 -3,-6z"/>
    <path class="fil4" d="M353 214c2,4 2,2 1,6 -6,0 -17,-7 -21,-1l-1 7c-4,1 -8,0 -9,2l3 0c-4,4 -2,2 -2,6l-3 18 3 1c0,9 -2,9 -1,14 4,-1 6,-2 12,-2 2,-3 1,-2 2,-3 0,-1 1,0 2,-3 3,4 0,0 7,3l5 -2c10,2 10,-4 18,-6 4,-1 6,-2 9,-2 4,-1 7,-2 11,-3 4,-6 0,-12 7,-18 0,-7 -2,1 1,-12 1,1 2,2 2,4 -1,-4 0,-2 -2,-3 -1,4 0,3 0,6 0,2 -2,5 2,5 -5,1 -4,4 -5,7 -3,6 -3,6 -3,10 6,0 2,0 6,-3 5,4 2,5 7,8 -4,5 2,4 -4,9l0 9c-4,-1 -11,-2 -12,2 -1,6 3,5 7,7l3 -2 3 5c-3,0 -5,0 -8,1 -7,2 -4,2 -4,2l13 -2 0 -6c-4,0 -8,1 -12,-1l0 -4c5,-2 9,-1 13,-1 2,-10 4,-26 6,-38l-3 3c-1,-2 1,-10 2,-14l2 -10c1,-6 0,-5 0,-5l0 0c0,0 0,-1 1,-1 0,0 0,-1 0,-1 0,0 0,-1 0,-2 1,-5 0,-3 0,-5 0,-1 2,-1 1,-3 -1,-3 -1,0 -2,-3 2,-1 0,-2 3,1 0,-4 1,-3 -2,-5 3,-2 1,1 3,-1 -1,-4 -2,0 0,-5l3 -12c-4,1 -1,-1 -3,1 -2,2 -1,6 -2,8 0,0 0,0 -2,0 -1,6 -2,6 -4,10 -2,-2 -3,-2 -6,-4 -1,-3 -1,-4 -2,-6 3,-2 3,-2 6,-2l1 -3c-3,-1 -1,-2 -4,1 0,-5 2,-2 1,-5 0,-2 -1,-2 -1,-6 -3,2 -2,1 -5,-1l0 -6c5,-5 -2,-4 5,-6 -2,-3 -2,-3 -3,-7l-3 -2 1 -4 3 0c-1,-4 -2,0 -2,-4 0,-3 1,1 0,-4 2,-1 0,0 2,0l-2 -2c-3,3 -6,6 -5,11l1 3c0,0 0,1 0,1 -4,-1 -1,-1 -4,-2l-3 5c-1,0 -1,-1 -3,0l3 2c1,0 1,0 2,1 4,-8 -2,6 1,-4 0,-2 -2,0 1,-1 2,-2 2,-1 3,-1l-2 5c0,1 0,1 0,1 0,1 -1,0 0,3l-3 1c-1,3 0,1 -2,3 -4,-1 -4,-2 -7,-3 0,-4 -1,-3 1,-6 -4,-1 -3,0 -3,-4 -4,1 -3,2 -5,-1 2,-3 -1,-1 3,-1 -1,-9 4,-8 -2,-12 -4,4 1,0 -3,8 -1,3 0,2 0,4 -1,3 -1,1 -2,4 6,1 4,-2 8,1 -4,3 -2,1 -7,1 -1,2 -1,3 -1,6l-6 1 2 4c1,-4 -1,-1 1,-3 3,5 -2,-2 3,6l-5 2 -2 -3 -3 3c3,3 3,-1 3,4 -4,1 3,-3 -7,1l2 4c-3,-2 -2,-1 -7,0 -3,1 -3,2 -4,5l2 2 6 0 -1 2c-3,-2 -2,-1 -5,-1 -1,0 -4,0 -6,0 2,-3 1,-1 1,-3 -1,-3 1,-1 2,-8 -5,-1 -2,-2 -5,1 -1,2 -1,1 2,2 -4,2 -3,4 -5,11 -2,5 -1,6 0,8l-3 1c-1,5 -6,11 -3,16 3,-3 1,-1 5,-1 10,-2 8,-1 15,2 5,1 4,1 5,5l-2 -1z"/>
    <path class="fil4" d="M543 938c0,-1 0,-1 0,-1 0,0 0,0 1,0 3,1 4,4 7,9 2,4 4,7 4,12 -5,0 -4,2 -7,-3l-1 -2c-2,-2 -2,-1 -3,-4 0,0 0,0 0,-1 -1,-2 1,0 -1,-2 -2,-3 -3,-1 -6,-2 3,-2 4,-2 8,-2 -1,-3 0,1 -2,-2 0,0 0,0 0,-1l0 -1zm186 -69c-26,44 -45,62 -86,92 -41,31 -96,4 -102,-42 -7,-8 -7,7 -5,9l3 -6 -2 16 -5 -9c-5,7 4,18 4,21 1,13 -7,12 -7,15 0,11 24,28 34,29 13,2 48,9 57,1l-2 0c4,-2 4,-1 8,-4 0,0 2,-3 2,-3 3,-2 1,1 4,-2 -3,0 -1,1 -3,-2l6 -3c-2,-1 -1,3 -3,-2 5,-4 14,2 14,-5l-5 2c-1,-6 1,-5 3,-8 4,-4 1,0 3,-3 1,-2 0,-1 1,-2 0,0 1,-1 1,-1 3,-4 8,-7 12,-10 4,-4 21,-20 24,-21 -1,9 -3,5 -2,14 -3,-1 -5,2 -7,5 -4,4 0,4 2,6 -3,3 -4,5 -7,7 -3,2 -7,4 -10,6 -6,4 -5,4 -12,8 -4,3 -4,2 -5,5l4 -1c18,-7 75,-58 79,-76l11 -19c1,-4 0,-4 4,-5l0 3c6,-14 14,-28 16,-43 2,-10 -1,-45 -6,-52 -4,-1 0,10 1,17 1,7 2,13 3,17 2,6 -5,27 -9,37 -2,5 -4,6 -4,6 0,1 0,5 -1,7 -2,4 -7,9 -10,16 -2,6 -15,27 -20,28l5 -10 -7 0 19 -38z"/>
    <path class="fil4" d="M358 487c4,-1 0,1 4,3 2,1 3,-1 5,-2 1,5 0,3 -1,8 -2,5 -1,6 -1,9 -2,-1 -2,-7 -7,-4 -1,-3 3,-1 -1,-4 0,0 -2,0 -2,0 1,-9 1,-2 3,-9 -2,3 0,1 -3,3 -6,-3 0,1 -3,-3 0,0 0,-1 0,-1l-2 -2c-1,0 -1,0 -1,0 4,-7 0,-5 3,-10 4,1 5,5 7,-5 1,-5 1,-11 7,-12 1,3 2,5 -2,6l0 8c0,0 0,-1 0,-1l3 0c0,0 0,0 0,0l0 4c-6,3 -1,-1 -5,1 0,2 0,4 0,6 -1,3 -2,2 -4,5zm-21 -10c-9,-8 -8,-16 -9,-28l3 0c1,0 1,-3 5,0 1,5 2,0 1,4 -1,2 -1,1 -2,2 4,4 -1,-1 8,-2l-1 7 -2 0c0,0 -1,0 -1,0l-1 1c0,0 -1,0 -1,0 0,0 0,0 0,0 -3,-1 0,-1 -2,-2l-1 5c1,-2 3,2 3,2 0,0 -1,2 -4,0 1,2 3,7 4,8 7,-3 2,-17 11,-18 3,7 -1,0 -1,4 0,4 0,-2 2,4 0,-2 -2,-1 2,-6 3,-4 -3,0 3,-3 2,3 1,6 -1,9 -3,9 -3,15 -11,15 -5,-1 -2,1 -5,-2zm0 0c5,15 20,15 10,15 -9,1 0,-5 -7,-6l0 5 -6 -3 -2 3 21 9 16 30 -3 3 27 4 -5 11 40 6 5 5 -1 -7 5 2 2 -5 11 -3 3 -6 3 1 -1 6 7 -2 -8 -7c3,-3 10,4 10,-2 1,-4 -1,-5 -5,-5 -9,-2 0,1 -6,2l0 -11c6,1 0,8 12,5 2,0 6,-1 8,-1 11,0 -3,0 6,1 1,0 20,-6 20,-11 -4,2 1,2 -6,4 -6,2 -3,0 -6,-3l-3 4c-3,-3 -3,-2 -8,-2l-78 -5 5 3 0 -1 -5 4 1 1 -2 -6 0 6c0,5 1,5 -2,8 -2,3 -5,4 -8,5 -7,1 -11,-2 -13,-8 -10,-12 -6,-23 -4,-36 -2,-2 0,-5 1,-9l6 -19c3,-8 1,-6 4,-8 -9,0 -24,-1 -31,-6 -8,-6 -14,-11 -18,-20l-3 -1c1,6 0,11 -2,17 -2,11 0,8 -8,11l4 -9 -2 -1c-8,5 0,39 9,42l2 -1 -8 -17 11 11 2 -3z"/>
    <path class="fil4" d="M143 113c3,3 12,5 16,6 10,2 11,-5 18,0 0,5 -3,3 -5,6l3 0 -3 1 1 3c3,-1 1,-1 4,0 0,3 1,1 -2,4l2 1 -3 1 0 3 1 4 -5 1c22,0 -5,9 -16,9l12 4 -3 15 10 -21 2 2c1,13 -8,14 -7,22 3,12 0,12 2,25 2,19 17,29 13,49 9,-2 24,27 46,24l-3 1 9 9c9,-5 11,-2 18,1 4,3 24,2 30,1 10,0 21,-1 31,-1 6,-1 8,-3 12,-7 6,-4 8,-1 12,-3l-17 1 -32 4 1 3c-9,0 -1,-4 -11,-3 -7,1 1,0 -5,-1 -9,-1 2,2 -3,0 -4,-2 -12,-6 -20,-9 -6,-2 -46,-13 -42,-22l12 6 -14 -13c-7,17 -27,-43 -27,-56 1,-13 8,-23 10,-31 2,-5 3,-3 6,-9 7,-14 2,-7 3,-14l11 -6 -1 -1 -30 18c3,-17 27,-23 27,-40l-8 -1 2 -9 1 1 -1 3c12,-12 -3,-46 -16,-52 -5,2 1,2 5,8 10,13 12,9 12,38l-10 16 11 -1 1 2 -8 3 0 -2c-3,9 4,5 -5,6 -3,1 -1,2 -6,-1 -1,1 2,7 -5,5 -6,-2 -7,0 -11,-1l0 -11 -11 2 9 7 -10 -2 11 6 0 2 -24 -6z"/>
    <path class="fil4" d="M145 168c-4,13 -6,20 -8,33 -4,30 -3,48 -1,78 1,11 1,27 4,37 4,17 21,81 27,94 4,7 12,22 13,28 7,3 2,5 8,11 1,3 9,13 12,15 2,-1 0,2 2,-1 -1,-3 0,-2 -3,-4 2,-2 2,0 1,-3 -1,-5 0,-8 -3,-10 -3,-2 -1,1 -5,-2 4,-3 3,1 4,-3 -1,-1 0,0 -2,1 0,-4 -1,-3 1,-6 -3,0 -3,1 -4,3l-2 -2c-2,-4 -2,-1 0,-5 -5,-1 -2,-1 -4,-3 -2,-3 -2,-1 -4,-5 -1,-2 2,0 -2,-3 -1,3 2,4 2,7 0,3 1,0 -1,3 -3,-5 -6,-14 -8,-20 -3,-5 -8,-13 -8,-19l13 -1c0,-2 -1,-2 -1,-4 0,-2 2,-3 1,-4 -2,-4 -9,-7 0,-12 0,0 -7,-3 -8,-4 -1,-4 3,-1 1,-5 -3,-7 -2,-3 -1,-10l-5 3c-1,-1 -1,-6 -1,-7 1,-3 5,-3 7,-3 0,0 -1,-4 -1,-5 -1,-3 -1,-1 -4,-3 -4,-2 -2,-2 -3,-5 -1,-3 -2,-2 -4,-3 2,-5 3,0 3,-7 -1,-4 2,-2 5,-5l-4 -5 5 -1c-1,-2 -2,-2 -1,-4 0,-2 1,-1 1,-1 -2,-2 -6,-7 -7,-10 0,-2 6,-4 3,-6 -3,2 -4,5 -9,2 1,-3 2,-2 5,-3 -7,-3 -2,-3 -4,-9 -2,-8 -4,-6 -5,-12 -2,1 -2,3 -4,1 0,-4 3,-6 3,-10 -1,-4 -2,-4 0,-8 -1,-2 -1,2 -6,-3 -3,-3 -4,-3 -4,-8 8,-6 6,1 10,-1 -3,-5 -3,1 -6,-4 3,-2 1,-1 5,-1 -2,-3 0,-2 0,-4 0,-3 -3,-4 0,-6 -5,2 -3,-1 -7,-4l-1 4c-2,-4 -2,-2 -1,-6l4 0c-1,-4 -1,-3 -4,-4 0,-3 0,-6 0,-8 1,-4 2,-3 2,-4 0,-1 0,-9 1,-12 2,-18 3,-11 9,-17 -5,-2 -2,1 -4,-6l-2 1z"/>
    <path class="fil4" d="M378 786c2,-2 0,-2 -1,-3 -2,1 -2,-1 -3,3l-3 -1c4,2 6,-1 5,-5 -4,-1 -5,4 -14,10 -6,5 1,3 -5,4 0,-5 -1,1 1,-3 2,-3 4,-4 7,-5 0,-6 -2,-2 0,-5 2,-3 2,-1 4,-4 3,-5 4,-8 10,-9 2,8 -4,4 -3,8 2,3 4,6 2,10zm42 -76c-6,4 -9,7 -18,13 -2,2 -1,1 -2,3 -7,9 -19,16 -21,21l-3 0 -18 19 1 1 -9 5 4 29 -1 -3c5,-1 1,0 5,-3 0,2 3,3 -1,5 1,0 3,-1 3,8l47 -46c8,-6 6,-5 11,-11 2,-4 2,0 10,-10 1,-2 3,-3 6,-5 11,-10 14,-11 3,-22 -5,3 1,0 -7,6 -4,3 -4,5 -6,8 -3,3 -2,1 -4,2 -4,3 -1,2 -3,4 -13,11 -6,6 -14,13 -2,3 -6,5 -7,6 -4,5 -10,12 -15,14 0,-6 2,-7 5,-10 2,-2 5,-5 7,-7 9,-9 9,-6 17,-17l11 -10c5,-5 1,-4 10,-11 3,-2 2,0 5,-2l-2 -3 -14 3z"/>
    <path class="fil4" d="M753 165c7,18 0,42 -17,51 -9,4 -19,5 -29,7 -18,2 -22,-2 -31,-4l-2 0 3 4c-9,1 -8,1 -14,-3 6,7 9,9 17,12 5,3 2,0 6,1 5,2 9,4 12,4 3,0 4,-1 5,-2 2,0 2,1 4,0 0,0 3,-1 3,-2l-2 -2 6 -3 3 6 9 -4 2 3c4,-2 7,-3 11,-2 0,2 -2,4 -4,6 -5,4 -4,2 -6,0 1,4 0,3 -2,6 2,-2 7,-4 9,-6 4,-4 6,-4 10,-6 -3,-1 -2,1 -6,-1 1,-1 4,-3 6,-4 4,-2 2,1 5,-3 11,-10 12,-8 15,-23 1,-6 1,-2 2,-6 2,-4 -2,-3 3,-6 3,3 2,6 -1,9l2 5c0,-1 -1,-5 0,-7l1 -3c1,-2 -2,-1 2,-2 2,4 0,2 0,7 5,-5 2,-24 0,-31l-2 -11c-1,-3 -1,-1 -2,-3 -3,-7 2,0 0,-7 0,0 -3,-5 -4,-5l0 5c-3,-4 -2,-5 -6,-7 0,2 2,1 -2,4 -3,-9 -2,-9 -14,-17 -18,-13 -66,-19 -71,-10 8,2 34,-4 64,13 17,9 14,5 13,9l5 2c-2,6 2,5 5,8 3,5 -4,4 2,9 -5,7 1,1 -1,9 -5,-2 -2,-2 -3,-3 -2,-2 -3,-1 -4,-1 -1,-5 3,-2 0,-4 -4,-4 -1,0 -6,-2l-1 -6c-5,3 -2,6 1,7 4,3 3,4 6,7 -1,5 0,2 -2,2z"/>
    <path class="fil4" d="M346 917c5,1 11,1 16,2 5,0 12,0 18,0l-12 -37c-7,1 -17,10 -16,0 -2,0 -2,0 -1,1 2,-5 2,-2 6,-5 -5,-1 -5,1 -7,0 4,-1 1,0 4,-2 -17,0 7,-10 9,-12l-5 -18 -2 -2c-1,5 2,4 1,10l-4 0c-1,2 0,6 -4,6 -4,-1 -3,-4 -3,-7l-7 1c2,3 3,0 7,3 -2,5 -3,0 -8,5 -3,3 1,5 -4,6 8,-3 14,12 -1,12 3,-1 2,-1 4,1 0,5 0,9 -4,10l2 1c-1,4 -2,1 -1,3 1,3 3,0 0,4 -7,1 -3,-2 -5,-6 0,4 1,4 -2,6 -4,-4 -2,-2 -3,-7 0,3 0,3 -3,5l-1 -4c-11,4 -13,-2 -21,-8 8,-4 9,5 12,0 -2,-1 -2,1 -6,-1 -3,-1 -1,0 -3,-1 3,-4 1,-2 6,-3 -4,-1 -4,1 -7,-2 -4,-3 0,-3 -5,-3 -1,-3 -2,-1 0,-4l-6 -1c0,-1 -4,-3 1,-4l-6 -1c0,-7 0,-1 1,-4 1,-4 -6,-11 -9,-13l-1 -1c-2,-3 1,-1 -1,-2l0 5c0,-3 2,-1 4,-1 1,7 1,7 -1,12 -4,-3 -2,-2 -4,-5 -2,-2 -3,-2 -4,-3l-2 -2c0,-1 -1,-2 -1,-2 -2,-2 -3,-2 -4,-3l-10 -13c-2,-3 -2,-3 -4,-3 0,4 36,45 41,50 13,13 37,39 56,37z"/>
    <path class="fil4" d="M365 806l5 -1 0 6 5 0c-1,10 -6,8 -8,15 8,1 7,-2 15,-1 4,0 12,-2 10,-8l-5 3c3,-2 2,-2 2,-5 5,3 2,1 6,2 3,-3 2,-3 5,-6 4,-3 3,-2 5,-5 4,-6 7,-3 9,-13l4 1c5,-9 0,-3 7,-6 -2,-4 0,-5 3,-8 4,-2 1,-1 4,-3 1,-2 1,-1 3,-4 4,-4 6,-3 8,-6 1,-2 1,-11 1,-14 -5,2 -1,1 -5,4l-14 14c-3,4 -3,4 -5,8 -3,-3 -3,4 -2,-4 0,-2 7,-9 8,-10 3,-4 -1,-1 3,-4 4,-2 5,-4 8,-7 10,-7 8,-5 9,-10l0 -1c0,0 0,-1 0,-1 1,0 1,-2 1,-2 0,-1 0,-4 0,-5 1,-5 1,0 1,-5 -3,0 -18,14 -23,17 -2,2 -2,3 -3,3 -2,2 0,0 -4,2l2 3c-3,3 -8,5 -9,8 -3,6 1,5 -6,10 -3,2 -7,6 -9,7 -3,2 -7,5 -10,7 3,6 3,1 5,4 -11,0 -6,-3 -15,5 -4,4 -6,7 -11,10z"/>
    <path class="fil4" d="M90 51l2 0 -1 4 1 4c2,-4 4,-4 6,-7 3,-2 0,-4 7,-4 2,6 -1,2 -1,6 1,4 2,1 4,2 -1,2 -3,2 -6,4 2,6 2,0 4,4 -2,5 -3,0 -2,7 0,3 1,5 -3,5 6,1 2,8 3,5 3,4 -1,-2 5,0 1,4 1,4 -1,8 4,0 2,1 4,-3l2 2c-2,-12 -5,-25 0,-38 6,-14 14,-14 23,-21l-1 -1c3,-1 4,-2 7,-3 3,-2 23,-3 30,0l1 -3 9 2c1,-4 1,-1 -3,-4 5,-3 2,0 4,-3 1,-4 1,0 4,-4 -4,-2 -3,1 -5,-3l4 0c-6,-4 -25,-4 -32,-4 -19,-1 -41,7 -51,21 -2,3 -3,3 -5,5 -4,5 -7,12 -9,19z"/>
    <path class="fil4" d="M626 270l8 4c0,6 -5,10 -8,14 -4,6 -9,4 -9,12l-5 0c0,-7 9,-35 13,-41l1 11zm9 -25c0,7 4,20 2,27 -3,1 -7,-1 -9,-2 -1,-4 -1,-11 -1,-15 0,-7 1,-6 3,-11 4,-2 1,0 3,-1 0,-1 0,-2 0,-3l-2 -5c0,0 0,-2 0,-3l2 -1 -2 -4 -22 71 -11 5 -5 5 11 6 3 -3 0 15 2 1 4 -17 1 -5 11 0c-11,-9 1,2 -6,-1 -8,-3 4,-4 8,-4l1 18 2 0c2,-3 1,-3 4,-8 4,-7 0,-3 -3,-6 -2,-2 -3,-1 3,-4 7,-4 0,-7 13,0l0 -12 5 7 3 -4 3 7c-2,-5 3,1 0,-5 -2,-5 -1,1 -3,-4 0,0 0,-5 0,-9 0,-7 4,-2 5,-7 2,-6 1,-1 8,-1l1 -7 -19 6 0 -8 3 5 3 -2 -12 -44 -4 1 -4 9 7 3 -8 1c2,2 7,7 9,8l-9 1z"/>
    <path class="fil4" d="M224 490c13,19 82,60 105,71 38,17 108,22 144,0l7 -6 -2 -2 -17 1 0 -3c0,12 -2,3 -7,5 -5,3 -5,1 -12,1 0,-1 5,5 -6,6 -3,0 -12,-1 -16,-2l1 2 -13 6 -40 -7 -1 6 -20 -5 3 -3 -4 -12c-1,9 0,10 -3,15l-14 -10 -1 4 -12 -5 3 -1 -60 -35c-1,-8 1,1 -8,-8 -12,-11 -3,-4 -6,-13l-5 1 1 -6 -7 5 3 -5c-3,-1 -10,-11 -13,0z"/>
    <path class="fil4" d="M676 926l-1 -1c-11,5 -9,5 -16,13l-4 -5c-2,2 -7,6 -7,10l6 -1c-2,2 -20,14 -22,15 -4,1 -6,-1 -10,1 -3,2 -1,3 -5,3 -3,0 -13,1 -15,2l7 2c-2,1 -14,-1 -16,-3l4 -1 -5 -4 2 -5c-2,-1 -4,0 -8,-2 -4,-2 -6,-4 -10,-4l-2 7c-4,0 -5,-6 -5,-9l4 2c9,-11 6,-6 5,-9 -1,-1 0,-1 1,-3l-6 -3 0 5c-4,2 -8,2 -10,7 -6,-7 -2,-7 -6,-14 -4,-1 -3,3 -5,-1 6,-4 4,2 9,3 -3,-9 -7,-2 -10,-10 -4,-10 -2,-11 -2,-15 -4,-15 -2,-20 4,-33l2 2c0,-15 2,-3 5,-11 1,-3 -1,1 1,-2 5,-6 6,-4 7,-11l1 7c3,-1 1,-1 2,-2 3,-1 1,0 3,0 4,0 3,-4 0,-7l-1 5 -3 -5c6,-10 3,-10 14,-19l-2 0c-11,6 -33,38 -36,51 -7,22 2,52 17,69 11,12 12,14 28,16 13,3 24,4 37,-1 9,-5 42,-30 48,-39z"/>
    <path class="fil4" d="M194 888l-3 -2c-1,6 -4,11 -5,18 1,-2 0,-3 -2,-5l0 4 -4 -7 -4 5c2,4 5,-1 3,7 -1,-5 -2,-3 -5,-3 -1,-4 3,-4 -2,-7 -4,6 4,8 -10,12l1 3c-4,-2 -3,0 -6,1 -2,1 -5,1 -8,2 -3,-3 0,-3 -5,-4 -5,-2 -2,1 -3,-4 -5,-1 -2,3 -12,-8 -3,9 4,5 5,11 -5,0 -2,0 -5,-3 -4,-3 -2,-1 -4,-2 -2,0 -3,-1 -3,-3 -1,-5 3,0 -1,-6 -5,3 0,1 -3,6 -2,-1 -1,-7 -6,-3 -5,3 -1,3 1,4 -3,2 -20,-13 -24,-16 -12,-10 -15,-27 -19,-22 8,19 38,45 56,53 16,7 30,6 46,1 23,-7 15,-13 22,-32z"/>
    <path class="fil4" d="M543 833c12,-8 5,-11 18,-25 2,-1 12,-13 13,-14 6,-17 23,-27 40,-40 5,-4 11,-7 17,-10 14,-6 8,-1 11,0 3,-1 5,-4 8,-3 4,0 -1,1 6,-1 4,-1 5,1 6,1 3,0 2,-3 8,-1 7,2 11,-5 11,1 1,1 7,2 8,3 3,0 1,-2 4,-5 4,0 13,5 16,8l-4 1c6,4 6,1 11,5 4,4 9,9 0,10 0,0 23,17 25,13l-5 -8c-7,-5 -14,-16 -32,-28 -6,-4 -10,-2 -16,-5 -28,-11 -68,9 -90,28 -5,4 -19,16 -21,21 -9,14 -29,34 -34,49z"/>
    <path class="fil4" d="M287 425c-4,1 -13,7 -14,11 3,7 8,9 5,16 -6,-1 -5,-6 -9,-11l0 3 -4 0c1,3 1,3 4,4l8 9c2,-3 3,-7 5,-11 4,4 13,24 16,-8l8 0c2,0 12,-13 14,-15l-10 -5 1 -2 6 2 -1 -3 6 -3 -3 -2c-2,1 -12,5 -15,6 -3,1 -1,0 -3,2 -1,1 -1,2 -1,3 -2,4 1,0 -6,3l0 6c-2,0 -2,-1 -4,-2l-4 -1 1 -2z"/>
    <path class="fil4" d="M156 236c-8,7 -5,1 -4,15 0,2 3,15 3,17l0 -3 14 0 -1 -17 -2 0 -1 9 -8 5 -3 -11 13 -8c-1,-2 -3,-2 -7,-4l5 -5 -2 -1 5 -8c-1,-8 -8,-10 -4,-20 5,-15 -18,-21 -15,13 2,16 -2,13 7,18z"/>
    <path class="fil4" d="M634 155c0,3 -1,2 2,2 0,-2 -2,-5 8,-7l-1 -4c3,0 6,1 7,-4 4,-2 -5,0 1,0l7 -1c1,-1 2,-2 4,-2l1 0c7,1 1,-1 9,-1 3,0 1,0 4,1l7 -3c-2,-5 0,5 0,-1 0,0 0,-1 0,-2 -1,-4 0,-2 -3,-3 -5,2 -1,1 -2,4l-6 0c-3,1 1,1 -4,1 1,0 2,-1 0,-5 -4,1 1,-1 -2,2 -2,2 0,0 -1,1 0,0 0,1 -2,0 2,-2 4,-4 4,-7l1 -5c-4,-2 -3,1 -5,-3 -3,1 -5,4 -6,-1 -8,3 -12,7 -17,14 -8,14 -6,18 -6,24z"/>
    <path class="fil4" d="M85 931c10,10 12,13 24,20 9,6 27,7 37,8 12,0 30,0 41,-5 9,-3 21,-11 26,-19 12,-25 10,-51 6,-77 -2,-13 -3,-25 -7,-38 -3,-11 -8,-22 -11,-34l-1 1c1,11 8,22 10,32 7,29 3,12 6,36 2,14 5,22 4,38 -1,11 -1,25 -6,35 -6,9 -11,15 -20,20 -7,4 -25,9 -33,7 -7,-2 -22,2 -34,-2 -5,-1 -12,-3 -16,-5 -10,-5 -6,-7 -7,-7 -7,0 -7,1 -10,-6 -2,-3 -5,-7 -9,-4z"/>
    <path class="fil4" d="M306 347l2 -1 1 7c5,-8 -3,-6 1,-11 3,1 0,3 6,6 2,-3 2,-2 -1,-5 5,-1 5,-1 6,-6l2 2c1,-4 2,-6 -1,-9 4,-4 2,-5 2,-8l6 -4 -4 -1c2,-2 2,-1 1,-4l5 0c-2,-6 1,-6 -4,-9 -3,-1 0,1 -4,1 -4,1 1,0 -5,0 -2,0 -4,1 -5,1 -7,2 -2,-2 -6,1 0,0 -2,1 -2,1 -6,4 -5,9 -3,13 4,-2 7,-2 3,-6l-3 4c-3,-5 1,-6 5,-6 1,-5 -2,-6 4,-5 -1,5 -3,-1 -1,9l6 -3c2,2 2,4 1,7 -4,-2 0,0 -2,-4 -11,5 2,4 -7,8l1 3c-3,2 -5,2 -5,8 0,7 2,3 1,11z"/>
    <path class="fil4" d="M478 274l0 5 4 3c8,5 7,2 8,1 0,7 -2,1 1,8 2,3 1,4 3,7 5,-2 12,-2 12,4 1,-5 -2,-3 2,-5 3,4 1,2 2,5 13,-1 8,2 21,1 -8,-7 -17,-6 -23,-14 -5,2 1,0 -3,2 -1,-5 3,-22 5,-27 8,-1 1,2 7,3 3,-6 0,-5 -1,-6 -5,-3 -1,-1 -4,-5l3 -4c2,-5 1,-2 2,-8 1,-5 6,-11 2,-15 -4,2 -4,11 -6,15l-4 14c-1,2 -4,8 -5,13 -1,5 0,12 -3,17l-5 -4c-3,5 2,2 -3,5l-3 -10 -12 -5z"/>
    <path class="fil4" d="M419 294c-5,-1 -8,-3 -13,-2 0,4 -2,19 -3,24 -1,7 -1,15 -2,22 -3,15 -7,31 -7,46l3 1c1,-2 1,-5 1,-7 1,-8 -2,2 1,-16l1 3c0,0 0,1 0,1 1,-2 2,-7 2,-10 0,-3 -1,-6 0,-8 2,-5 2,0 2,-7 0,-3 0,-5 0,-9l4 0c-3,-4 -2,-1 -2,-4 3,1 1,1 4,0 -1,-6 0,0 -4,-3 -1,-12 3,-14 2,-18 0,-3 -2,-2 1,-5 4,2 1,0 2,3 0,0 1,3 1,4 4,-2 1,-2 3,-3 1,7 0,4 2,6 -1,-10 0,-6 -3,-8 -2,-2 0,0 0,-2 0,-3 0,-1 -2,-4 6,0 4,0 7,4 2,-3 3,-6 3,-8l0 -1c0,-4 1,-1 -1,-4 -1,4 0,3 -2,5z"/>
    <path class="fil4" d="M322 391c4,-1 -1,0 4,0 1,-4 -1,-4 0,-9 -2,-2 -2,-1 -1,-3 3,0 -1,-1 3,1 0,-10 9,-30 19,-31l4 -2c-10,-3 -11,3 -17,9l-2 -2c-1,4 1,3 -1,4 -4,-2 -1,0 -2,-6 -6,3 2,2 -5,3 -3,0 -2,-2 -5,1 2,6 2,0 7,3 -4,3 -4,0 -6,5 -1,1 -1,5 -1,7 0,2 1,8 1,9 1,1 3,1 3,5l-5 -1c0,4 1,4 4,7z"/>
    <path class="fil4" d="M302 689l-8 9c-1,2 0,2 -2,3 0,-1 0,-1 1,-2 0,0 0,-1 0,-1l1 -1c-3,-1 -4,-1 -5,-3 -3,1 -9,11 -11,15l7 3c-1,1 -2,1 -4,1 3,3 -1,0 3,5 -3,2 -5,2 -3,5 0,0 0,0 0,0l1 -2c3,-4 0,1 3,-2 2,-2 0,-1 2,-2 9,-5 2,-2 6,-8 1,-2 2,-1 3,-5 2,-3 1,-2 4,-4 3,-3 2,-6 8,-8 4,-5 8,-6 9,-13 -3,1 -5,3 -8,6 -2,2 -4,3 -7,4z"/>
    <path class="fil4" d="M343 822l6 1 -1 -7 3 -1c-1,-7 -3,-13 -4,-21 -1,-5 -1,-18 -3,-21l-1 1 -6 2c4,2 0,0 2,2 0,1 0,1 0,1 0,0 0,0 0,0 2,4 -2,5 -4,9 -1,4 -1,2 -1,6 4,0 1,1 4,-2l2 5c4,-1 -2,-2 3,-1 -6,5 6,3 -3,10 -3,3 -8,7 -8,11 8,-2 7,-11 17,-7 0,0 -1,-1 -1,-1 0,1 0,0 0,0l-1 1c-3,1 0,1 -4,4 3,3 4,2 4,8l-4 0z"/>
    <path class="fil4" d="M688 308c1,-17 3,-35 -2,-52l-3 -1c-1,3 0,3 -3,5 2,4 4,-1 1,9l-6 -1c-3,5 1,0 -5,6l4 1c0,6 2,6 0,10 2,0 3,-1 5,-1 3,0 2,2 3,-2 -4,-3 -1,2 -6,-4 4,-3 3,-1 7,1l1 -2c0,0 1,0 1,0 0,0 0,-1 0,-1 1,-1 2,0 1,-2 1,4 1,8 1,12 -1,7 -5,2 0,8 -3,1 -4,-1 -5,2 2,5 0,2 4,1l-2 4 3 1 -6 1c2,3 0,0 3,3 2,1 1,1 4,2z"/>
    <path class="fil4" d="M696 755c0,3 -2,5 -4,6 -5,-3 -2,-3 -2,-5 0,-1 0,-1 1,-2l5 1zm-58 19c18,-10 21,-8 34,-11 9,-3 15,-2 26,2 17,7 10,5 18,9l2 -1c-1,-1 -3,-4 -4,-5 -2,-2 -10,-1 -13,-7 1,-5 3,-3 4,-6 -4,-6 -3,4 -6,-5l-6 4c-5,-3 -1,-3 -5,-4l0 9c-6,0 -11,0 -16,1 -4,1 -10,3 -14,3 -6,1 -6,-2 -12,3 -4,3 -7,1 -11,7 2,2 -1,1 3,1z"/>
    <path class="fil4" d="M119 774c0,0 1,-1 1,-5 -7,0 -1,3 -7,-1l-1 3c-2,-12 6,-9 -1,-14 -3,2 -2,1 -2,5 -4,-2 -3,-2 -6,0 0,0 2,3 2,3 -6,1 -12,1 -7,10 2,0 5,-1 6,-4l1 5c6,1 0,-2 7,1 -2,-3 -2,-2 -1,-4 5,1 4,2 5,6 4,0 2,0 5,2 3,-3 2,-1 3,-5 -1,4 -2,3 1,6 5,-1 4,-3 3,-7 0,0 0,1 2,-2 -3,-2 -2,-1 -7,-1 0,0 4,0 0,-3 -6,3 0,2 -4,5z"/>
    <path class="fil4" d="M431 789c8,1 0,1 8,-9 1,-1 2,-2 2,-3 -2,0 -5,3 -6,4l-6 6c-7,8 -7,6 -11,11 -7,8 -16,17 -24,22 5,3 18,-8 21,-12 2,-1 1,2 4,-3 2,2 2,3 2,3 6,-8 3,-3 8,-11 3,-5 1,-2 2,-8z"/>
    <path class="fil4" d="M346 75c2,4 0,4 -3,5 -5,2 -4,2 -4,7l-7 -1c4,5 0,5 4,6l5 -7c2,1 2,1 2,4 0,-3 0,-3 3,-4 2,2 3,3 2,7 6,-1 4,-4 8,-3 5,4 0,2 3,8 3,-4 1,-3 2,-6 5,-1 9,-2 11,-8l-6 0 -1 4 -11 -7 5 -3c-8,0 -2,-2 -7,1 -2,-2 -2,-2 -1,-5 0,3 -3,5 -5,2z"/>
    <path class="fil4" d="M215 773c0,4 11,26 14,30 3,4 7,9 10,14 2,3 6,12 10,13 0,-4 -4,-9 -5,-13l-1 -7c0,0 0,0 0,0 0,0 0,-1 0,-1l-3 -1 2 -3c-4,-1 -3,-1 -6,-1 -2,-7 -6,-5 -4,-12l-5 1 -6 -16c1,3 0,2 -2,4l-4 -8z"/>
    <path class="fil4" d="M416 366c4,-5 7,-9 13,-10 6,-1 15,0 20,3 12,7 12,23 9,35 1,3 -1,2 2,3 4,-5 3,-20 1,-27 3,1 5,0 6,-2 -2,-4 -7,-4 -6,0 -2,-3 -1,-1 -1,-2 -1,-3 -1,-1 -2,-4l-2 -2c-4,-5 -5,-4 -7,-4 3,-2 1,-1 1,-3 -4,0 -1,1 -4,1 -1,0 -5,0 -5,0 -4,-1 -8,-2 -12,-1 0,0 -9,4 -9,4 -2,2 -1,4 -6,7l2 2z"/>
    <path class="fil4" d="M206 100c3,0 1,-1 2,1l-1 5c4,3 2,1 4,1 0,0 0,0 0,-1 0,0 1,0 1,0 2,0 6,-5 7,-7 1,-3 1,-3 2,-5 0,0 2,-4 2,-4 2,-5 0,-4 1,-7 0,-1 0,-1 1,-1l1 -1 -10 1c-2,-3 0,-2 -2,-3 -2,4 -2,8 -3,12 -2,9 -1,4 -5,9z"/>
    <path class="fil4" d="M429 85l4 -1c0,-2 0,-1 -1,-2 0,-1 0,-1 0,-1l-1 -2c-2,-4 0,-3 0,-3l0 2c4,1 2,1 6,3l2 -2 2 -5 -8 0c-1,0 -3,0 -3,0 -5,0 -1,-1 -7,-1 -1,0 -5,0 -5,0 -2,0 -2,1 -5,0 0,0 -2,-1 -2,-1 -1,5 -4,0 -9,5 3,1 2,0 6,0l3 6c1,-3 -1,0 1,-4 4,1 2,0 3,3l11 -1 3 4z"/>
    <path class="fil4" d="M629 810c2,-3 5,-4 6,-6 -5,1 -3,1 -6,4 -3,0 -1,0 -4,-1 -2,4 3,1 -2,4 -2,1 -3,1 -4,4 3,3 4,2 11,1 5,-1 6,-3 8,-8 2,5 1,2 5,4 3,-3 1,-3 5,-2l-1 3c-4,2 -4,1 -8,3 -5,3 -5,1 -8,3 3,5 11,-1 13,-4l6 3c-1,-5 -5,-2 -2,-6 4,-4 3,2 6,-3 -1,-1 -2,0 -5,-1 -4,-2 0,-1 -6,-2 0,-4 1,-3 0,-6 -2,2 -3,5 -7,7 -3,2 -4,4 -7,3z"/>
    <path class="fil4" d="M337 709c-2,1 -9,8 -11,10 -1,2 -2,2 -4,5 -3,3 -1,4 -4,5 1,5 -2,3 3,3 0,0 13,-16 14,-18l3 2c-1,4 0,0 -3,3 0,3 0,1 1,3 0,0 1,1 2,1 -3,2 -2,3 -1,4 2,1 0,0 3,1 0,-1 0,-1 0,-1l1 -3c0,0 0,-3 0,-3 0,-11 -1,-12 2,-20 -6,3 0,0 -4,6 -1,2 -1,1 -2,2z"/>
    <path class="fil4" d="M450 121l3 -3 -4 0c-3,-3 -8,-4 -13,-4 2,5 0,9 -2,15 -1,4 -2,10 -2,15 3,-2 3,-6 4,-10 2,-4 4,-6 5,-10 3,5 0,5 4,5 -3,1 -1,0 -3,-1 2,-2 2,-2 3,-5 0,0 0,0 0,0 0,1 1,1 1,1 1,1 -1,1 2,1 1,0 3,-1 4,-2l-2 -2z"/>
    <path class="fil4" d="M243 463c0,-4 0,-6 2,-10 3,-5 4,0 6,-7 1,-2 2,-1 1,-3 -6,2 -3,0 -4,6 -5,0 -4,1 -6,3 -3,4 -3,2 -3,8l-5 -1 0 4 3 -2 5 3c-2,2 -7,5 0,7 -3,2 -2,0 -3,2 3,4 2,7 5,9l4 -1c-1,5 -3,1 -1,4 4,0 3,1 3,-3 0,0 0,-5 0,-6 -4,1 -1,4 -6,2l5 -3c-4,-5 -2,-2 -6,-1 -1,-7 4,1 -2,-6l5 -3c-4,0 -2,1 -3,-2z"/>
    <path class="fil4" d="M422 153l1 -4c-3,2 -1,2 -3,1l5 -32c-4,-2 -6,0 -10,1 2,1 2,5 1,7 -2,0 -1,1 -3,-1 2,2 3,3 0,4 2,0 5,0 7,1 -1,5 1,1 -3,5 -1,1 1,1 -2,2 3,1 2,0 5,2l-6 3 4 2c-3,3 -2,0 -2,3 2,2 -1,1 2,0 1,5 -3,1 0,11l2 -6c2,-1 0,0 2,1z"/>
    <path class="fil4" d="M313 155c5,0 1,0 5,-3 0,3 -2,-1 1,4 4,-1 5,-3 6,-7l2 -11c0,0 -1,0 -1,0 -1,2 -6,0 -11,0 -1,7 1,11 -1,15 -4,8 1,-5 -1,2z"/>
    <path class="fil4" d="M252 351c-1,-4 -1,-2 0,-7 -5,0 -5,-1 -8,-1 -1,1 -2,2 -5,3 0,0 -3,0 -3,0 1,1 4,2 8,3 3,1 0,-1 2,1 -1,2 -1,-2 -1,4 -4,0 -3,-1 -6,1 0,0 2,-1 0,5 5,3 2,-1 5,4 2,-3 2,-1 6,-3l-2 -1c1,-3 3,-2 2,-7l-1 -1c0,0 0,0 0,0l-1 -2c4,1 2,2 4,1z"/>
    <path class="fil4" d="M458 403l2 1c4,-1 5,1 4,5l-3 -1 14 8c4,2 2,1 4,1 -2,-5 1,-1 -3,-3 -3,-1 -4,-2 -7,-4 -2,-1 -1,0 -2,-2 1,-1 -1,-2 3,-1 1,0 2,1 3,2 3,1 3,2 7,1 1,5 0,4 1,6 2,-4 2,-2 1,-5 -1,-5 1,-4 0,-3 -2,-2 -6,-4 -8,-6l1 3c1,5 1,-1 0,2 -7,0 -1,-2 -7,-2 -1,0 0,0 -2,0 0,-2 2,-4 -1,-6l-1 -1c-1,0 -2,1 -5,0 -1,3 -1,2 0,5l-1 0z"/>
    <path class="fil4" d="M213 477c0,3 7,10 8,10 1,0 2,1 2,1l1 -1c-3,-3 -4,-3 -5,-8 0,-2 0,-1 2,-3 4,2 0,0 3,4 2,-3 0,-2 2,-5 -5,-1 -1,0 -6,-1l1 -5c-3,0 -1,0 -4,2l-1 -2c0,0 0,-1 0,-1 0,-1 0,-1 -1,-2 0,-1 -2,-2 -3,-2l-3 2c1,3 1,3 2,5 3,5 0,1 2,6z"/>
    <path class="fil4" d="M249 462l1 2c1,-1 2,-1 3,-1 0,0 0,-1 0,-1l5 -1c1,-3 0,-2 1,-5 3,0 4,0 6,-1 0,5 -4,6 2,7l1 -8 -4 -1c-1,-3 -2,-5 -4,-6 -12,10 -8,9 -11,15z"/>
    <path class="fil4" d="M378 374c1,3 1,8 -1,10 1,5 2,2 8,3l3 1c0,-6 2,-11 1,-18l-1 -4c-1,3 0,2 -1,5 -1,3 0,0 -2,4 3,6 1,5 0,6 -1,-2 -2,-5 -3,-6l-4 -6 0 5z"/>
    <path class="fil4" d="M77 787c-3,2 -1,3 -3,0l-1 -3c-4,2 -1,-2 -4,3 -2,4 1,3 -1,7 -1,1 -2,2 -3,3l6 1c0,6 -1,3 3,5 0,-1 0,1 0,-2 1,-4 1,-3 -1,-5 4,0 1,0 5,2l2 1c1,-9 -2,-7 -4,-6l1 -6z"/>
    <path class="fil4" d="M264 806c0,-2 -8,-7 -5,-11l-10 2c1,4 1,3 0,7 -2,-1 -3,-1 -4,-3 -1,6 2,5 6,14l4 -3c-1,-2 -1,-2 -2,-1 -3,0 2,1 -1,0 -1,-1 0,-7 0,-9 12,3 5,-1 9,6l3 -2z"/>
    <path class="fil4" d="M234 81c-2,2 0,0 -1,5 -7,1 2,2 -6,2 2,2 2,1 1,4 -4,-1 2,0 -3,-2 0,3 0,1 -1,3 -1,2 0,0 -1,3 -1,3 1,0 -2,4 6,0 2,-1 7,-4 1,0 2,0 3,-2 1,-3 1,1 0,-1l-1 -1c5,0 4,-2 6,-3 10,-4 5,0 7,-6 0,-1 1,-2 2,-4 -1,0 1,-1 -2,0 -6,2 0,5 -8,6 -1,-1 -1,-1 -1,-4z"/>
    <path class="fil4" d="M388 89c0,5 1,3 3,6l-4 1 2 1c-4,2 -2,1 -4,2 3,1 -1,-2 5,1 -4,4 -3,1 -3,5 4,2 -1,-2 3,0 -1,3 -2,2 0,5 3,-3 0,-1 2,-5 5,2 -3,-4 2,1 0,1 0,1 0,1 4,4 -2,-1 2,2 2,-2 -1,-2 3,-6 -7,-2 -8,-10 -1,-9 -4,-5 1,-3 -3,-5 0,3 1,0 -1,3l-4 0 3 -2c-2,-1 -2,-1 -5,-1z"/>
    <path class="fil4" d="M185 876c-4,-6 -2,-2 -4,-8 -2,-5 -2,-3 -5,-8 -2,2 -4,2 -5,4 1,2 4,6 5,7 1,4 -1,6 3,9 3,-2 2,-2 3,-3l2 0c0,-1 1,-1 1,-1z"/>
    <path class="fil4" d="M229 357c-1,-4 0,-5 -5,-5 -3,14 1,12 4,14 -3,2 -3,1 -3,4 3,1 2,1 6,0 4,-5 -4,0 3,-5 -4,-2 -4,0 -4,-3 0,-3 1,0 2,0 -2,-3 0,-1 -1,-6 -1,3 0,1 -2,1z"/>
    <path class="fil4" d="M616 918c-2,-4 2,-5 -5,-4 1,5 3,1 4,6 -3,1 -2,0 -6,0 -1,3 0,1 0,4 -8,2 -5,-2 -10,2 3,2 1,1 5,1 2,1 2,1 4,1 2,0 7,0 8,-1 -2,-4 0,-1 -4,-2 2,-4 10,-6 10,-6 -1,-3 0,-2 -2,-4 -5,1 -2,-1 -4,3z"/>
    <path class="fil4" d="M306 347c-6,-1 -2,0 -5,1 -4,2 -2,1 -7,1 4,5 2,1 0,6l0 6c2,1 2,1 3,2 1,0 1,0 1,0l3 1 -2 -6 5 -1c-2,-9 3,-1 -1,-8l3 -2z"/>
    <path class="fil4" d="M379 896c1,7 6,10 4,17l6 -1c2,-2 7,-2 10,-4 -1,-2 -3,-1 -3,-1 0,0 -1,0 -1,0l2 -3 -3 0c-9,2 -9,6 -14,-9l-1 1z"/>
    <path class="fil4" d="M253 323c-1,-1 -1,-2 -1,-4 -1,-5 0,-2 -2,-3 -3,2 -1,1 -2,5l-3 0c0,0 1,0 1,0 2,3 2,3 2,6 4,-1 1,-1 4,0 -3,3 -3,2 -2,7l4 2c0,0 0,-1 0,-1 3,-7 -3,-2 4,-7 0,0 0,0 0,0 -4,-1 -5,-4 -5,-5z"/>
    <path class="fil4" d="M621 931c3,6 0,0 5,3 -1,3 -1,1 -2,2 -1,1 0,0 -1,2 2,1 3,-1 5,2 -6,1 -6,-1 -12,0l-2 1c0,0 0,0 -1,0 5,3 15,4 20,0 -2,-3 2,2 -1,-1 -4,-3 -2,2 -3,-1 0,0 -1,0 -1,0 3,-3 2,-1 3,-4 -3,-2 1,0 -4,1 0,0 0,-2 0,-3 -1,-2 0,0 -1,-2l-5 0z"/>
    <path class="fil4" d="M584 490c2,0 8,-6 10,-7l-1 -3c-3,0 -5,2 -8,3 -5,1 -2,-1 -6,3 3,4 4,4 5,4z"/>
    <path class="fil4" d="M253 437c-1,-2 -1,-4 0,-7 -2,-2 0,-2 -3,-1 -1,6 -4,2 -2,7l-5 1c4,7 10,5 10,0z"/>
    <path class="fil4" d="M238 71l2 -6 -3 1c2,-3 3,-1 0,-5 -6,0 -3,2 -4,6 -2,5 -4,1 -4,8 3,-1 7,-5 8,-7l1 3z"/>
    <path class="fil4" d="M394 112l3 2c-1,1 -2,1 -2,1 -2,2 0,0 -1,2 2,1 3,2 3,2 1,2 -1,0 2,3 -3,2 0,1 -3,1l1 5c2,-1 9,-9 4,-15 -1,3 1,2 0,6 -2,-3 -4,-4 -3,-8 -3,0 -3,-1 -4,1z"/>
    <path class="fil4" d="M292 344c0,-4 0,-2 1,-6l-5 -1c-1,4 1,2 -2,5 -1,-1 0,0 0,-2 -1,-7 3,-4 -2,-7l-1 12c6,0 5,-2 9,-1z"/>
    <path class="fil4" d="M311 707c5,-1 6,-2 8,-6 2,-2 4,-4 6,-7l-4 -1c-2,3 -2,4 -5,6 -3,3 -4,4 -5,8z"/>
    <path class="fil4" d="M220 339c-4,0 -1,-1 -3,2l-5 -2c-2,6 0,3 4,5 -4,2 -3,-1 -4,3l5 1c3,-3 3,-5 3,-9z"/>
    <path class="fil4" d="M314 180c-6,2 0,1 -2,5 -2,2 -2,-1 -2,4 3,1 4,1 7,1 0,-3 -1,-8 -3,-10z"/>
   </g>
   <g>
    <path class="fil5" d="M308 203c3,4 2,1 0,4 -2,-2 -3,-2 0,-4zm6 -23c2,2 3,7 3,10 -3,0 -4,0 -7,-1 0,-5 0,-2 2,-4 2,-4 -4,-3 2,-5zm4 -28c-4,3 0,3 -5,3 2,-7 -3,6 1,-2 2,-4 0,-8 1,-15 5,0 10,2 11,0 0,0 1,0 1,0l-2 11c-1,4 -2,6 -6,7 -3,-5 -1,-1 -1,-4zm76 -40c1,-2 1,-1 4,-1 -1,4 1,5 3,8 1,-4 -1,-3 0,-6 5,6 -2,14 -4,15l-1 -5c3,0 0,1 3,-1 -3,-3 -1,-1 -2,-3 0,0 -1,-1 -3,-2 1,-2 -1,0 1,-2 0,0 1,0 2,-1l-3 -2zm-6 -23c3,0 3,0 5,1l-3 2 4 0c2,-3 1,0 1,-3 4,2 -1,0 3,5 -7,-1 -6,7 1,9 -4,4 -1,4 -3,6 -4,-3 2,2 -2,-2 0,0 0,0 0,-1 -5,-5 3,1 -2,-1 -2,4 1,2 -2,5 -2,-3 -1,-2 0,-5 -4,-2 1,2 -3,0 0,-4 -1,-1 3,-5 -6,-3 -2,0 -5,-1 2,-1 0,0 4,-2l-2 -1 4 -1c-2,-3 -3,-1 -3,-6zm-42 -14c2,3 5,1 5,-2 -1,3 -1,3 1,5 5,-3 -1,-1 7,-1l-5 3 11 7 1 -4 6 0c-2,6 -6,7 -11,8 -1,3 1,2 -2,6 -3,-6 2,-4 -3,-8 -4,-1 -2,2 -8,3 1,-4 0,-5 -2,-7 -3,1 -3,1 -3,4 0,-3 0,-3 -2,-4l-5 7c-4,-1 0,-1 -4,-6l7 1c0,-5 -1,-5 4,-7 3,-1 5,-1 3,-5zm-67 140l-1 10 -7 46c6,0 10,0 16,0 14,1 3,-2 10,-6 3,5 -4,8 8,6 5,-1 9,-3 15,-3l1 -16 3 -18c0,-4 -2,-2 2,-6l-3 0 -1 0c-5,-1 -5,0 -9,-3 2,-4 1,-4 7,-8 5,-3 17,-8 23,-7 4,1 8,4 10,4l2 1c-1,-4 0,-4 -5,-5 -7,-3 -5,-4 -15,-2 -4,0 -2,-2 -5,1 -3,-5 2,-11 3,-16l3 -1c-1,-2 -2,-3 0,-8 2,-7 1,-9 5,-11 -3,-1 -3,0 -2,-2 3,-3 0,-2 5,-1 -1,7 -3,5 -2,8 0,2 1,0 -1,3 2,0 5,0 6,0 3,0 2,-1 5,1l1 -2 -6 0 -2 -2c1,-3 1,-4 4,-5 5,-1 4,-2 7,0l-2 -4c10,-4 3,0 7,-1 0,-5 0,-1 -3,-4l3 -3 2 3 5 -2c-5,-8 0,-1 -3,-6 -2,2 0,-1 -1,3l-2 -4 6 -1c0,-3 0,-4 1,-6 5,0 3,2 7,-1 -4,-3 -2,0 -8,-1 1,-3 1,-1 2,-4 0,-2 -1,-1 0,-4 4,-8 -1,-4 3,-8 6,4 1,3 2,12 -4,0 -1,-2 -3,1 2,3 1,2 5,1 0,4 -1,3 3,4 -2,3 -1,2 -1,6 3,1 3,2 7,3 2,-2 1,0 2,-3l3 -1c-1,-3 0,-2 0,-3 0,0 0,0 0,-1l2 -5c-1,0 -1,-1 -3,1 -3,1 -1,-1 -1,1 -3,10 3,-4 -1,4 -1,-1 -1,-1 -2,-1l-3 -2c2,-1 2,0 3,0l3 -5c3,1 0,1 4,2 0,0 0,-1 0,-1l-1 -3c-1,-5 2,-8 5,-11l2 2c-2,0 0,-1 -2,0 1,5 0,1 0,4 0,4 1,0 2,4l-3 0 -1 4 3 2c1,4 1,4 3,7 -7,2 0,1 -5,6l0 6c3,2 2,3 5,1 0,4 1,4 1,6 1,3 -1,0 -1,5 3,-3 1,-2 4,-1l-1 3c-3,0 -3,0 -6,2 1,2 1,3 2,6 3,2 4,2 6,4 2,-4 3,-4 4,-10 2,0 2,0 2,0 1,-2 0,-6 2,-8 2,-2 -1,0 3,-1l-3 12c-2,5 -1,1 0,5 -2,2 0,-1 -3,1 3,2 2,1 2,5 -3,-3 -1,-2 -3,-1 1,3 1,0 2,3 1,2 -1,2 -1,3 0,2 1,0 0,5 0,1 0,2 0,2 0,0 0,1 0,1 -1,0 -1,1 -1,1l0 0c0,0 1,-1 0,5l-2 10c-1,4 -3,12 -2,14l3 -3c2,-8 4,-32 7,-42 2,-4 0,-3 1,-8 2,-8 2,-15 3,-22 1,-6 3,-5 2,-9 -2,-1 0,-2 -2,-1l-2 6c-3,-10 1,-6 0,-11 -3,1 0,2 -2,0 0,-3 -1,0 2,-3l-4 -2 6 -3c-3,-2 -2,-1 -5,-2 3,-1 1,-1 2,-2 4,-4 2,0 3,-5 -2,-1 -5,-1 -7,-1 3,-1 2,-2 0,-4 2,2 1,1 3,1 1,-2 1,-6 -1,-7 4,-1 6,-3 10,-1l-5 32c2,1 0,1 3,-1 2,-5 2,-12 3,-17 1,-7 3,-13 4,-19 -5,1 -13,3 -18,1l0 -4c4,-3 15,-2 20,-2 1,-11 3,-8 0,-10l0 2c-6,-1 -4,-2 -8,1 -4,-4 -4,-4 -7,-3 0,0 0,-1 0,-2 -2,-3 -1,0 -3,-3 1,-4 1,0 1,-5l3 0c2,-1 2,-1 5,-1l-1 -3c3,0 2,1 7,1l-3 -4 -11 1c-1,-3 1,-2 -3,-3 -2,4 0,1 -1,4l-3 -6c-4,0 -3,1 -6,0 5,-5 8,0 9,-5 0,0 2,1 2,1 3,1 3,0 5,0 0,0 4,0 5,0 6,0 2,1 7,1 0,0 2,0 3,0l8 0 0 -1c-2,-2 -113,-10 -125,2 -2,2 -15,61 -18,70 -4,13 -6,66 -19,70z"/>
    <path class="fil5" d="M280 785c-3,-4 -1,-5 1,-8 3,-6 12,-17 17,-18 -1,7 -8,9 -13,18 -2,3 -3,6 -5,8zm5 -44c1,-5 2,-3 4,-7 2,-3 3,-4 4,-7l5 1c-9,4 -5,12 -13,13zm-7 -32c-4,9 -2,6 -5,12 -4,5 -2,7 -5,13 -2,6 -3,6 -2,14 1,6 -1,8 0,14 0,-1 1,0 3,-3 2,-3 2,-7 7,-8 0,4 0,1 -3,8 -2,5 -2,4 -6,6 1,8 8,19 13,21 0,3 -1,1 -1,4 11,1 3,3 11,7 1,-1 11,-14 13,-17 7,-10 6,-6 13,-16 3,-3 4,-3 4,-5l0 -1c1,-4 4,-6 8,-10 2,-3 1,-2 3,-5 1,-1 2,-2 3,-4 7,-11 1,-8 6,-10 2,7 -2,11 -7,15 -2,3 -2,4 -5,6 -3,2 -5,3 -6,6 1,5 0,0 2,3 -5,5 -12,13 -16,20 -3,4 -4,6 -7,10 -3,3 -7,5 -9,9 1,3 9,8 14,13 3,3 3,2 6,4 3,2 1,2 5,3 13,5 16,3 23,6l3 -2 4 0c0,-6 -1,-5 -4,-8 4,-3 1,-3 4,-4l1 -1c0,0 0,1 0,0 0,0 1,1 1,1 -10,-4 -9,5 -17,7 0,-4 5,-8 8,-11 9,-7 -3,-5 3,-10 -5,-1 1,0 -3,1l-2 -5c-3,3 0,2 -4,2 0,-4 0,-2 1,-6 2,-4 6,-5 4,-9 0,0 0,0 0,0 0,0 0,0 0,-1 -2,-2 2,0 -2,-2l6 -2 1 -1 2 -77 -11 1 1 0 1 12c1,-1 1,0 2,-2 4,-6 -2,-3 4,-6 -3,8 -2,9 -2,20 0,0 0,3 0,3l-1 3c0,0 0,0 0,1 -3,-1 -1,0 -3,-1 -1,-1 -2,-2 1,-4 -1,0 -2,-1 -2,-1 -1,-2 -1,0 -1,-3 3,-3 2,1 3,-3l-3 -2c-1,2 -14,18 -14,18 -5,0 -2,2 -3,-3l-13 16 8 -13c-2,-1 -7,0 -8,-3 0,-1 -1,-10 -2,-11l11 -10 -3 -3 -10 11 -3 -1 10 -23c-6,2 -5,5 -8,8 -3,2 -2,1 -4,4 -1,4 -2,3 -3,5 -4,6 3,3 -6,8 -2,1 0,0 -2,2 -3,3 0,-2 -3,2l-1 2c0,0 0,0 0,0 -2,-3 0,-3 3,-5 -4,-5 0,-2 -3,-5 2,0 3,0 4,-1l-7 -3z"/>
    <path class="fil5" d="M379 691c4,-7 11,-16 19,-16 -1,5 -13,14 -19,16zm-6 -4l-2 -1 -1 2c-1,0 3,1 -5,1l-2 -8 -6 8 16 7 -1 4 -18 -5 -5 17c0,4 0,6 0,10 3,-2 3,-3 5,-6 1,-1 2,-2 4,-5 4,-3 6,-10 12,-9 -2,5 -3,4 -6,7 2,1 1,-1 4,0 -1,2 -16,14 -19,16l0 25c5,-4 2,-3 3,-7 1,-2 2,-1 1,-4 8,2 6,-4 7,-5 2,-2 3,4 5,-8l2 3c1,-5 0,-2 3,-5 7,-5 10,-12 12,-14l2 3c3,-5 1,-3 -1,-6 5,-3 3,2 7,1 1,-3 -1,-1 -3,-4l4 -1 -2 -3c5,1 3,-1 6,-3 4,-2 2,1 6,2l-3 -5c4,-1 13,-8 17,-7 -1,4 -8,7 -12,9 -1,11 -1,3 -9,11 -2,3 -2,2 -5,4 -4,4 -1,3 -8,4 1,2 3,1 -6,9l-9 11c-3,4 -3,2 -4,4l-1 1c-2,2 -1,-1 -2,2 -5,12 -5,3 -7,10l-3 -1 1 21 9 -5 -1 -1 18 -19c2,-3 -1,-2 1,-4 1,-1 3,-2 4,-4 2,-3 1,-1 4,-3 4,-3 1,1 2,-5l5 -1c0,-3 0,-1 2,-3l6 -7c4,-5 5,-5 7,-8 1,-2 18,-11 22,-11 -2,5 -5,4 -9,9l14 -3c-3,-4 -8,-13 -12,-17 -5,-5 -3,-2 -2,-5 -4,-2 0,2 -5,-2 -5,-4 -2,-1 -5,-3 -2,-1 -1,-3 -11,-6 -6,-2 -24,-7 -29,-5l-5 6c22,13 11,15 8,12z"/>
    <path class="fil5" d="M461 223c7,-1 14,2 19,7 3,2 4,3 6,6 4,4 6,3 7,8 6,-14 -2,-12 0,-18 0,-2 4,-16 4,-17 2,-2 3,-3 4,-5 0,-4 -1,-4 0,-8l19 -50c1,-2 -1,-4 0,-5 3,-2 3,-1 4,-5 0,-4 1,-1 4,-3 3,-2 2,-3 3,-6 4,-2 3,3 8,-1 4,-4 2,0 6,1l6 -6c1,2 0,3 0,5l4 -1c-3,5 -2,1 -1,6 -3,-1 -4,-3 -6,-1 -2,5 0,4 2,7 -2,1 -4,1 -5,3 2,4 6,2 2,8 -2,4 -9,18 -10,23 0,5 1,7 -2,10 -6,6 -2,6 -4,11 0,2 -4,7 -6,10 -3,8 -7,19 -8,27 7,-1 7,-2 5,-8 2,0 0,1 3,1 1,-4 2,-9 3,-13 1,-4 1,-4 2,-6 1,-3 0,-3 1,-4 0,-1 1,0 2,-4 3,-6 3,-10 8,-14 -2,-4 -2,-1 0,-5 3,-7 4,-16 7,-20l-2 -2c3,-4 2,-1 5,-1 1,-4 5,-9 7,-11 2,-2 8,-4 12,-7 3,3 1,3 5,3l0 2c6,0 3,-1 6,-4 -1,-2 0,-2 -4,-1 7,-1 1,0 6,-5l1 -1 -14 -8c-2,-1 -3,-1 -5,-2 -3,-1 -2,0 -5,-3 -3,-2 -1,0 -4,-2 -5,-2 -2,-1 -5,-3 -2,-2 -1,-1 -4,-2 -2,-1 -7,-4 -9,-5 -4,-2 -16,-7 -19,-9 -8,-6 -4,0 -11,-3 -1,3 -5,10 -2,14 3,-4 -1,-2 3,-7 3,5 -1,7 -1,11 7,-2 -2,-15 11,-13 -7,6 -4,6 1,13 4,-6 -4,-2 3,-9l0 9 3 0c3,12 0,5 -2,14 -1,5 -4,10 -6,14 -9,15 -12,37 -16,44l-10 29c-1,4 -2,13 -3,16 -5,-2 1,-1 -4,-4 0,-1 4,0 0,-6 -5,-6 -3,-5 -6,-5 -2,4 -1,2 0,4 -1,0 -3,-2 -4,-3 -1,3 -2,4 0,6 -5,0 -4,-1 -8,1l-6 3z"/>
    <path class="fil5" d="M137 29c8,-1 34,-13 59,16 12,15 17,27 13,45 -2,6 -7,16 -9,4l1 -3 -1 -1 -2 9 8 1c4,-5 3,0 5,-9 1,-4 1,-8 3,-12 2,1 0,0 2,3l10 -1 2 -5 -1 12c8,0 -1,-1 6,-2 1,-5 -1,-3 1,-5l4 -10 -1 -3c-1,2 -5,6 -8,7 0,-7 2,-3 4,-8 1,-4 -2,-6 4,-6 3,4 2,2 0,5l3 -1c5,-21 -35,-57 -53,-55l-4 0c2,4 1,1 5,3 -3,4 -3,0 -4,4 -2,3 1,0 -4,3 4,3 4,0 3,4l-9 -2 -1 3c-7,-3 -27,-2 -30,0 -3,1 -4,2 -7,3l1 1z"/>
    <path class="fil5" d="M657 117c1,5 3,2 6,1 2,4 1,1 5,3l-1 5c0,3 -2,5 -4,7 2,1 2,0 2,0 1,-1 -1,1 1,-1 3,-3 -2,-1 2,-2 2,4 1,5 0,5 5,0 1,0 4,-1l6 0c1,-3 -3,-2 2,-4 3,1 2,-1 3,3 0,1 0,2 0,2 0,6 -2,-4 0,1 18,2 23,0 42,7 8,3 24,14 28,22 2,0 1,3 2,-2 -3,-3 -2,-4 -6,-7 -3,-1 -6,-4 -1,-7l1 6c5,2 2,-2 6,2 3,2 -1,-1 0,4 1,0 2,-1 4,1 1,1 -2,1 3,3 2,-8 -4,-2 1,-9 -6,-5 1,-4 -2,-9 -3,-3 -7,-2 -5,-8l-5 -2c1,-4 4,0 -13,-9 -30,-17 -56,-11 -64,-13 5,-9 53,-3 71,10 12,8 11,8 14,17 4,-3 2,-2 2,-4 -1,-6 -14,-14 -19,-17 -6,-4 -19,-7 -26,-10 -21,-6 -40,-1 -59,6z"/>
    <path class="fil5" d="M663 220l-13 -9 1 -1c-2,2 2,11 3,14 5,16 1,5 9,10 4,9 22,14 31,16 13,3 26,2 39,-4 15,-6 41,-33 42,-49 0,-5 2,-3 0,-7 -4,1 -1,0 -2,2l-1 3c-1,2 0,6 0,7l-2 -5c3,-3 4,-6 1,-9 -5,3 -1,2 -3,6 -1,4 -1,0 -2,6 -3,15 -4,13 -15,23 -3,4 -1,1 -5,3 -2,1 -5,3 -6,4 4,2 3,0 6,1 -4,2 -6,2 -10,6 -2,2 -7,4 -9,6 2,-3 3,-2 2,-6 2,2 1,4 6,0 2,-2 4,-4 4,-6 -4,-1 -7,0 -11,2l-2 -3 -9 4 -3 -6 -6 3 2 2c0,1 -3,2 -3,2 -2,1 -2,0 -4,0 -1,1 -2,2 -5,2 -3,0 -7,-2 -12,-4 -4,-1 -1,2 -6,-1 -8,-3 -11,-5 -17,-12z"/>
    <path class="fil5" d="M203 234l4 5 14 13 24 9 3 -19 0 20 9 -46c-3,2 -5,6 -8,9l-12 5c-2,-2 -3,-5 -6,-7 -5,-5 -16,-15 -21,-18l-7 29z"/>
    <path class="fil5" d="M447 425l-2 5 9 13c0,4 -1,-3 -4,2 -2,4 2,1 2,3 1,3 -2,0 -4,5 -2,7 1,1 1,6 0,7 -6,23 -12,26l5 5 20 -56 11 -2c-8,16 -6,12 -9,31l3 1 9 -30 5 3 1 -1 -7 33 4 1 8 -23 6 5 -14 47 3 0 21 -50c-4,-6 -12,-13 -18,-19 -4,-3 -8,-5 -11,-7 -11,-7 -7,-7 -13,-7 1,1 0,2 1,1 -13,1 -5,4 -13,3 0,1 -1,5 -1,7l-1 -2z"/>
    <path class="fil5" d="M639 789l56 5 -2 4 -8 -11 2 -2c4,3 0,3 4,7 4,3 4,2 6,6 2,4 7,7 11,12 8,12 7,36 10,40l1 0c0,-5 2,-32 3,-35l-6 -2 3 -11 -6 3c-4,-5 11,-13 -4,-9 0,-3 3,-12 -4,-10 -5,1 -3,7 -2,-2 -15,3 -9,-14 -19,-3l-3 -7 -42 15z"/>
    <path class="fil5" d="M574 141l-12 32 2 2 16 -24c1,15 6,6 12,8l-8 5 9 2 -3 12 11 -9 -1 -4 8 5 2 -2 0 4 4 -8 -5 -10 0 -1 -4 7 -1 0 1 -11 -8 -9 2 -2 4 -1 -1 1 -16 -8 1 -1 -13 12z"/>
    <path class="fil5" d="M88 735c-4,-3 1,-2 -3,-4l-2 5c-4,-2 1,-3 -4,-4 -5,4 4,10 -6,9l1 -6c-4,0 -2,2 -3,4 -3,4 -3,1 -8,2l0 5 -7 2c-1,4 -2,15 -1,19 6,-2 28,-24 52,-17 6,1 15,5 18,4 -1,-3 -5,-6 -7,-9 -5,-5 -4,-3 -11,-4l-1 -8c-1,4 1,2 -3,6l-4 -5 -4 3c-3,-4 1,-4 -4,-7l-3 5z"/>
    <path class="fil5" d="M422 190l3 1c4,-5 -2,-1 6,-7 1,-4 1,-7 -2,-10 5,0 3,0 4,-4 1,-4 2,0 4,-3l-5 -5 7 0c0,-3 -1,-1 0,-3 2,-2 3,-1 3,-4l-4 2c-3,-5 1,-4 5,-7 1,-4 -2,-2 1,-6l-3 -1c2,-2 6,-2 7,-4l-7 -3c5,-1 5,2 9,-2 -2,-2 -6,0 -6,-3l8 0c-1,4 -2,2 0,6 2,0 2,0 2,-3 0,3 0,3 3,5 1,-3 -1,-1 0,-5 0,-3 0,0 -2,-4 -2,-6 4,-5 -5,-9l2 2c-1,1 -3,2 -4,2 -3,0 -1,0 -2,-1 0,0 -1,0 -1,-1 0,0 0,0 0,0 -1,3 -1,3 -3,5 2,1 0,2 3,1 -4,0 -1,0 -4,-5 -1,4 -3,6 -5,10 -1,4 -1,8 -4,10 0,-5 1,-11 2,-15 2,-6 4,-10 2,-15 -3,0 -4,14 -5,17l-3 19c-2,14 -5,27 -6,40z"/>
    <path class="fil5" d="M232 106c5,-1 1,-1 3,2l6 0c-1,3 -11,20 -14,27 -1,4 -8,31 -8,33 3,-1 3,2 3,-3 1,8 15,-7 5,-12l5 -1c2,-6 13,-45 13,-49 4,0 1,0 5,-3 1,3 -3,1 2,4 2,-7 5,-6 19,-4 3,-5 3,-5 0,-9 -4,2 -1,-1 -2,4l-5 0c4,-2 3,-3 3,-6 -5,0 -3,1 -6,2 -6,1 -1,-3 -9,2 -1,1 0,0 -2,0 -8,3 -12,8 -18,13z"/>
    <path class="fil5" d="M507 485c-3,3 -4,11 -4,16 1,1 -1,-1 -2,5 -2,5 0,3 -4,5 -3,-4 -1,-2 0,-7 1,-4 1,-7 -1,-10 -6,3 -1,1 -4,5 -1,1 -2,0 -3,2 -3,4 -1,7 -2,11 -1,-4 -1,-2 -3,-2 -3,4 0,3 -3,5 -3,2 -3,1 -5,4 5,0 5,-1 8,2l3 -4c3,3 0,5 6,3 7,-2 2,-2 6,-4l5 0c1,-5 6,-8 10,-13 3,-3 5,-15 7,-17 3,5 0,5 1,11l3 -11 -6 -1c1,-4 0,-2 -1,-6l-5 1 -5 16c-1,-1 0,0 -1,-3 0,0 0,-2 0,-2 -1,-3 0,-3 0,-6z"/>
    <path class="fil5" d="M258 174l4 0c0,-4 9,-38 11,-43 1,-6 9,-27 9,-30 0,-5 -1,1 -1,-4 0,-3 0,-4 -1,-7 -3,1 -2,0 -4,4 -1,1 -1,3 -2,4 -1,4 -1,6 -3,10 -6,19 -11,47 -15,62 1,2 0,3 3,2l-1 2z"/>
    <path class="fil5" d="M91 55l-2 6c3,4 2,0 3,4 1,3 1,2 2,6 3,5 -4,4 0,10l4 -6c2,8 1,1 -1,6 5,4 2,-1 8,6l3 -1c-3,3 -5,4 -2,8l3 -4c1,2 2,9 8,8l-2 -8 -1 -2 -2 -2c-2,4 0,3 -4,3 2,-4 2,-4 1,-8 -6,-2 -2,4 -5,0 -1,3 3,-4 -3,-5 4,0 3,-2 3,-5 -1,-7 0,-2 2,-7 -2,-4 -2,2 -4,-4 3,-2 5,-2 6,-4 -2,-1 -3,2 -4,-2 0,-4 3,0 1,-6 -7,0 -4,2 -7,4 -2,3 -4,3 -6,7l-1 -4z"/>
    <path class="fil5" d="M337 477c3,3 0,1 5,2 8,0 8,-6 11,-15 2,-3 3,-6 1,-9 -6,3 0,-1 -3,3 -4,5 -2,4 -2,6 -2,-6 -2,0 -2,-4 0,-4 4,3 1,-4 -9,1 -4,15 -11,18 -1,-1 -3,-6 -4,-8 3,2 4,0 4,0 0,0 -2,-4 -3,-2l1 -5c2,1 -1,1 2,2 0,0 0,0 0,0 0,0 1,0 1,0l1 -1c0,0 1,0 1,0l2 0 1 -7c-9,1 -4,6 -8,2 1,-1 1,0 2,-2 1,-4 0,1 -1,-4 -4,-3 -4,0 -5,0l-3 0c1,12 0,20 9,28z"/>
    <path class="fil5" d="M389 486l0 -4c8,0 8,3 14,3 0,-4 -1,-2 -2,-4 4,-1 1,0 4,-2 -1,-1 -2,-1 -2,-2 -3,-1 0,1 -1,0l4 -1c0,-5 0,-3 -1,-7 -1,-5 3,-1 -2,-4 -3,2 -3,9 -4,15 -5,-1 -1,0 -3,-2 -2,-2 -2,-1 -3,-3 2,-1 3,-1 4,-3 3,-8 -2,0 -1,-4 0,-1 3,-3 3,-4 2,-2 2,-2 3,-6 -3,-2 -1,0 -2,-1 -2,0 -1,0 -2,0 3,0 5,0 8,-2l-19 -1 2 6c-3,2 -2,0 -3,5 -1,9 -1,7 1,15 0,4 -1,5 2,6z"/>
    <path class="fil5" d="M435 431c-5,0 -6,3 -9,6 -7,3 -6,9 -34,10 -17,0 -10,-1 -16,-2 -2,0 -4,0 -6,-1 -3,-1 -3,-2 -5,-1 -1,0 0,2 -3,0 -5,-3 1,-3 -8,-2 -3,-5 -7,-7 -11,-12 2,-4 2,-1 2,-3 -1,-1 -2,0 -1,-3l-3 0c-4,-8 5,-17 11,-20l-2 -1c-11,3 -17,18 -10,28 3,5 5,7 10,11 6,4 10,4 17,6 9,2 30,3 39,2 9,-2 24,-9 29,-18z"/>
    <path class="fil5" d="M297 80l2 1c4,1 2,-2 3,1 -3,2 -6,0 -11,2 -5,2 -2,2 -8,3l-1 6c1,0 17,1 18,5 -2,0 -9,-5 -10,2 5,0 0,-2 8,-1l-4 8c3,2 3,0 4,4 -4,-3 -3,-2 -5,-1 2,4 0,3 4,4 4,-5 2,-8 1,-10l3 -1c3,-3 3,-14 5,-19 0,0 0,-3 0,-3 0,-4 2,-1 -1,-4l-8 3z"/>
    <path class="fil5" d="M354 801c0,6 9,40 12,46 1,1 1,0 1,2 -1,-6 -4,-16 -6,-22l6 -1c2,-7 7,-5 8,-15l-5 0 0 -6 -5 1 -3 3c-2,1 -1,1 -4,1l2 -2c0,-9 -2,-8 -3,-8 4,-2 1,-3 1,-5 -4,3 0,2 -5,3l1 3z"/>
    <path class="fil5" d="M139 120c-4,-2 -4,-4 -9,-3 -3,4 0,1 -1,3 -1,3 -2,-1 -1,4 6,0 0,-2 4,-2 1,2 0,7 0,8 1,3 1,0 2,3 0,2 -3,0 1,4l1 -2c3,3 2,2 6,2 1,4 -1,2 2,4 4,-1 5,-1 4,-5 -1,4 3,4 4,5 2,2 1,6 7,3 -1,-4 -4,-5 -7,-8 -11,-13 -5,-12 -13,-16z"/>
    <path class="fil5" d="M465 629c4,2 9,7 13,10 2,-5 -1,-5 7,-6 -2,-5 -1,1 -5,-3 5,-4 9,-5 10,-8l4 0c1,1 1,0 2,-1 3,1 4,3 7,1l-5 -3c-5,1 -1,1 -5,1 0,0 -4,-1 -5,-1 0,0 0,0 0,0l0 1c0,1 0,1 0,1 0,1 0,2 0,3 -8,-3 7,4 -3,-2 -1,-1 0,0 -2,-1l-10 -1c-1,0 1,-1 -1,1 -3,3 -1,0 -8,1 -3,1 -3,1 -3,3 11,-1 4,1 11,3 2,-5 -1,-2 1,-4 0,0 3,-1 3,6 -10,0 -5,-2 -12,-4 0,2 -2,-1 1,3z"/>
    <path class="fil5" d="M358 488l0 -1c2,-3 3,-2 4,-5 0,-2 0,-4 0,-6 4,-2 -1,2 5,-1l0 -4c0,0 0,0 0,0l-3 0c0,0 0,1 0,1l0 -8c4,-1 3,-3 2,-6 -6,1 -6,7 -7,12 -2,10 -3,6 -7,5 -3,5 1,3 -3,10 0,0 0,0 1,0l2 2c0,0 0,1 0,1 3,4 -3,0 3,3 3,-2 1,0 3,-3z"/>
    <path class="fil5" d="M315 650c-1,-3 1,-1 -3,-3 5,-1 1,0 5,-3 0,0 1,0 1,0 0,0 0,0 0,0 0,0 1,-1 1,-1l1 -1c-7,0 -9,1 -16,-1l2 0c0,0 0,0 1,-1l4 1c-1,-6 0,-2 0,-6 -5,1 -5,4 -10,1 3,5 -3,-1 -1,9 -5,0 -6,-1 -8,2 0,0 1,0 1,0l4 0 2 4c0,-3 -1,-3 1,-5 2,5 0,2 3,6 4,-1 1,-1 6,-2 4,0 2,1 6,0z"/>
    <path class="fil5" d="M287 425l-1 2 4 1c2,1 2,2 4,2l0 -6c7,-3 4,1 6,-3 0,-1 0,-2 1,-3 2,-2 0,-1 3,-2 3,-1 13,-5 15,-6 6,0 7,2 8,-3 -2,-1 1,-1 -3,-1 -8,5 -32,8 -37,19z"/>
    <path class="fil5" d="M493 640l0 3 5 2c-1,5 4,-5 0,1 -3,4 -4,2 -4,2 -5,-4 3,0 -2,-1 2,7 0,3 -1,7 3,0 3,-1 5,-1l5 0c1,4 0,3 3,5 -3,2 -2,0 -4,2 0,0 1,0 1,0 5,1 -1,1 5,2 0,-1 0,-3 0,-3 0,-4 1,-1 -1,-5 4,-2 2,1 4,-2 -6,-2 0,3 -5,0 1,-3 0,-1 2,-4 1,-2 0,-1 2,-3 -5,-1 -1,0 -5,0 -2,0 -2,0 -3,-1l-7 -4z"/>
    <path class="fil5" d="M453 112l0 -2c5,1 2,-1 5,0 0,-2 0,-2 -1,-4 -2,-3 -1,-2 -3,-1 0,0 0,0 -1,0l-2 0c0,0 0,1 -1,1 -2,0 -1,1 -4,0 11,-1 4,0 7,-2l-4 0c-4,-1 -1,-1 -4,-2 -1,-1 -5,-2 -6,-2l-2 8 16 4z"/>
    <path class="fil5" d="M477 258l3 -2 0 5c3,0 -1,0 2,2l1 1c0,0 0,0 0,0 1,-5 0,-4 -2,-7l7 -3c4,0 2,1 6,0 0,-2 -2,-4 -3,-5l1 -2 -5 -1c-2,2 -2,1 -6,2 -4,2 2,2 -5,2 4,5 3,1 1,8z"/>
    <path class="fil5" d="M399 616l-2 3c0,0 1,0 1,0 0,0 1,0 1,0l7 0 0 -4c1,-4 -1,-1 0,-6l-16 -4c0,-4 4,-12 -1,-14 0,5 -3,12 -2,18 5,0 14,0 17,4 -1,4 -1,3 -5,3z"/>
    <path class="fil5" d="M620 192c0,-3 0,-6 0,-9 -2,-4 -3,-5 -2,-9 -3,1 -2,0 -5,2 0,3 1,2 1,4 0,2 -1,3 -1,5 -3,2 -2,-1 -4,2l6 5c0,0 0,0 0,0 2,0 0,2 5,0z"/>
    <path class="fil5" d="M199 588l1 3c3,-3 16,-23 19,-27 4,-5 0,1 6,-6 1,-2 -1,-1 2,-2 1,-2 1,0 -1,-1 -6,2 -11,10 -14,15 -3,5 -12,14 -13,18z"/>
    <path class="fil5" d="M522 296c4,-3 5,-8 5,-12l0 -2c0,-2 1,1 0,-2 -2,-2 1,0 -2,-1 -3,4 -1,4 -2,7 -5,-1 -1,0 -4,-2 -3,-1 -3,-1 -6,1l-3 2c0,-1 0,0 0,0 3,3 1,1 5,0 3,5 0,1 6,2 -1,4 -3,5 1,7z"/>
    <path class="fil5" d="M625 217c0,-12 -2,-5 -2,-10 -3,1 -4,1 -6,3 0,2 0,0 -1,0l-3 0 2 4c0,0 1,3 1,3l1 6c8,-5 1,-6 7,-9l1 3z"/>
    <path class="fil5" d="M174 138l0 -3 3 -1 -2 -1c3,-3 2,-1 2,-4 -3,-1 -1,-1 -4,0l-1 -3c-4,1 -2,1 -6,2 -4,1 -4,0 -5,3 3,4 0,1 3,2 2,2 1,3 4,3 3,0 1,-1 4,-3 1,3 0,3 2,5z"/>
    <path class="fil5" d="M322 391c2,5 3,2 1,8l3 0 5 0c-1,-6 -3,-13 -3,-19 -4,-2 0,-1 -3,-1 -1,2 -1,1 1,3 -1,5 1,5 0,9 -5,0 0,-1 -4,0z"/>
    <path class="fil5" d="M289 694c1,2 2,2 5,3l-1 1c0,0 0,1 0,1 -1,1 -1,1 -1,2 2,-1 1,-1 2,-3l8 -9 1 -2c-3,0 -5,0 -6,-1 -3,2 -6,6 -8,8z"/>
    <path class="fil5" d="M276 657c4,0 1,-1 5,-2 4,1 -1,0 4,3 3,-3 -3,2 1,-2 3,-3 2,-1 5,-1 0,-5 1,-4 -3,-7 -3,0 -2,0 -4,3l-3 -3 -1 5c-3,-2 0,0 -5,-1l1 5z"/>
    <path class="fil5" d="M340 647l11 -1 0 -4 4 -2c-1,-2 -3,-3 -5,-3 -4,0 -3,2 -3,4 -2,-1 -5,-2 -6,0 2,3 -3,-1 1,1 3,1 2,0 4,2l-8 0c1,3 -2,1 2,3z"/>
    <path class="fil5" d="M504 668c-2,-3 -1,-3 -5,-6 -3,-2 -3,-2 -6,-1 -2,2 -1,1 0,5 1,4 0,1 0,5 2,0 10,-2 11,-3z"/>
    <path class="fil5" d="M632 986c-3,3 -1,0 -4,2 0,0 -2,3 -2,3 -4,3 -4,2 -8,4l2 0c5,1 3,0 6,-2 3,-1 2,0 6,-2 3,-1 6,-4 9,-6 1,-2 2,0 0,-2 -2,0 -8,2 -9,3z"/>
    <path class="fil5" d="M354 876c-3,2 0,1 -4,2 2,1 2,-1 7,0 -4,3 -4,0 -6,5 -1,-1 -1,-1 1,-1l14 -6c0,-2 0,-4 -1,-6l-11 6z"/>
    <path class="fil5" d="M275 181c1,6 1,1 2,6l2 -1c0,5 -1,2 1,5l4 -3c1,-3 0,-5 -1,-8l-8 1z"/>
    <path class="fil5" d="M461 408l3 1c1,-4 0,-6 -4,-5l-2 -1 1 -4 -3 0c-2,4 -2,3 -5,6l10 3z"/>
    <path class="fil5" d="M534 990c3,1 7,2 10,2 -1,-4 -7,-5 -10,-10 -3,2 -2,-2 -2,4 0,2 1,2 2,4z"/>
    <path class="fil5" d="M391 515c-6,2 -2,2 -5,5 -4,1 -6,-2 -7,-5 -4,0 -2,-1 -3,2 2,3 5,5 8,7 6,-2 7,-3 7,-9z"/>
    <path class="fil5" d="M416 28c4,3 1,1 4,1 -2,-7 -2,0 -6,-5 4,-1 2,-1 6,1l1 -2c-4,-1 -10,-4 -13,-2 1,1 7,7 8,7z"/>
    <path class="fil5" d="M381 606l0 -7c0,-3 1,-1 -1,-3 -2,3 -1,6 -1,9l-3 0c1,-2 0,0 2,-3 -1,-2 -1,-1 -2,-2 -1,-3 0,0 0,-3l-4 -1 3 3c-1,7 2,4 -3,8 3,0 5,0 9,-1z"/>
    <path class="fil5" d="M268 430l2 1c2,-2 3,-5 5,-6 3,-2 4,-3 6,-5l0 -2 -13 9 0 3z"/>
    <path class="fil5" d="M480 951l8 8c2,0 -1,2 2,0 -2,-5 -6,-10 -11,-11l1 3z"/>
    <path class="fil5" d="M422 34l4 6c3,-2 1,-5 1,-8l-6 -1 1 3z"/>
    <path class="fil5" d="M585 317c5,-2 7,-3 4,-9 -1,2 -4,7 -4,9z"/>
    <path class="fil5" d="M95 905l-4 -4c-3,0 -1,0 -2,1 1,2 2,3 4,4 1,2 1,2 3,1l-1 -2z"/>
    <path class="fil5" d="M337 398l2 -1c0,-3 -1,-2 -2,-2l0 3z"/>
   </g>
   <g>
    <path class="fil6" d="M522 296c-4,-2 -2,-3 -1,-7 -6,-1 -3,3 -6,-2 -4,1 -2,3 -5,0 0,0 0,-1 0,0l3 -2c3,-2 3,-2 6,-1 3,2 -1,1 4,2 1,-3 -1,-3 2,-7 3,1 0,-1 2,1 1,3 0,0 0,2l0 2c0,4 -1,9 -5,12zm42 -45c2,-3 2,-3 4,-1 -2,2 -1,2 -4,1zm-71 -7l-1 3 -1 2c1,1 3,3 3,5 -4,1 -2,0 -6,0l-7 3c2,3 3,2 2,7 0,0 0,0 0,0l-1 -1c-3,-2 1,-2 -2,-2l-2 13 12 5 3 10c5,-3 0,0 3,-5l5 4c3,-5 2,-12 3,-17 1,-5 4,-11 5,-13l4 -14c2,-4 2,-13 6,-15 4,4 -1,10 -2,15 -1,6 0,3 -2,8l-3 4c3,4 -1,2 4,5 1,1 4,0 1,6 -6,-1 1,-4 -7,-3 -2,5 -6,22 -5,27 4,-2 -2,0 3,-2 6,8 15,7 23,14l15 1 8 -33 2 0 -7 33 0 3 49 -4 11 -5 22 -71 -6 -10 -1 -3c-6,3 1,4 -7,9l-1 -6c0,0 -1,-3 -1,-3l-2 -4 3 0c1,0 1,2 1,0 2,-2 3,-2 6,-3l-3 -15c-5,2 -3,0 -5,0 0,0 0,0 0,0l-6 -5c2,-3 1,0 4,-2 0,-2 1,-3 1,-5 0,-2 -1,-1 -1,-4 3,-2 2,-1 5,-2l-2 -6 -2 0 -14 41 -2 -1 12 -36 0 -4 -2 2 -8 -5 1 4 -11 9 3 -12 -9 -2 8 -5c-6,-2 -11,7 -12,-8l-16 24 -2 -2 12 -32 1 -1 0 -2c-4,0 -2,0 -5,-3 -4,3 -10,5 -12,7 -2,2 -6,7 -7,11 -3,0 -2,-3 -5,1l2 2c-3,4 -4,13 -7,20 -2,4 -2,1 0,5 -5,4 -5,8 -8,14 -1,4 -2,3 -2,4 -1,1 0,1 -1,4 -1,2 -1,2 -2,6 -1,4 -2,9 -3,13 -3,0 -1,-1 -3,-1 2,6 2,7 -5,8 1,-8 5,-19 8,-27 2,-3 6,-8 6,-10 2,-5 -2,-5 4,-11 3,-3 2,-5 2,-10 1,-5 8,-19 10,-23 4,-6 0,-4 -2,-8 1,-2 3,-2 5,-3 -2,-3 -4,-2 -2,-7 2,-2 3,0 6,1 -1,-5 -2,-1 1,-6l-4 1c0,-2 1,-3 0,-5l-6 6c-4,-1 -2,-5 -6,-1 -5,4 -4,-1 -8,1 -1,3 0,4 -3,6 -3,2 -4,-1 -4,3 -1,4 -1,3 -4,5 -1,1 1,3 0,5l-19 50c-1,4 0,4 0,8 -1,2 -2,3 -4,5 0,1 -4,15 -4,17 -2,6 6,4 0,18z"/>
    <path class="fil6" d="M446 74c0,3 -2,12 -3,15 -2,3 -1,0 -1,5l11 5 0 5c-3,2 4,1 -7,2 3,1 2,0 4,0 1,0 1,-1 1,-1l2 0c1,0 1,0 1,0 2,-1 1,-2 3,1 1,2 1,2 1,4 -3,-1 0,1 -5,0l0 2 2 1 -2 5 -3 3c9,4 3,3 5,9 2,4 2,1 2,4 -1,4 1,2 0,5 -3,-2 -3,-2 -3,-5 0,3 0,3 -2,3 -2,-4 -1,-2 0,-6l-8 0c0,3 4,1 6,3 -4,4 -4,1 -9,2l7 3c-1,2 -5,2 -7,4l3 1c-3,4 0,2 -1,6 -4,3 -8,2 -5,7l4 -2c0,3 -1,2 -3,4 -1,2 0,0 0,3l-7 0 5 5c-2,3 -3,-1 -4,3 -1,4 1,4 -4,4 3,3 3,6 2,10 -8,6 -2,2 -6,7l-3 -1c-1,9 -4,19 -5,27 -1,7 -4,22 -4,29l0 8 12 -6 0 1 9 8 0 -2 28 11 -1 2 15 1 1 -11c2,-7 3,-3 -1,-8 7,0 1,0 5,-2 4,-1 4,0 6,-2 -4,-1 -3,-8 -16,-16 -4,-2 -5,0 -9,-2l-1 -5 6 -3c4,-2 3,-1 8,-1 -2,-2 -1,-3 0,-6 1,1 3,3 4,3 -1,-2 -2,0 0,-4 3,0 1,-1 6,5 4,6 0,5 0,6 5,3 -1,2 4,4 1,-3 2,-12 3,-16l10 -29c4,-7 7,-29 16,-44 2,-4 5,-9 6,-14 2,-9 5,-2 2,-14l-3 0 0 -9c-7,7 1,3 -3,9 -5,-7 -8,-7 -1,-13 -13,-2 -4,11 -11,13 0,-4 4,-6 1,-11 -4,5 0,3 -3,7 -3,-4 1,-11 2,-14l-10 1c-12,-14 -53,-23 -52,-19z"/>
    <path class="fil6" d="M267 89c0,3 1,4 -3,6l5 0c1,-5 -2,-2 2,-4 3,4 3,4 0,9 -14,-2 -17,-3 -19,4 -5,-3 -1,-1 -2,-4 -4,3 -1,3 -5,3 0,4 -11,43 -13,49l-5 1c10,5 -4,20 -5,12 0,5 0,2 -3,3 0,-2 7,-29 8,-33 3,-7 13,-24 14,-27l-6 0c-2,-3 2,-3 -3,-2 -34,30 -72,88 -29,128l7 -29c-2,-5 -8,-5 -9,-21 0,-5 10,-15 16,-13 2,-3 10,-2 13,0 2,1 3,2 5,3 3,3 0,3 4,3 4,-1 4,-2 9,-2 2,-1 8,0 10,-1l1 -2c-3,1 -2,0 -3,-2 4,-15 9,-43 15,-62 2,-4 2,-6 3,-10 1,-1 1,-3 2,-4 2,-4 1,-3 4,-4 1,3 1,4 1,7 0,5 1,-1 1,4 0,3 -8,24 -9,30 -2,5 -11,39 -11,43 3,1 4,1 7,3 3,1 4,2 6,4l8 -1c1,3 2,5 1,8l-4 3c-2,-3 -1,0 -1,-5l-2 1c1,6 1,4 -1,10 -2,4 -1,4 -5,7 -3,3 -4,5 -6,6 -3,2 -6,3 -8,6l-9 46 23 9 7 -46 1 -10 22 -112 -3 1c1,2 3,5 -1,10 -4,-1 -2,0 -4,-4 2,-1 1,-2 5,1 -1,-4 -1,-2 -4,-4l4 -8c-8,-1 -3,1 -8,1 1,-7 8,-2 10,-2 -1,-4 -17,-5 -18,-5l1 -6c6,-1 3,-1 8,-3 5,-2 8,0 11,-2 -1,-3 1,0 -3,-1l-2 -1 -30 9z"/>
    <path class="fil6" d="M406 455c-3,2 -5,2 -8,2 1,0 0,0 2,0 1,1 -1,-1 2,1 -1,4 -1,4 -3,6 0,1 -3,3 -3,4 -1,4 4,-4 1,4 -1,2 -2,2 -4,3 1,2 1,1 3,3 2,2 -2,1 3,2 1,-6 1,-13 4,-15 5,3 1,-1 2,4 1,4 1,2 1,7l-4 1c1,1 -2,-1 1,0 0,1 1,1 2,2 -3,2 0,1 -4,2 1,2 2,0 2,4 -6,0 -6,-3 -14,-3l0 4c0,5 3,10 4,14 2,6 3,10 4,15l2 6 -1 -1 5 -4 0 1 -5 -3 78 5c2,-3 2,-2 5,-4 3,-2 0,-1 3,-5 2,0 2,-2 3,2 1,-4 -1,-7 2,-11 1,-2 2,-1 3,-2 3,-4 -2,-2 4,-5 2,3 2,6 1,10 -1,5 -3,3 0,7 4,-2 2,0 4,-5 1,-6 3,-4 2,-5 0,-5 1,-13 4,-16l4 -11 3 0 1 4 1 -1 -1 -6c-6,2 -11,5 -14,-2 5,-3 1,0 8,-3 3,-1 4,-1 6,-3l-2 -2c-3,0 -2,2 -6,2 0,-4 1,-4 4,-5 -4,-4 -4,0 -8,2 -2,4 -3,2 -5,0 0,-3 3,-5 5,-6l2 -3 -2 -2 -21 50 -3 0 14 -47 -6 -5 -8 23 -4 -1 7 -33 -1 1 -5 -3 -9 30 -3 -1c3,-19 1,-15 9,-31l-11 2 -20 56 -5 -5c6,-3 12,-19 12,-26 0,-5 -3,1 -1,-6 2,-5 5,-2 4,-5 0,-2 -4,1 -2,-3 3,-5 4,2 4,-2l-9 -13c-1,1 -4,13 -15,17 -3,2 -4,3 -5,4 -2,0 -5,0 -7,1 -4,1 -8,2 -12,3z"/>
    <path class="fil6" d="M130 117c5,-1 5,1 9,3 8,4 2,3 13,16 3,3 6,4 7,8 -6,3 -5,-1 -7,-3 -1,-1 -5,-1 -4,-5 1,4 0,4 -4,5 -3,-2 -1,0 -2,-4 -4,0 -3,1 -6,-2l-1 2c-4,-4 -1,-2 -1,-4 -1,-3 -1,0 -2,-3 0,-1 1,-6 0,-8 -4,0 2,2 -4,2 -1,-5 0,-1 1,-4 1,-2 -2,1 1,-3zm40 26l5 -1 -1 -4c-2,-2 -1,-2 -2,-5 -3,2 -1,3 -4,3 -3,0 -2,-1 -4,-3 -3,-1 0,2 -3,-2 1,-3 1,-2 5,-3 4,-1 2,-1 6,-2l3 -1 -3 0c-10,0 -10,4 -21,-1 -5,-3 -10,-5 -15,-8 -11,-6 -15,-20 -21,-26l2 8c-6,1 -7,-6 -8,-8l-3 4c-3,-4 -1,-5 2,-8l-3 1c-6,-7 -3,-2 -8,-6 2,-5 3,2 1,-6l-4 6c-4,-6 3,-5 0,-10 -1,-4 -1,-3 -2,-6 -1,-4 0,0 -3,-4l2 -6 1 -4 -2 0c-11,17 1,58 15,71 12,13 50,34 65,21z"/>
    <path class="fil6" d="M311 707c1,-4 2,-5 5,-8 3,-2 3,-3 5,-6l4 1c-2,3 -4,5 -6,7 -2,4 -3,5 -8,6zm-14 -21c1,1 3,1 6,1l-1 2c3,-1 5,-2 7,-4 3,-3 5,-5 8,-6 -1,7 -5,8 -9,13l-10 23 3 1 10 -11 3 3 -11 10c1,1 2,10 2,11 1,3 6,2 8,3l-8 13 13 -16c3,-1 1,-2 4,-5 2,-3 3,-3 4,-5 2,-2 9,-9 11,-10l-1 -12 -1 0 11 -1 -16 -2 0 -4 21 -3 3 -7 -13 -1 -1 -2c-2,3 -6,5 -9,8 -8,6 -3,7 -9,7 1,-5 11,-12 13,-15 2,-2 4,-2 7,-2l18 -5c-2,-1 0,-1 -2,0 -2,1 -2,1 -4,2 1,-4 1,-2 2,-4 -9,1 -37,8 -46,12 -10,4 -10,2 -13,6z"/>
    <path class="fil6" d="M625 259c-4,6 -13,34 -13,41l5 0c0,-8 5,-6 9,-12 3,-4 8,-8 8,-14l-8 -4 -1 -11z"/>
    <path class="fil6" d="M635 245l-2 -14 -2 1c0,1 0,3 0,3l2 5c0,1 0,2 0,3 -2,1 1,-1 -3,1 -2,5 -3,4 -3,11 0,4 0,11 1,15 2,1 6,3 9,2 2,-7 -2,-20 -2,-27z"/>
    <path class="fil6" d="M370 490c2,-3 6,-9 9,-10 0,-4 0,-10 1,-15 1,-3 4,-9 1,-11 -3,2 -1,0 -4,8l-6 19c-1,4 -3,7 -1,9z"/>
    <path class="fil6" d="M447 425l1 2c0,-2 1,-6 1,-7 8,1 0,-2 13,-3 -1,1 0,0 -1,-1 -2,-3 -13,-7 -17,-6 4,8 3,6 3,15z"/>
    <path class="fil6" d="M423 87c-3,0 -3,0 -5,1l-3 0c0,5 0,1 -1,5 2,3 1,0 3,3 0,1 0,2 0,2 3,-1 3,-1 7,3 4,-3 2,-2 8,-1l0 -2 -14 -1 0 -7c8,-1 13,2 18,1l0 -2c-6,0 -3,-1 -7,-2 -1,-1 -4,0 -6,0z"/>
    <path class="fil6" d="M415 384c2,1 4,2 5,3 3,1 2,3 6,2l1 -5c-2,-5 -5,-6 -10,-5l-2 5z"/>
    <path class="fil6" d="M343 385l1 0c4,-4 0,-10 -8,-7l0 5c3,1 4,2 7,2z"/>
    <path class="fil6" d="M398 389l6 0 3 1 -1 -5c-2,3 -2,2 -7,2l-1 2z"/>
    <polygon class="fil6" points="332,408 334,403 329,404 329,408 "/>
    <path class="fil6" d="M265 444l4 0 0 -3c-1,-1 1,-1 -4,0l0 3z"/>
   </g>
   <g>
    <path class="fil7" d="M201 786c3,12 8,23 11,34 4,13 5,25 7,38 4,26 6,52 -6,77 -5,8 -17,16 -26,19 -11,5 -29,5 -41,5 -10,-1 -28,-2 -37,-8 -12,-7 -14,-10 -24,-20 -24,-13 -53,-64 -66,-89 -15,-26 -21,-100 7,-121 44,-33 49,-47 103,-17 20,11 66,61 72,82zm18 37c-4,-13 -9,-26 -12,-39 -4,-14 -31,-44 -42,-57 -16,-19 -54,-36 -58,-42 27,-1 78,19 88,46 6,18 8,33 17,52 8,16 17,27 26,42 9,16 63,72 63,73 7,17 -77,43 -87,47 3,-12 14,-22 14,-36 0,-15 0,-28 -3,-43 -2,-15 -2,-29 -6,-43zm162 -224l0 7 -12 3 -1 3 13 4 1 2 -14 6 1 2 13 1c2,4 1,11 1,15 1,5 2,7 8,8l-3 -21 1 0 11 0 1 -2 -15 -8 1 -4 12 1c4,0 4,1 5,-3 -3,-4 -12,-4 -17,-4 -1,-6 2,-13 2,-18l2 -8c2,-1 1,-1 8,-1 21,1 23,-2 45,-6 17,-3 38,-13 44,-13l21 37c4,7 6,13 10,20 14,23 36,86 38,108 -3,-1 -3,-5 -6,-8 -7,-7 -20,-13 -22,-18l-90 -39 -6 -3 -50 -6c-28,8 -62,5 -95,15 -15,4 -26,7 -41,14 -16,7 -22,16 -32,21 -2,3 -2,2 -7,6l-7 6c-1,-3 0,-5 0,-9 16,-64 30,-79 61,-133 22,-41 27,-24 54,-13 22,9 43,19 68,21l-3 17zm213 -116c-2,1 -8,7 -10,7 -1,2 -46,40 -49,42 -16,10 -44,26 -62,29 -36,22 -106,17 -144,0 -23,-11 -92,-52 -105,-71l-3 -3c-1,0 -8,-7 -8,-10l-13 -13c-3,-2 -11,-12 -12,-15l-3 1c0,5 2,4 5,9l67 70 1 -1c-16,11 -25,13 -40,29 -6,6 -25,31 -29,38l1 4 1 -1 8 -10c1,-4 10,-13 13,-18 3,-5 8,-13 14,-15 3,-6 20,-18 22,-19 16,-6 21,-3 34,6 -8,10 -11,5 -28,35 -8,13 -18,26 -25,41 -19,38 -25,54 -35,96 -4,-1 -25,-16 -26,-18 -6,-19 4,-47 10,-66 2,-6 12,-30 9,-30 -17,37 -24,53 -24,96 -31,-13 -49,-22 -84,-15 -21,5 -48,26 -62,42 -36,41 -7,120 20,159 31,45 62,87 124,83 10,-1 70,-18 82,-22 27,-10 47,-30 66,-38l-1 2 42 18c-1,-4 -3,-4 -4,-8 -19,2 -43,-24 -56,-37 -5,-5 -41,-46 -41,-50 -4,-1 -8,-10 -10,-13 -3,-5 -7,-10 -10,-14 -3,-4 -14,-26 -14,-30 -4,-5 -9,-21 -11,-27 -2,-11 -7,-18 1,-27 3,-3 27,-22 31,-24 3,-2 9,-4 12,-6 15,-8 37,-14 54,-18 11,-3 52,-10 63,-9 -1,4 -2,5 -5,8l-18 5 -1 4 13 1 -3 7 -21 3 0 4 16 2 -2 77c2,3 2,16 3,21 1,8 3,14 4,21 2,3 7,26 7,31l5 18c-2,2 -26,12 -9,12l11 -6c1,2 1,4 1,6l-14 6c-1,10 9,1 16,0l12 37c-1,1 -2,-1 0,2 0,0 0,0 1,0l1 0c0,-1 1,-1 1,-1 5,-2 1,-5 0,-7 2,-7 -3,-10 -4,-17l-5 -16c5,-4 14,0 12,-8 -5,-2 -8,2 -13,3 -2,-3 -3,-7 -2,-10 4,-3 11,1 10,-7 -4,-1 -8,2 -13,2l-2 -13c-3,-6 -12,-40 -12,-46l-4 -29 -1 -21 0 -1 0 -25c-1,-4 -1,-9 0,-13l5 -17 18 5 1 -4 -16 -7 6 -8c2,1 9,4 10,6 3,3 14,1 -8,-12l5 -6c5,-12 19,-9 29,-8 31,2 61,13 90,25 6,2 42,25 47,30 19,15 28,25 13,48 -9,13 -58,70 -70,84 -19,19 -61,60 -86,67l-1 4c-2,-4 1,-2 -2,-3 0,1 1,2 1,3l-1 2 -4 -3c-2,3 -4,3 -7,4 -3,1 -6,3 -9,3 -5,0 -13,-1 -18,-3l-1 4c34,2 54,-5 79,-26l24 32c3,3 0,2 3,1 -2,-4 -4,-6 -6,-9l-15 -29c11,-13 38,-35 52,-50 11,-12 62,-70 69,-84 8,-17 1,-20 22,-28 14,-6 25,-10 40,-11 4,-1 46,-1 47,2 -10,5 -26,7 -40,14 -40,19 -59,43 -82,81 -16,25 -28,49 -31,79 -4,41 1,51 21,84 3,5 9,6 10,10 -3,0 -7,-1 -10,-2l-13 -4 -2 0c4,3 2,1 2,2 -1,5 -2,-2 -1,2l75 15 4 0c11,-5 21,-2 38,-11 8,-4 25,-14 31,-18 22,-17 31,-30 49,-48 2,-3 3,-3 5,-6 1,-2 2,-3 4,-5 1,-3 7,-10 10,-11 12,-19 24,-39 28,-62 2,-14 -1,-64 -16,-72 -2,2 -2,-1 -2,2 3,2 3,1 4,4 1,2 0,1 0,2 2,1 2,0 3,3 -2,5 0,-3 -2,2l1 4c5,7 8,42 6,52 -2,15 -10,29 -16,43 -1,6 -9,19 -15,21 -4,18 -61,69 -79,76l-7 4c-3,2 -6,5 -9,6 -4,2 -3,1 -6,2 -3,2 -1,3 -6,2 -9,8 -44,1 -57,-1 -10,-1 -34,-18 -34,-29 -12,-17 -13,-51 -9,-72 2,-13 12,-53 23,-60 5,-15 25,-35 34,-49 2,-5 16,-17 21,-21 22,-19 62,-39 90,-28 6,3 10,1 16,5 18,12 25,23 32,28 4,1 5,1 6,-2 -12,-13 -35,-33 -51,-40 -18,-8 -56,-15 -76,-9 -6,4 -3,-4 -5,3l-8 -2 -38 15c-5,-15 -7,-34 -12,-49 -6,-14 -12,-29 -17,-44 -12,-28 -31,-53 -42,-80l1 2 42 -24c22,21 52,79 59,109l2 0c-2,-3 -1,-5 -2,-9 -1,-4 -2,-3 0,-7 -5,-15 -15,-39 -24,-52 -6,-10 -28,-38 -31,-45 1,-1 61,-47 83,-76 20,-27 48,-69 57,-102l-1 -2c-2,2 0,3 -3,4 0,-4 1,-4 2,-6 3,-6 -1,-5 -1,-5 -7,25 -22,54 -35,76 -8,13 -13,20 -23,31 -7,8 -19,20 -25,29z"/>
    <path class="fil7" d="M391 511l0 4c0,6 -1,7 -7,9 -3,-2 -6,-4 -8,-7 -6,-5 -5,-27 5,-30 3,1 5,4 7,7 0,2 0,0 -2,2 3,11 3,7 5,15zm35 -122c-4,1 -3,-1 -6,-2 -1,-1 -3,-2 -5,-3l2 -5c5,-1 8,0 10,5l-1 5zm21 11c-6,7 -8,3 -11,2 -8,-4 -5,-6 -12,-6l-5 1 0 2c1,1 -1,0 2,1 5,3 13,6 16,11 8,9 0,19 -2,20 -5,9 -20,16 -29,18 -9,1 -30,0 -39,-2 -7,-2 -11,-2 -17,-6 -5,-4 -7,-6 -10,-11 -7,-10 -1,-25 10,-28 8,-5 24,-9 33,-8 6,0 7,-1 10,-1l8 1c3,0 11,3 15,3l2 -1 -6 -5c3,-4 3,-1 4,1l4 3c7,-3 11,-4 13,-8 -3,-2 -2,-2 -2,-7 2,-2 1,0 1,-2l-1 -5 -3 0c0,1 1,-1 0,3 -7,-3 -8,-1 -11,0 0,-3 0,-5 3,-6 4,-2 1,0 5,0 1,-6 -2,-1 0,-7 1,0 4,1 7,1l1 -4 7 1 7 2c0,4 -1,2 0,4 3,-3 3,-2 6,-1 1,2 2,-1 -2,3 6,6 3,18 2,25l-2 0c-2,1 -2,3 -4,6zm-82 -40c-3,-3 -1,-1 -4,-3 0,-1 -2,-5 3,-1 2,2 5,5 5,8l0 1c-1,-1 -3,-3 -4,-5zm76 -286l-2 5c0,9 -2,4 -3,10l0 2c-5,1 -10,-2 -18,-1l0 7 14 1c3,2 1,-1 0,10 -5,0 -16,-1 -20,2l0 4c5,2 13,0 18,-1 -1,6 -3,12 -4,19 -1,5 -1,12 -3,17l-1 4c1,4 -1,3 -2,9 -1,7 -1,14 -3,22 -1,5 1,4 -1,8 -3,10 -5,34 -7,42 -2,12 -4,28 -6,38 -4,0 -8,-1 -13,1l0 4c4,2 8,1 12,1l0 6 -13 2 0 5c4,2 5,-2 12,-1 0,8 -9,79 -12,80 1,7 -1,12 -1,18l-3 -1 -2 3 -2 -3c-1,4 -3,4 2,4 -4,0 -4,0 -8,0l-7 2c3,-6 2,2 3,-3 -1,0 -4,0 -5,0 -4,2 -1,5 -15,5l-2 5c-6,0 -1,0 -4,-2 -2,0 -4,0 -6,-1l-2 1c-1,-2 -1,1 -1,-2 0,0 0,-1 0,-2 0,-7 2,-4 7,-5l0 -4c-3,0 -4,-1 -7,-2l0 -5c8,-3 12,3 8,7l2 6c2,-1 1,-2 3,-4 3,2 0,0 1,2 3,0 3,-1 5,-3l-5 -1c-2,-1 0,0 -2,-1 1,-2 0,-1 1,-2l3 -1c-4,-4 -3,-3 -4,-7 -3,0 -8,-1 -11,-3 2,-3 0,-1 6,-4l1 3 6 1c-1,-1 -2,-2 -4,-4l1 -8c0,-1 0,0 1,-2l2 1c1,2 0,2 1,3l1 5c1,0 1,0 1,0l3 3c-1,3 -1,3 -1,6 -5,3 -2,1 -2,1l0 3c5,-1 1,1 4,-4 4,3 -1,2 4,2 1,5 2,6 7,5 0,0 0,0 -1,-1l-1 -1c-4,-4 2,0 -4,-5l0 -7c3,-1 5,-1 5,3l1 6c0,0 0,1 0,1 5,-3 1,-1 4,-6 0,1 2,-1 2,4 -1,4 -1,3 -2,3 0,1 0,1 0,1l-2 1c0,0 0,1 0,1 0,0 -2,1 -2,1 8,5 3,9 10,8 -1,-4 -5,-3 -1,-7 2,-2 2,-7 1,-10 -4,-21 -9,-27 -31,-25 -10,1 -19,21 -19,31 0,6 2,13 3,19l-5 0c-4,3 -17,6 -23,9 -4,2 -8,3 -12,5 -4,3 -5,5 -10,7 -2,2 -3,3 -6,5 -2,1 -3,4 -5,6l-2 -1c-1,-2 -3,-7 -5,-9l-3 2c-1,4 4,9 5,13l-5 2c-1,-2 0,0 -2,-3l-2 -6 -3 1c-1,3 -1,5 0,7l3 5c-2,2 -2,2 -5,4 -2,7 -3,2 -6,7 -2,4 -2,6 -2,10l6 -1c3,-6 -1,-5 11,-15 2,1 3,3 4,6l6 0 -1 -5c-3,-1 -3,-1 -4,-4l0 -3c5,-1 3,-1 4,0 4,5 3,10 9,11 3,-7 -2,-9 -5,-16 1,-4 10,-10 14,-11 5,-11 29,-14 37,-19l5 -2 5 -1 2 0 3 -3 4 2c-2,4 -1,1 -4,4 -4,6 -3,16 -4,18 -2,-5 1,-9 -2,-13l-2 8c0,5 0,5 1,9 4,9 10,14 18,20 7,5 22,6 31,6 3,2 0,8 -1,11 -1,5 -1,11 -1,15 -3,1 -7,7 -9,10 -2,13 -6,24 4,36l3 -1c4,4 3,1 8,4 3,-2 4,-1 7,-3 3,-2 2,-3 5,-5l0 -6c-1,-5 -2,-9 -4,-15 -1,-4 -4,-9 -4,-14 -3,-1 -2,-2 -2,-6 -2,-8 -2,-6 -1,-15 1,-5 0,-3 3,-5l-2 -6 19 1c4,-1 8,-2 12,-3 2,-1 5,-1 7,-1 1,-1 2,-2 5,-4 11,-4 14,-16 15,-17l2 -5c0,-9 1,-7 -3,-15 4,-1 15,3 17,6 6,0 2,0 13,7 3,2 7,4 11,7 6,6 14,13 18,19l2 2 -2 3 -2 3 2 3c4,-2 4,-6 8,-2 -3,1 -4,1 -4,5 4,0 3,-2 6,-2l2 2c-2,2 -3,2 -6,3 -7,3 -3,0 -8,3 3,7 8,4 14,2 2,-2 2,-2 5,-2 10,5 6,15 16,13 0,-5 -7,-10 -10,-15 3,-3 3,-1 3,-6 -3,-1 -4,0 -8,0l-4 -6c2,-3 2,-1 4,-2 3,-2 2,-1 2,-5 -2,-1 1,-1 -3,-1l-9 2c-3,-3 -6,-6 -8,-9 -5,-5 -16,-17 -23,-20 -3,-2 -3,-1 -5,-4l-14 -8 -10 -3c3,-3 3,-2 5,-6l2 -5c3,-12 3,-28 -9,-35 -5,-3 -14,-4 -20,-3 -6,1 -9,5 -13,10 -4,5 -5,5 -6,12 -1,6 -2,6 -2,13 -4,0 -2,1 -4,-2l-6 0 -5 -1 1 -4c0,-15 4,-31 7,-46 1,-7 1,-15 2,-22 1,-5 3,-20 3,-24 5,-1 8,1 13,2l0 -3c-6,-4 -10,-5 -12,-6l1 -6c6,0 10,5 12,-1 -3,-3 -7,-2 -11,-5 -1,-5 0,-9 2,-14 1,-6 0,-10 2,-13 0,-7 3,-22 4,-29 1,-8 4,-18 5,-27 1,-13 4,-26 6,-40l3 -19c1,-3 2,-17 5,-17 5,0 10,1 13,4l4 0 2 -5 -2 -1 -16 -4 2 -8c1,0 5,1 6,2 3,1 0,1 4,2l4 0 0 -5 -11 -5c0,-5 -1,-2 1,-5 1,-3 3,-12 3,-15l-5 -1 0 1z"/>
    <path class="fil7" d="M178 448c2,-1 1,1 2,-2 -3,-3 -2,-1 -2,-5 0,-3 2,-3 2,-3 -1,-6 -9,-21 -13,-28 -6,-13 -23,-77 -27,-94 -3,-10 -3,-26 -4,-37 -2,-30 -3,-48 1,-78 2,-13 4,-20 8,-33l9 -16c11,0 38,-9 16,-9 -15,13 -53,-8 -65,-21 -14,-13 -26,-54 -15,-71 2,-7 5,-14 9,-19 2,-2 3,-2 5,-5 10,-14 32,-22 51,-21 7,0 26,0 32,4 18,-2 58,34 53,55l-2 6 -4 10c0,3 0,3 1,4 8,-1 2,-4 8,-6l2 -3c15,-12 66,-30 85,-31 19,0 32,-5 54,-4 12,1 38,12 46,7l-4 -8 -4 -6 -6 -6c-1,0 -7,-6 -8,-7 3,-2 9,1 13,2l27 14c5,2 6,5 10,4 2,-3 2,-1 1,-5l-14 -21 0 -1 21 15c4,0 1,1 4,-1l-5 -4c5,0 3,1 6,5l3 7 4 -2c1,4 0,2 5,5l-1 -2c-2,-5 -33,-34 -45,-27l9 15 -43 -12 -3 4 19 25c-40,-7 -53,-8 -93,-4 -24,3 -57,23 -78,23l0 -1 3 3c-1,2 -2,2 -4,3 -3,-3 -1,-2 -2,-7 -14,-59 -97,-76 -142,-41 -23,18 -28,58 -18,84 5,12 14,23 24,31 17,14 22,11 37,19 0,4 -10,25 -11,33 -3,14 -4,26 -5,41 -2,28 -1,56 4,84 5,28 29,115 44,138z"/>
    <path class="fil7" d="M484 33l0 1c2,3 2,-1 1,5 0,4 -1,1 -1,3 -1,4 3,4 6,4l1 -6c11,10 8,27 11,31 2,3 8,2 11,4 12,0 42,13 53,19 9,4 16,7 24,13 7,4 15,9 21,15l4 3c1,1 2,2 3,3 15,13 8,22 11,28l5 -1c0,-6 -2,-10 6,-24 5,-7 9,-11 17,-14 19,-7 38,-12 59,-6 7,3 20,6 26,10 5,3 18,11 19,17 4,2 3,3 6,7l0 -5c1,0 4,5 4,5 2,7 -3,0 0,7 1,2 1,0 2,3l2 11c2,7 5,26 0,31 -1,16 -27,43 -42,49 -13,6 -26,7 -39,4 -9,-2 -27,-7 -31,-16 -4,0 -3,-1 -7,1 -1,7 8,10 16,15 4,2 11,3 14,6 5,17 3,35 2,52l-2 11 -1 4c1,0 1,0 1,0 2,3 0,-1 4,1 -4,3 -2,-1 -3,4 0,2 0,3 1,4 5,-11 9,-46 7,-58 0,-3 0,-7 -1,-10 0,-3 -2,-5 -2,-9 15,2 19,4 34,-1 17,-5 35,-22 45,-35 7,-9 8,-19 13,-28l0 -15c-8,-14 2,-46 -60,-68 -22,-8 -60,-4 -79,9 -7,5 -9,11 -14,18 -18,-21 -28,-28 -54,-42 -9,-5 -22,-11 -32,-15l-37 -11c-2,-3 -2,-7 -3,-10 -2,-11 -8,-18 -15,-25l-4 -1c0,0 0,0 0,0 -2,4 0,2 -2,2z"/>
    <path class="fil7" d="M676 926c-6,9 -39,34 -48,39 -13,5 -24,4 -37,1 -16,-2 -17,-4 -28,-16 -15,-17 -24,-47 -17,-69 3,-13 25,-45 36,-51 7,-18 41,-39 57,-48 27,-15 51,-23 74,2 18,20 18,59 10,83 -5,14 -34,55 -47,59zm-38 -152c-9,8 -24,16 -36,25 -13,11 -19,19 -31,32 -25,27 -37,50 -30,88 6,46 61,73 102,42 41,-30 60,-48 86,-92 4,-20 6,-32 4,-52 -2,-18 -17,-40 -17,-43 -8,-4 -1,-2 -18,-9 -11,-4 -17,-5 -26,-2 -13,3 -16,1 -34,11z"/>
    <path class="fil7" d="M194 888c-7,19 1,25 -22,32 -16,5 -30,6 -46,-1 -18,-8 -48,-34 -56,-53 -8,-9 -18,-30 -22,-41 -7,-21 -5,-34 -5,-55 0,-43 32,-54 69,-42 7,2 28,23 33,28 18,21 48,77 49,106 0,5 1,10 1,15 0,4 -1,6 -1,11zm-103 13l4 4c23,15 36,29 67,24 34,-6 39,-22 38,-55 -1,-47 -27,-95 -59,-128 -21,-23 -31,-32 -65,-27 -67,9 -40,138 15,182z"/>
    <path class="fil7" d="M137 29c-9,7 -17,7 -23,21 -5,13 -2,26 0,38l1 2c6,6 10,20 21,26 5,3 10,5 15,8 11,5 11,1 21,1 2,-3 5,-1 5,-6 -7,-5 -8,2 -18,0 -4,-1 -13,-3 -16,-6 -19,-9 -31,-42 -23,-62 4,-8 17,-18 27,-18 10,1 29,3 37,9 13,6 28,40 16,52 2,12 7,2 9,-4 4,-18 -1,-30 -13,-45 -25,-29 -51,-17 -59,-16z"/>
    <path class="fil7" d="M683 136l-7 3c-6,6 -33,20 -25,34 8,-2 13,-34 47,-30 15,2 42,12 50,26 5,8 1,23 -4,30 -13,18 -12,8 -24,14 -30,17 -52,-12 -58,-12l-2 2 16 16c9,2 13,6 31,4 10,-2 20,-3 29,-7 17,-9 24,-33 17,-51 -4,-8 -20,-19 -28,-22 -19,-7 -24,-5 -42,-7z"/>
    <path class="fil7" d="M210 205c5,3 16,13 21,18 3,2 4,5 6,7l12 -5c3,-3 5,-7 8,-9 2,-3 5,-4 8,-6 2,-1 3,-3 6,-6 4,-3 3,-3 5,-7 2,-6 2,-4 1,-10 -1,-5 -1,0 -2,-6 -2,-2 -3,-3 -6,-4 -3,-2 -4,-2 -7,-3l-4 0c-2,1 -8,0 -10,1 -5,0 -5,1 -9,2 -4,3 -2,1 -4,4 3,1 1,1 4,0 10,1 21,-4 30,2 3,12 -4,16 -11,22 -6,6 -10,12 -17,17 -6,-2 -16,-10 -19,-15 -3,-1 -9,-8 -11,-11 -4,-4 -4,-11 -1,-16 -1,-8 1,-4 10,-8l5 -2c-5,0 -4,0 -8,1 -6,-2 -16,8 -16,13 1,16 7,16 9,21z"/>
    <path class="fil7" d="M322 228l0 -6c4,-1 7,-2 11,-3 4,-6 15,1 21,1 1,-4 1,-2 -1,-6 -2,0 -6,-3 -10,-4 -6,-1 -18,4 -23,7 -6,4 -5,4 -7,8 4,3 4,2 9,3z"/>
    <path class="fil7" d="M186 463c3,7 12,16 15,20 4,7 16,16 17,18 2,2 4,3 6,5 3,3 3,4 7,2 0,-4 -1,-3 -5,-6 -4,-2 -3,-2 -6,-5 -2,-2 -5,-3 -7,-5 -2,-2 -2,-4 -5,-6 -2,-2 -3,-3 -5,-6 -2,-3 -3,-3 -5,-5 -4,-4 -6,-10 -9,-13l-3 -1 0 2z"/>
    <path class="fil7" d="M487 246l5 1 1 -3c-1,-5 -3,-4 -7,-8 -2,-3 -3,-4 -6,-6 -5,-5 -12,-8 -19,-7l1 5c4,2 5,0 9,2 13,8 12,15 16,16z"/>
   </g>
   <g>
    <path class="fil8" d="M229 357c2,0 1,2 2,-1 1,5 -1,3 1,6 -1,0 -2,-3 -2,0 0,3 0,1 4,3 -7,5 1,0 -3,5 -4,1 -3,1 -6,0 0,-3 0,-2 3,-4 -3,-2 -7,0 -4,-14 5,0 4,1 5,5zm77 -10l-3 2c4,7 -1,-1 1,8l-5 1 2 6 -3 -1c0,0 0,0 -1,0 -1,-1 -1,-1 -3,-2l0 -6c2,-5 4,-1 0,-6 5,0 3,1 7,-1 3,-1 -1,-2 5,-1zm-70 -1c0,0 3,0 3,0 3,-1 4,-2 5,-3 3,0 3,1 8,1 -1,5 -1,3 0,7 -2,1 0,0 -4,-1l1 2c0,0 0,0 0,0l1 1c1,5 -1,4 -2,7l2 1c-4,2 -4,0 -6,3 -3,-5 0,-1 -5,-4 2,-6 0,-5 0,-5 3,-2 2,-1 6,-1 0,-6 0,-2 1,-4 -2,-2 1,0 -2,-1 -4,-1 -7,-2 -8,-3zm-24 -7l5 2c2,-3 -1,-2 3,-2 0,4 0,6 -3,9l-5 -1c1,-4 0,-1 4,-3 -4,-2 -6,1 -4,-5zm80 5c-4,-1 -3,1 -9,1l1 -12c5,3 1,0 2,7 0,2 -1,1 0,2 3,-3 1,-1 2,-5l5 1c-1,4 -1,2 -1,6zm-47 -23l3 0c1,-4 -1,-3 2,-5 2,1 1,-2 2,3 0,2 0,3 1,4 0,1 1,4 5,5 0,0 0,0 0,0 -7,5 -1,0 -4,7 0,0 0,1 0,1l-4 -2c-1,-5 -1,-4 2,-7 -3,-1 0,-1 -4,0 0,-3 0,-3 -2,-6 0,0 -1,0 -1,0zm340 -4c0,-2 3,-7 4,-9 3,6 1,7 -4,9zm-279 30c1,-8 -1,-4 -1,-11 0,-6 2,-6 5,-8l-1 -3c9,-4 -4,-3 7,-8 2,4 -2,2 2,4 1,-3 1,-5 -1,-7l-6 3c-2,-10 0,-4 1,-9 -6,-1 -3,0 -4,5 -4,0 -8,1 -5,6l3 -4c4,4 1,4 -3,6 -2,-4 -3,-9 3,-13 0,0 2,-1 2,-1 4,-3 -1,1 6,-1 1,0 3,-1 5,-1 6,0 1,1 5,0 4,0 1,-2 4,-1 5,3 2,3 4,9l-5 0c1,3 1,2 -1,4l4 1 -6 4c0,3 2,4 -2,8 3,3 2,5 1,9l-2 -2c-1,5 -1,5 -6,6 3,3 3,2 1,5 -6,-3 -3,-5 -6,-6 -4,5 4,3 -1,11l-1 -7 -2 1zm-150 -111c-9,-5 -5,-2 -7,-18 -3,-34 20,-28 15,-13 -4,10 3,12 4,20l-5 8 2 1 -5 5c4,2 6,2 7,4l-13 8 3 11 8 -5 1 -9 2 0 1 17 -14 0 0 3c0,-2 -3,-15 -3,-17 -1,-14 -4,-8 4,-15zm449 -87l-1 11 1 0 4 -7 0 1 5 10 -4 8 -12 36 2 1 14 -41 2 0 2 6c-1,4 0,5 2,9 0,3 0,6 0,9l3 15c0,5 2,-2 2,10l6 10 2 4 2 14 9 -1c-2,-1 -7,-6 -9,-8l8 -1 -7 -3 4 -9 4 -1 12 44 -3 2 -3 -5 0 8 19 -6 -1 7c-7,0 -6,-5 -8,1 -1,5 -5,0 -5,7 0,4 0,9 0,9 2,5 1,-1 3,4 3,6 -2,0 0,5l-3 -7 -3 4 -5 -7 0 12c-13,-7 -6,-4 -13,0 -6,3 -5,2 -3,4 3,3 7,-1 3,6 -3,5 -2,5 -4,8l-2 0 -1 -18c-4,0 -16,1 -8,4 7,3 -5,-8 6,1l-11 0 -1 5 -4 17 -2 -1 0 -15 -3 3 -11 -6 5 -5 -49 4 0 -3 7 -33 -2 0 -8 33 -15 -1c-13,1 -8,-2 -21,-1 -1,-3 1,-1 -2,-5 -4,2 -1,0 -2,5 0,-6 -7,-6 -12,-4 -2,-3 -1,-4 -3,-7 -3,-7 -1,-1 -1,-8 -1,1 0,4 -8,-1l-4 -3 0 -5 2 -13 0 -5 -3 2 -1 11 -15 -1 1 -2 -28 -11 0 2 -9 -8 0 -1 -12 6 0 -8c-2,3 -1,7 -2,13 -2,5 -3,9 -2,14 4,3 8,2 11,5 -2,6 -6,1 -12,1l-1 6c2,1 6,2 12,6l0 3c2,-2 1,-1 2,-5 2,3 1,0 1,4l0 1c0,2 -1,5 -3,8 -3,-4 -1,-4 -7,-4 2,3 2,1 2,4 0,2 -2,0 0,2 3,2 2,-2 3,8 -2,-2 -1,1 -2,-6 -2,1 1,1 -3,3 0,-1 -1,-4 -1,-4 -1,-3 2,-1 -2,-3 -3,3 -1,2 -1,5 1,4 -3,6 -2,18 4,3 3,-3 4,3 -3,1 -1,1 -4,0 0,3 -1,0 2,4l-4 0c0,4 0,6 0,9 0,7 0,2 -2,7 -1,2 0,5 0,8 0,3 -1,8 -2,10 0,0 0,-1 0,-1l-1 -3c-3,18 0,8 -1,16 0,2 0,5 -1,7l-3 -1 -1 4 5 1 1 -2c5,0 5,1 7,-2l1 5 -3 -1c2,3 0,2 4,2 0,-7 1,-7 2,-13 1,-7 2,-7 6,-12l-2 -2c5,-3 4,-5 6,-7 0,0 9,-4 9,-4 4,-1 8,0 12,1 0,0 4,0 5,0 3,0 0,-1 4,-1 0,2 2,1 -1,3 2,0 3,-1 7,4l2 2c1,3 1,1 2,4 0,1 -1,-1 1,2 -1,-4 4,-4 6,0 -1,2 -3,3 -6,2 2,7 3,22 -1,27 -3,-1 -1,0 -2,-3l-2 5 3 0 -1 4 1 0c-1,-3 -1,-2 0,-5 3,1 4,0 5,0l1 1c3,2 1,4 1,6 2,0 1,0 2,0 6,0 0,2 7,2 1,-3 1,3 0,-2l-1 -3c2,2 6,4 8,6 1,-1 -1,-2 0,3 1,3 1,1 -1,5 -1,-2 0,-1 -1,-6 -4,1 -4,0 -7,-1 -1,-1 -2,-2 -3,-2 -4,-1 -2,0 -3,1 1,2 0,1 2,2 3,2 4,3 7,4 4,2 1,-2 3,3 -2,0 0,1 -4,-1 2,3 2,2 5,4 7,3 18,15 23,20 2,3 5,6 8,9l9 -2c4,0 1,0 3,1 0,4 1,3 -2,5 -2,1 -2,-1 -4,2l4 6c4,0 5,-1 8,0 0,5 0,3 -3,6 3,5 10,10 10,15 -10,2 -6,-8 -16,-13 -3,0 -3,0 -5,2l1 6 -1 1 -1 -4 -3 0 -4 11c0,3 -1,3 0,6 0,0 0,2 0,2 1,3 0,2 1,3l5 -16 5 -1c1,4 2,2 1,6l6 1 -3 11c-1,-6 2,-6 -1,-11 -2,2 -4,14 -7,17 -4,5 -9,8 -10,13l-5 0c0,5 -19,11 -20,11 -9,-1 5,-1 -6,-1 -2,0 -6,1 -8,1 -12,3 -6,-4 -12,-5l0 11c6,-1 -3,-4 6,-2 4,0 6,1 5,5 0,6 -7,-1 -10,2l8 7 -7 2 1 -6 -3 -1 -3 6 -11 3 -2 5 -5 -2 1 7 -5 -5 -40 -6 5 -11 -27 -4 3 -3 -16 -30 -21 -9 2 -3 6 3 0 -5c7,1 -2,7 7,6 10,0 -5,0 -10,-15l-2 3 -11 -11 8 17 -2 1c-9,-3 -17,-37 -9,-42l2 1 -4 9c8,-3 6,0 8,-11 2,-6 3,-11 2,-17l3 1c-1,-4 -1,-4 -1,-9 0,0 -1,-4 -1,-5 -1,-4 0,-4 2,-6l-3 0 0 -4 -5 2c4,0 1,0 3,1 -1,5 -2,3 -8,3l3 2 -6 3 1 3 -6 -2 -1 2 10 5c-2,2 -12,15 -14,15l-8 0c-3,32 -12,12 -16,8 -2,4 -3,8 -5,11l-8 -9 1 5 -6 0 4 1 -1 8c-6,-1 -2,-2 -2,-7 -2,1 -3,1 -6,1 -1,3 0,2 -1,5l-5 1c0,0 0,1 0,1 -1,0 -2,0 -3,1l-1 -2 -6 1c1,3 -1,2 3,2l-5 3c6,7 1,-1 2,6 4,-1 2,-4 6,1l-5 3c5,2 2,-1 6,-2 0,1 0,6 0,6 0,4 1,3 -3,3 -2,-3 0,1 1,-4l-4 1c-3,-2 -2,-5 -5,-9 1,-2 0,0 3,-2 -7,-2 -2,-5 0,-7l-5 -3 -3 2 0 -4 5 1c0,-6 0,-4 3,-8 2,-2 1,-3 6,-3 1,-6 -2,-4 4,-6 1,2 0,1 -1,3 3,-2 3,-2 5,-4l-3 -5c0,5 -6,7 -10,0l5 -1c-2,-5 1,-1 2,-7 3,-1 1,-1 3,1l3 -1 2 6c2,3 1,1 2,3l5 -2c-1,-4 -6,-9 -5,-13l3 -2c2,2 4,7 5,9l0 -3 13 -9 0 2c5,-2 6,-4 10,-7 4,-2 8,-3 12,-5 6,-3 19,-6 23,-9l-3 0c2,-6 1,-3 -1,-8 -3,-3 -4,-3 -4,-7l5 1c0,-4 -2,-4 -3,-5 0,-1 -1,-7 -1,-9 0,-2 0,-6 1,-7 2,-5 2,-2 6,-5 -5,-3 -5,3 -7,-3 3,-3 2,-1 5,-1 7,-1 -1,0 5,-3 1,6 -2,4 2,6 2,-1 0,0 1,-4l2 2c6,-6 7,-12 17,-9l-4 2c22,-2 27,4 31,25l0 -5 4 6c1,1 2,4 3,6 1,-1 3,0 0,-6 2,-4 1,-1 2,-4 1,-3 0,-2 1,-5l1 4c3,-1 12,-72 12,-80 -7,-1 -8,3 -12,1l0 -5c0,0 -3,0 4,-2 3,-1 5,-1 8,-1l-3 -5 -3 2c-4,-2 -8,-1 -7,-7 1,-4 8,-3 12,-2l0 -9c6,-5 0,-4 4,-9 -5,-3 -2,-4 -7,-8 -4,3 0,3 -6,3 0,-4 0,-4 3,-10 1,-3 0,-6 5,-7 -4,0 -2,-3 -2,-5 0,-3 -1,-2 0,-6 2,1 1,-1 2,3 0,-2 -1,-3 -2,-4 -3,13 -1,5 -1,12 -7,6 -3,12 -7,18 -4,1 -7,2 -11,3 -3,0 -5,1 -9,2 -8,2 -8,8 -18,6l-5 2c-7,-3 -4,1 -7,-3 -1,3 -2,2 -2,3 -1,1 0,0 -2,3 -6,0 -8,1 -12,2 -1,-5 1,-5 1,-14l-3 -1 -1 16c-6,0 -10,2 -15,3 -12,2 -5,-1 -8,-6 -7,4 4,7 -10,6 -6,0 -10,0 -16,0l-23 -9 0 -20 -3 19 -24 -9 -12 -6c-4,9 36,20 42,22 8,3 16,7 20,9 5,2 -6,-1 3,0 6,1 -2,2 5,1 10,-1 2,3 11,3l-1 -3 32 -4 17 -1c-4,2 -6,-1 -12,3 -4,4 -6,6 -12,7 -10,0 -21,1 -31,1 -6,1 -26,2 -30,-1 -7,-3 -9,-6 -18,-1l-9 -9 3 -1c-22,3 -37,-26 -46,-24 4,-20 -11,-30 -13,-49 -2,-13 1,-13 -2,-25 -1,-8 8,-9 7,-22l-2 -2 -10 21 3 -15 -12 -4 -9 16 2 -1c2,7 -1,4 4,6 -6,6 -7,-1 -9,17 -1,3 -1,11 -1,12 0,1 -1,0 -2,4 0,2 0,5 0,8 3,1 3,0 4,4l-4 0c-1,4 -1,2 1,6l1 -4c4,3 2,6 7,4 -3,2 0,3 0,6 0,2 -2,1 0,4 -4,0 -2,-1 -5,1 3,5 3,-1 6,4 -4,2 -2,-5 -10,1 0,5 1,5 4,8 5,5 5,1 6,3 -2,4 -1,4 0,8 0,4 -3,6 -3,10 2,2 2,0 4,-1 1,6 3,4 5,12 2,6 -3,6 4,9 -3,1 -4,0 -5,3 5,3 6,0 9,-2 3,2 -3,4 -3,6 1,3 5,8 7,10 0,0 -1,-1 -1,1 -1,2 0,2 1,4l-5 1 4 5c-3,3 -6,1 -5,5 0,7 -1,2 -3,7 2,1 3,0 4,3 1,3 -1,3 3,5 3,2 3,0 4,3 0,1 1,5 1,5 -2,0 -6,0 -7,3 0,1 0,6 1,7l5 -3c-1,7 -2,3 1,10 2,4 -2,1 -1,5 1,1 8,4 8,4 -9,5 -2,8 0,12 1,1 -1,2 -1,4 0,2 1,2 1,4l-13 1c0,6 5,14 8,19 2,6 5,15 8,20 2,-3 1,0 1,-3 0,-3 -3,-4 -2,-7 4,3 1,1 2,3 2,4 2,2 4,5 2,2 -1,2 4,3 -2,4 -2,1 0,5l2 2c1,-2 1,-3 4,-3 -2,3 -1,2 -1,6 2,-1 1,-2 2,-1 -1,4 0,0 -4,3 4,3 2,0 5,2 3,2 2,5 3,10 1,3 1,1 -1,3 3,2 2,1 3,4 -2,3 0,0 -2,1l13 13c-2,-5 1,-1 -2,-6 -1,-2 -1,-2 -2,-5l3 -2c1,0 3,1 3,2 1,1 1,1 1,2 0,0 0,1 0,1l1 2c3,-2 1,-2 4,-2l-1 5c5,1 1,0 6,1 -2,3 0,2 -2,5 -3,-4 1,-2 -3,-4 -2,2 -2,1 -2,3 1,5 2,5 5,8l-1 1c0,0 -1,-1 -2,-1l3 3c3,-11 10,-1 13,0l-3 5 7 -5 -1 6 5 -1c3,9 -6,2 6,13 9,9 7,0 8,8l60 35 -3 1 12 5 1 -4 14 10c3,-5 2,-6 3,-15l4 12 -3 3 20 5 1 -6 40 7 13 -6 -1 -2c4,1 13,2 16,2 11,-1 6,-7 6,-6 7,0 7,2 12,-1 5,-2 7,7 7,-5l0 3 17 -1 2 2 -7 6c18,-3 46,-19 62,-29 3,-2 48,-40 49,-42 -1,0 -2,0 -5,-4 4,-4 1,-2 6,-3 3,-1 5,-3 8,-3l1 3c6,-9 18,-21 25,-29 10,-11 15,-18 23,-31 13,-22 28,-51 35,-76 0,-3 -1,-1 1,-3l0 -1c1,-6 6,-17 8,-24l2 -11c-3,-1 -2,-1 -4,-2 -3,-3 -1,0 -3,-3l6 -1 -3 -1 2 -4c-4,1 -2,4 -4,-1 1,-3 2,-1 5,-2 -5,-6 -1,-1 0,-8 0,-4 0,-8 -1,-12 1,2 0,1 -1,2 0,0 0,1 0,1 0,0 -1,0 -1,0l-1 2c-4,-2 -3,-4 -7,-1 5,6 2,1 6,4 -1,4 0,2 -3,2 -2,0 -3,1 -5,1 2,-4 0,-4 0,-10l-4 -1c6,-6 2,-1 5,-6l6 1c3,-10 1,-5 -1,-9 3,-2 2,-2 3,-5l3 1c-3,-3 -10,-4 -14,-6 -8,-5 -17,-8 -16,-15 4,-2 3,-1 7,-1 -8,-5 -4,6 -9,-10 -1,-3 -5,-12 -3,-14l-1 1 13 9c6,4 5,4 14,3l-3 -4 2 0 -16 -16 2 -2c6,0 28,29 58,12 12,-6 11,4 24,-14 5,-7 9,-22 4,-30 -8,-14 -35,-24 -50,-26 -34,-4 -39,28 -47,30 -8,-14 19,-28 25,-34 -3,-1 -1,-1 -4,-1 -8,0 -2,2 -9,1l-1 0c-2,0 -3,1 -4,2l-7 1c-6,0 3,-2 -1,0 -1,5 -4,4 -7,4l1 4c-10,2 -8,5 -8,7 -3,0 -2,1 -2,-2l-5 1c-3,-6 4,-15 -11,-28 -1,-1 -2,-2 -3,-3l-4 -3 2 13 1 0 -8 1 -1 1 4 10 -4 2z"/>
    <path class="fil8" d="M431 789c-1,6 1,3 -2,8 -5,8 -2,3 -8,11 0,0 0,-1 -2,-3 -3,5 -2,2 -4,3 -3,4 -16,15 -21,12 8,-5 17,-14 24,-22 4,-5 4,-3 11,-11l6 -6c1,-1 4,-4 6,-4 0,1 -1,2 -2,3 -8,10 0,10 -8,9zm-61 -120c5,-2 23,3 29,5 10,3 9,5 11,6 3,2 0,-1 5,3 5,4 1,0 5,2 -1,3 -3,0 2,5 4,4 9,13 12,17l2 3c-3,2 -2,0 -5,2 -9,7 -5,6 -10,11l-11 10c-8,11 -8,8 -17,17 -2,2 -5,5 -7,7 -3,3 -5,4 -5,10 5,-2 11,-9 15,-14 1,-1 5,-3 7,-6 8,-7 1,-2 14,-13 2,-2 -1,-1 3,-4 2,-1 1,1 4,-2 2,-3 2,-5 6,-8 8,-6 2,-3 7,-6 11,11 8,12 -3,22 -3,2 -5,3 -6,5 -8,10 -8,6 -10,10 -5,6 -3,5 -11,11l-47 46 -2 2c3,0 2,0 4,-1l3 -3c5,-3 7,-6 11,-10 9,-8 4,-5 15,-5 -2,-3 -2,2 -5,-4 3,-2 7,-5 10,-7 2,-1 6,-5 9,-7 7,-5 3,-4 6,-10 1,-3 6,-5 9,-8l-2 -3c4,-2 2,0 4,-2 1,0 1,-1 3,-3 5,-3 20,-17 23,-17 0,5 0,0 -1,5 0,1 0,4 0,5 0,0 0,2 -1,2 0,0 0,1 0,1l0 1c-1,5 1,3 -9,10 -3,3 -4,5 -8,7 -4,3 0,0 -3,4 -1,1 -8,8 -8,10 -1,8 -1,1 2,4 2,-4 2,-4 5,-8l14 -14c4,-3 0,-2 5,-4 0,3 0,12 -1,14 -2,3 -4,2 -8,6 -2,3 -2,2 -3,4 -3,2 0,1 -4,3 -3,3 -5,4 -3,8 -7,3 -2,-3 -7,6l-4 -1c-2,10 -5,7 -9,13 -2,3 -1,2 -5,5 -3,3 -2,3 -5,6 -4,-1 -1,1 -6,-2 0,3 1,3 -2,5l5 -3c2,6 -6,8 -10,8 -8,-1 -7,2 -15,1l-6 1c2,6 5,16 6,22 0,-2 0,-1 -1,-2l2 13c5,0 9,-3 13,-2 1,8 -6,4 -10,7 -1,3 0,7 2,10 5,-1 8,-5 13,-3 2,8 -7,4 -12,8l5 16 1 -1c5,15 5,11 14,9l3 0 -2 3c0,0 1,0 1,0 0,0 2,-1 3,1 -3,2 -8,2 -10,4 0,3 0,2 4,3 25,-7 67,-48 86,-67 12,-14 61,-71 70,-84 15,-23 6,-33 -13,-48 -5,-5 -41,-28 -47,-30 -29,-12 -59,-23 -90,-25 -10,-1 -24,-4 -29,8z"/>
    <path class="fil8" d="M621 931l5 0c1,2 0,0 1,2 0,1 0,3 0,3 5,-1 1,-3 4,-1 -1,3 0,1 -3,4 0,0 1,0 1,0 1,3 -1,-2 3,1 3,3 -1,-2 1,1 -5,4 -15,3 -20,0 1,0 1,0 1,0l2 -1c6,-1 6,1 12,0 -2,-3 -3,-1 -5,-2 1,-2 0,-1 1,-2 1,-1 1,1 2,-2 -5,-3 -2,3 -5,-3zm-10 -17c7,-1 3,0 5,4 2,-4 -1,-2 4,-3 2,2 1,1 2,4 0,0 -8,2 -10,6 4,1 2,-2 4,2 -1,1 -6,1 -8,1 -2,0 -2,0 -4,-1 -4,0 -2,1 -5,-1 5,-4 2,0 10,-2 0,-3 -1,-1 0,-4 4,0 3,1 6,0 -1,-5 -3,-1 -4,-6zm18 -104c3,1 4,-1 7,-3 4,-2 5,-5 7,-7 1,3 0,2 0,6 6,1 2,0 6,2 3,1 4,0 5,1 -3,5 -2,-1 -6,3 -3,4 1,1 2,6l-6 -3c-2,3 -10,9 -13,4 3,-2 3,0 8,-3 4,-2 4,-1 8,-3l1 -3c-4,-1 -2,-1 -5,2 -4,-2 -3,1 -5,-4 -2,5 -3,7 -8,8 -7,1 -8,2 -11,-1 1,-3 2,-3 4,-4 5,-3 0,0 2,-4 3,1 1,1 4,1 3,-3 1,-3 6,-4 -1,2 -4,3 -6,6zm52 -36l3 7c10,-11 4,6 19,3 -1,9 -3,3 2,2 7,-2 4,7 4,10 15,-4 0,4 4,9l6 -3 -3 11 6 2c-1,3 -3,30 -3,35l-1 0c-3,-4 -2,-28 -10,-40 -4,-5 -9,-8 -11,-12 -2,-4 -2,-3 -6,-6 -4,-4 0,-4 -4,-7l-2 2 8 11 2 -4 -56 -5 42 -15zm-99 56l2 0c-11,9 -8,9 -14,19l3 5 1 -5c3,3 4,7 0,7 -2,0 0,-1 -3,0 -1,1 1,1 -2,2l-1 -7c-1,7 -2,5 -7,11 -2,3 0,-1 -1,2 -3,8 -5,-4 -5,11l-2 -2c-6,13 -8,18 -4,33 0,4 -2,5 2,15 3,8 7,1 10,10 -5,-1 -3,-7 -9,-3 2,4 1,0 5,1 4,7 0,7 6,14 2,-5 6,-5 10,-7l0 -5 6 3c-1,2 -2,2 -1,3 1,3 4,-2 -5,9l-4 -2c0,3 1,9 5,9l2 -7c4,0 6,2 10,4 4,2 6,1 8,2l-2 5 5 4 -4 1c2,2 14,4 16,3l-7 -2c2,-1 12,-2 15,-2 4,0 2,-1 5,-3 4,-2 6,0 10,-1 2,-1 20,-13 22,-15l-6 1c0,-4 5,-8 7,-10l4 5c7,-8 5,-8 16,-13l1 1c13,-4 42,-45 47,-59 8,-24 8,-63 -10,-83 -23,-25 -47,-17 -74,-2 -16,9 -50,30 -57,48z"/>
    <path class="fil8" d="M171 864c1,-2 3,-2 5,-4 3,5 3,3 5,8 2,6 0,2 4,8 0,0 -1,0 -1,1l-2 0c-1,1 0,1 -3,3 -4,-3 -2,-5 -3,-9 -1,-1 -4,-5 -5,-7zm-73 -29c0,-3 3,-5 5,-6 -1,3 -2,5 -5,6zm-22 -42c2,-1 5,-3 4,6l-2 -1c-4,-2 -1,-2 -5,-2 2,2 2,1 1,5 0,3 0,1 0,2 -4,-2 -3,1 -3,-5l-6 -1c1,-1 2,-2 3,-3 2,-4 -1,-3 1,-7 3,-5 0,-1 4,-3l1 3c2,3 0,2 3,0l-1 6zm27 -31c3,-2 2,-2 6,0 0,-4 -1,-3 2,-5 7,5 -1,2 1,14l1 -3c6,4 0,1 7,1 0,4 -1,5 -1,5 4,-3 -2,-2 4,-5 4,3 0,3 0,3 5,0 4,-1 7,1 -2,3 -2,2 -2,2 1,4 2,6 -3,7 -3,-3 -2,-2 -1,-6 -1,4 0,2 -3,5 -3,-2 -1,-2 -5,-2 -1,-4 0,-5 -5,-6 -1,2 -1,1 1,4 -7,-3 -1,0 -7,-1l-1 -5c-1,3 -4,4 -6,4 -5,-9 1,-9 7,-10 0,0 -2,-3 -2,-3zm-15 -27l3 -5c5,3 1,3 4,7l4 -3 4 5c4,-4 2,-2 3,-6l1 8c7,1 6,-1 11,4 2,3 6,6 7,9 -3,1 -12,-3 -18,-4 -24,-7 -46,15 -52,17 -1,-4 0,-15 1,-19l7 -2 0 -5c5,-1 5,2 8,-2 1,-2 -1,-4 3,-4l-1 6c10,1 1,-5 6,-9 5,1 0,2 4,4l2 -5c4,2 -1,1 3,4zm-18 131c4,-5 7,12 19,22 4,3 21,18 24,16 -2,-1 -6,-1 -1,-4 5,-4 4,2 6,3 3,-5 -2,-3 3,-6 4,6 0,1 1,6 0,2 1,3 3,3 2,1 0,-1 4,2 3,3 0,3 5,3 -1,-6 -8,-2 -5,-11 10,11 7,7 12,8 1,5 -2,2 3,4 5,1 2,1 5,4 3,-1 6,-1 8,-2 3,-1 2,-3 6,-1l-1 -3c14,-4 6,-6 10,-12 5,3 1,3 2,7 3,0 4,-2 5,3 2,-8 -1,-3 -3,-7l4 -5 4 7 0 -4c2,2 3,3 2,5 1,-7 4,-12 5,-18l3 2c0,-5 1,-7 1,-11 0,-5 -1,-10 -1,-15 -1,-29 -31,-85 -49,-106 -5,-5 -26,-26 -33,-28 -37,-12 -69,-1 -69,42 0,21 -2,34 5,55 4,11 14,32 22,41z"/>
    <path class="fil8" d="M95 905l1 2c-2,1 -2,1 -3,-1 -2,-1 -3,-2 -4,-4 1,-1 -1,-1 2,-1 -55,-44 -82,-173 -15,-182 34,-5 44,4 65,27 32,33 58,81 59,128 1,33 -4,49 -38,55 -31,5 -44,-9 -67,-24zm-10 26c4,-3 7,1 9,4 3,7 3,6 10,6 1,0 -3,2 7,7 4,2 11,4 16,5 12,4 27,0 34,2 8,2 26,-3 33,-7 9,-5 14,-11 20,-20 5,-10 5,-24 6,-35 1,-16 -2,-24 -4,-38 -3,-24 1,-7 -6,-36 -2,-10 -9,-21 -10,-32l1 -1c-6,-21 -52,-71 -72,-82 -54,-30 -59,-16 -103,17 -28,21 -22,95 -7,121 13,25 42,76 66,89z"/>
    <path class="fil8" d="M264 806l-3 2c-4,-7 3,-3 -9,-6 0,2 -1,8 0,9 3,1 -2,0 1,0 1,-1 1,-1 2,1l-4 3c-4,-9 -7,-8 -6,-14 1,2 2,2 4,3 1,-4 1,-3 0,-7l10 -2c-3,4 5,9 5,11zm-49 -33l4 8c2,-2 3,-1 2,-4l6 16 5 -1c-2,7 2,5 4,12 3,0 2,0 6,1l-2 3 3 1c0,0 0,1 0,1 0,0 0,0 0,0l1 7c1,4 5,9 5,13 2,0 2,0 4,3l10 13c1,1 2,1 4,3 0,0 1,1 1,2l2 2c1,1 2,1 4,3 2,3 0,2 4,5 2,-5 2,-5 1,-12 -2,0 -4,-2 -4,1l0 -5c2,1 -1,-1 1,2l1 1c3,2 10,9 9,13 -1,3 -1,-3 -1,4l6 1c-5,1 -1,3 -1,4l6 1c-2,3 -1,1 0,4 5,0 1,0 5,3 3,3 3,1 7,2 -5,1 -3,-1 -6,3 2,1 0,0 3,1 4,2 4,0 6,1 -3,5 -4,-4 -12,0 8,6 10,12 21,8l1 4c3,-2 3,-2 3,-5 1,5 -1,3 3,7 3,-2 2,-2 2,-6 2,4 -2,7 5,6 3,-4 1,-1 0,-4 -1,-2 0,1 1,-3l-2 -1c4,-1 4,-5 4,-10 -2,-2 -1,-2 -4,-1 15,0 9,-15 1,-12 5,-1 1,-3 4,-6 5,-5 6,0 8,-5 -4,-3 -5,0 -7,-3l7 -1c0,3 -1,6 3,7 4,0 3,-4 4,-6l4 0c1,-6 -2,-5 -1,-10l2 2c0,-5 -5,-28 -7,-31l-3 1 1 7 -6 -1 -3 2c-7,-3 -10,-1 -23,-6 -4,-1 -2,-1 -5,-3 -3,-2 -3,-1 -6,-4 -5,-5 -13,-10 -14,-13 2,-4 6,-6 9,-9 3,-4 4,-6 7,-10 4,-7 11,-15 16,-20 -2,-3 -1,2 -2,-3 1,-3 3,-4 6,-6 3,-2 3,-3 5,-6 5,-4 9,-8 7,-15 -5,2 1,-1 -6,10 -1,2 -2,3 -3,4 -2,3 -1,2 -3,5 -4,4 -7,6 -8,10l0 1c0,2 -1,2 -4,5 -7,10 -6,6 -13,16 -2,3 -12,16 -13,17 -8,-4 0,-6 -11,-7 0,-3 1,-1 1,-4 -5,-2 -12,-13 -13,-21 4,-2 4,-1 6,-6 3,-7 3,-4 3,-8 -5,1 -5,5 -7,8 -2,3 -3,2 -3,3 -1,-6 1,-8 0,-14 -1,-8 0,-8 2,-14 3,-6 1,-8 5,-13 3,-6 1,-3 5,-12 2,-4 8,-14 11,-15 2,-2 5,-6 8,-8 3,-4 3,-2 13,-6 9,-4 37,-11 46,-12 -1,2 -1,0 -2,4 2,-1 2,-1 4,-2 2,-1 0,-1 2,0 3,-3 4,-4 5,-8 -11,-1 -52,6 -63,9 -17,4 -39,10 -54,18 -3,2 -9,4 -12,6 -4,2 -28,21 -31,24 -8,9 -3,16 -1,27 2,6 7,22 11,27z"/>
    <path class="fil8" d="M451 924c3,3 6,3 8,6 3,4 3,5 7,8 4,3 9,10 14,13l-1 -3c5,1 9,6 11,11 -3,2 0,0 -2,0 20,21 27,20 31,25 1,0 1,1 2,2l13 4c-1,-2 -2,-2 -2,-4 0,-6 -1,-2 2,-4 -20,-33 -25,-43 -21,-84 3,-30 15,-54 31,-79 23,-38 42,-62 82,-81 14,-7 30,-9 40,-14 -1,-3 -43,-3 -47,-2 -15,1 -26,5 -40,11 -21,8 -14,11 -22,28 -7,14 -58,72 -69,84 -14,15 -41,37 -52,50l15 29z"/>
    <path class="fil8" d="M602 718l5 1 -2 -23c0,-1 0,-1 0,-1l-3 -14c1,-1 1,0 4,0 0,0 1,0 1,0 -2,-5 0,-4 -3,-9 -2,5 0,2 -2,7l-4 -16c-1,-5 -2,-11 -3,-16 -7,-30 -37,-88 -59,-109l-42 24 -1 -2c11,27 30,52 42,80 5,15 11,30 17,44 5,15 7,34 12,49l38 -15z"/>
    <path class="fil8" d="M543 833c-11,7 -21,47 -23,60 -4,21 -3,55 9,72 0,-3 8,-2 7,-15 0,-3 -9,-14 -4,-21l5 9 2 -16 -3 6c-2,-2 -2,-17 5,-9 -7,-38 5,-61 30,-88 12,-13 18,-21 31,-32 12,-9 27,-17 36,-25 -4,0 -1,1 -3,-1 4,-6 7,-4 11,-7 6,-5 6,-2 12,-3 4,0 10,-2 14,-3 5,-1 10,-1 16,-1l0 -9c4,1 0,1 5,4l6 -4c3,9 2,-1 6,5 -1,3 -3,1 -4,6 3,6 11,5 13,7 1,1 3,4 4,5l-2 1c0,3 15,25 17,43 2,20 0,32 -4,52l-19 38 7 0 -5 10c5,-1 18,-22 20,-28 3,-7 8,-12 10,-16 1,-2 1,-6 1,-7 0,0 2,-1 4,-6 4,-10 11,-31 9,-37 -1,-4 -2,-10 -3,-17 -1,-7 -5,-18 -1,-17l-1 -4c-3,-1 -5,-4 -8,-7 0,0 1,0 1,0 0,0 0,-1 0,-1l0 -1c0,-1 0,-1 -1,-1 0,1 0,0 -2,1 -2,4 -25,-13 -25,-13 9,-1 4,-6 0,-10 -5,-4 -5,-1 -11,-5l4 -1c-3,-3 -12,-8 -16,-8 -3,3 -1,5 -4,5 -1,-1 -7,-2 -8,-3 0,-6 -4,1 -11,-1 -6,-2 -5,1 -8,1 -1,0 -2,-2 -6,-1 -7,2 -2,1 -6,1 -3,-1 -5,2 -8,3 -3,-1 3,-6 -11,0 -6,3 -12,6 -17,10 -17,13 -34,23 -40,40 -1,1 -11,13 -13,14 -13,14 -6,17 -18,25z"/>
    <path class="fil8" d="M107 685c4,6 42,23 58,42 11,13 38,43 42,57 3,13 8,26 12,39 4,14 4,28 6,43 3,15 3,28 3,43 0,14 -11,24 -14,36 10,-4 94,-30 87,-47 0,-1 -54,-57 -63,-73 -9,-15 -18,-26 -26,-42 -9,-19 -11,-34 -17,-52 -10,-27 -61,-47 -88,-46z"/>
    <path class="fil8" d="M226 555c2,1 2,-1 1,1 -3,1 -1,0 -2,2 -6,7 -2,1 -6,6 -3,4 -16,24 -19,27l-1 -3 -8 10 -1 1 -1 -4 -2 5c3,0 -7,24 -9,30 -6,19 -16,47 -10,66 1,2 22,17 26,18 10,-42 16,-58 35,-96 7,-15 17,-28 25,-41 17,-30 20,-25 28,-35 -13,-9 -18,-12 -34,-6 -2,1 -19,13 -22,19z"/>
    <path class="fil8" d="M201 707l1 3c3,-4 3,-3 3,-7 0,0 0,1 1,1 1,1 -1,1 1,1 0,0 1,0 1,0 3,-1 6,-7 11,-8 -1,4 -3,4 -6,7l2 0c10,-5 16,-14 32,-21 15,-7 26,-10 41,-14 33,-10 67,-7 95,-15l-14 -1c0,0 -2,-2 -2,-2 -4,-3 1,2 -1,-3 -9,3 -7,4 -8,0l-18 -1 -25 3 -40 11 0 -2 -11 7 5 1 -11 4 1 -5 -7 6c-7,-3 0,-6 -10,-3 -4,1 -11,5 -14,2l12 -8 -1 -3 -12 6 27 -32c-1,-3 -3,-2 -9,-3l8 -1c13,-14 8,-30 26,-36l1 -8 -9 -1 0 -2 12 1 -6 -4 6 0 3 -18 11 1 4 7 6 2 2 -6c4,1 3,3 6,7 2,6 0,-2 -4,4l0 2 13 -2 -1 -2c14,12 10,10 21,11l0 1c1,-1 -5,-6 5,-3 7,2 7,0 12,3 9,6 2,-3 9,2 6,5 -4,2 6,8 0,3 -1,0 0,3 1,1 1,0 2,2 -2,3 -1,1 -2,3l3 0c0,-3 -1,-6 1,-9 2,2 1,0 1,3l3 -17c-25,-2 -46,-12 -68,-21 -27,-11 -32,-28 -54,13 -31,54 -45,69 -61,133z"/>
    <path class="fil8" d="M143 113l24 6 0 -2 -11 -6 10 2 -9 -7 11 -2 0 11c4,1 5,-1 11,1 7,2 4,-4 5,-5 5,3 3,2 6,1 9,-1 2,3 5,-6l0 2 8 -3 -1 -2 -11 1 10 -16c0,-29 -2,-25 -12,-38 -4,-6 -10,-6 -5,-8 -8,-6 -27,-8 -37,-9 -10,0 -23,10 -27,18 -8,20 4,53 23,62z"/>
    <path class="fil8" d="M391 583c4,4 2,2 3,6 3,2 6,1 7,6 -1,-4 7,-3 8,-2 6,1 5,-4 8,-2 2,2 1,-5 7,-2 5,2 2,5 11,3l-3 -2c8,-3 5,1 10,3l4 -4 5 3c2,-4 -3,-3 3,-6 5,-3 0,1 7,3 6,-3 -1,-4 7,-6 5,-2 1,-2 3,-4 2,0 5,2 6,2 3,0 3,-1 6,-1 2,2 0,2 1,5 4,3 4,0 7,6 2,5 4,4 5,6 1,1 -1,2 2,5 2,2 5,2 6,6l-3 1 3 4c3,0 5,-3 3,5 0,5 2,5 3,10l-3 -1 2 5c-6,5 -7,-4 -9,-4l0 7 7 2c-1,2 1,1 -3,2 3,0 4,2 7,5l0 4c-1,-2 -1,-2 2,-3 6,12 7,4 6,15 9,2 4,3 8,9l4 -2c-1,6 -2,0 -4,5 2,3 1,2 4,2 -1,4 -3,0 -1,5 1,6 1,3 -2,8 4,2 2,-1 6,3 -2,3 -5,10 -4,12l-1 0c2,5 15,11 22,18 3,3 3,7 6,8 -2,-22 -24,-85 -38,-108 -4,-7 -6,-13 -10,-20l-21 -37c-6,0 -27,10 -44,13 -22,4 -24,7 -45,6 -7,0 -6,0 -8,1z"/>
    <path class="fil8" d="M245 76l-2 3c3,-1 1,0 2,0 -1,2 -2,3 -2,4 -2,6 3,2 -7,6 -2,1 -1,3 -6,3l1 1c1,2 1,-2 0,1 -1,2 -2,2 -3,2 -5,3 -1,4 -7,4 3,-4 1,-1 2,-4 1,-3 0,-1 1,-3 1,-2 1,0 1,-3 5,2 -1,1 3,2 1,-3 1,-2 -1,-4l1 -12 -2 5 -1 1c-1,0 -1,0 -1,1 -1,3 1,2 -1,7 0,0 -2,4 -2,4 -1,2 -1,2 -2,5 -1,2 -5,7 -7,7 0,0 -1,0 -1,0 0,1 0,1 0,1 -2,0 0,2 -4,-1l1 -5c-1,-2 1,-1 -2,-1 0,17 -24,23 -27,40l30 -18 1 1 -11 6c-1,7 4,0 -3,14 -3,6 -4,4 -6,9 -2,8 -9,18 -10,31 0,13 20,73 27,56l-4 -5c-43,-40 -5,-98 29,-128 6,-5 10,-10 18,-13 2,0 1,1 2,0 8,-5 3,-1 9,-2 3,-1 1,-2 6,-2l30 -9 8 -3 -17 -1 1 2 -8 2 -1 -3c-6,17 -9,1 -12,-1l-9 4 -14 -4z"/>
    <path class="fil8" d="M433 660l6 3 0 -2 26 8c6,2 20,9 25,9 -1,-3 0,-2 -4,-4 -1,-1 2,-1 -2,-1 -3,0 0,1 0,1 -1,-8 -3,0 -3,-9 -5,2 -3,1 -8,-1 0,-3 0,-6 -2,-9 -4,3 1,0 -2,5 -4,-6 -6,-2 -9,-3l-7 -4c-1,-3 -2,-7 1,-10 0,0 0,0 0,0l2 -1c2,2 2,5 3,5l0 -5c2,-2 2,-1 2,-1 5,-2 -3,2 1,-1 1,-1 -1,0 4,-2 4,-1 6,0 9,2 10,5 10,-5 18,0 -5,-4 0,-3 -6,-1 0,-4 1,-6 -2,-6 -8,1 -5,1 -7,6 -4,-3 -9,-8 -13,-10 -7,0 -1,2 -5,7 -2,-1 -2,-1 -4,-4 0,-1 -1,-2 -1,-3 -2,-3 -3,-2 -6,-6 -2,4 2,5 2,10 -3,0 -7,-4 -10,-5l-2 5c-4,1 -2,0 -4,0 -6,-1 -3,2 -8,-3 -3,2 0,1 -3,2 -3,2 -1,-1 -5,2 1,3 2,4 4,6 -5,2 -1,0 -6,-1l2 7c-6,1 -13,-2 -17,-2 0,6 1,0 3,4 -6,3 -4,0 -9,1 -3,0 -3,2 -5,3 15,1 31,3 46,9l-4 -1z"/>
    <path class="fil8" d="M632 986c1,-1 7,-3 9,-3 2,2 1,0 0,2l7 -4 -4 1c1,-3 1,-2 5,-5 7,-4 6,-4 12,-8 3,-2 7,-4 10,-6 3,-2 4,-4 7,-7 -2,-2 -6,-2 -2,-6 2,-3 4,-6 7,-5 -1,-9 1,-5 2,-14 -3,1 -20,17 -24,21 -4,3 -9,6 -12,10 0,0 -1,1 -1,1 -1,1 0,0 -1,2 -2,3 1,-1 -3,3 -2,3 -4,2 -3,8l5 -2c0,7 -9,1 -14,5 2,5 1,1 3,2l-6 3c2,3 0,2 3,2z"/>
    <path class="fil8" d="M490 46c-3,4 -1,0 -1,4 0,2 0,2 -1,4l-3 -1c1,4 -1,1 3,3 -3,4 -1,-1 -4,4 2,3 4,5 7,4 0,1 0,2 0,2 0,0 1,2 1,2 0,2 0,0 -3,3 4,3 2,0 4,2 3,3 -1,0 2,5 3,-2 -1,-1 7,0 4,1 2,1 6,4 3,-2 1,-1 1,-2l7 -1c-3,-3 -3,-1 -7,-4l4 0c-3,-2 -9,-1 -11,-4 -3,-4 0,-21 -11,-31l-1 6z"/>
    <path class="fil8" d="M349 750l0 1 3 1c2,-7 2,2 7,-10 1,-3 0,0 2,-2l1 -1c1,-2 1,0 4,-4l9 -11c9,-8 7,-7 6,-9 7,-1 4,0 8,-4 3,-2 3,-1 5,-4 8,-8 8,0 9,-11 4,-2 11,-5 12,-9 -4,-1 -13,6 -17,7l3 5c-4,-1 -2,-4 -6,-2 -3,2 -1,4 -6,3l2 3 -4 1c2,3 4,1 3,4 -4,1 -2,-4 -7,-1 2,3 4,1 1,6l-2 -3c-2,2 -5,9 -12,14 -3,3 -2,0 -3,5l-2 -3c-2,12 -3,6 -5,8 -1,1 1,7 -7,5 1,3 0,2 -1,4 -1,4 2,3 -3,7z"/>
    <path class="fil8" d="M376 517c1,-3 -1,-2 3,-2 1,3 3,6 7,5 3,-3 -1,-3 5,-5l0 -4 -4 1c-1,-3 -3,-8 -4,-12 -5,-12 -1,-5 -2,-13 -10,3 -11,25 -5,30z"/>
    <path class="fil8" d="M376 747l3 0c2,-5 14,-12 21,-21 1,-2 0,-1 2,-3 9,-6 12,-9 18,-13 4,-5 7,-4 9,-9 -4,0 -21,9 -22,11 -2,3 -3,3 -7,8l-6 7c-2,2 -2,0 -2,3l-5 1c-1,6 2,2 -2,5 -3,2 -2,0 -4,3 -1,2 -3,3 -4,4 -2,2 1,1 -1,4z"/>
    <path class="fil8" d="M543 937c0,0 0,0 0,1l0 1c0,1 0,1 0,1 2,3 1,-1 2,2 -4,0 -5,0 -8,2 3,1 4,-1 6,2 2,2 0,0 1,2 0,1 0,1 0,1 1,3 1,2 3,4l1 2c3,5 2,3 7,3 0,-5 -2,-8 -4,-12 -3,-5 -4,-8 -7,-9 -1,0 -1,0 -1,0z"/>
    <path class="fil8" d="M378 786c2,-4 0,-7 -2,-10 -1,-4 5,0 3,-8 -6,1 -7,4 -10,9 -2,3 -2,1 -4,4 -2,3 0,-1 0,5 -3,1 -5,2 -7,5 -2,4 -1,-2 -1,3 6,-1 -1,1 5,-4 9,-6 10,-11 14,-10 1,4 -1,7 -5,5l3 1c1,-4 1,-2 3,-3 1,1 3,1 1,3z"/>
    <path class="fil8" d="M358 487l0 1c-2,7 -2,0 -3,9 0,0 2,0 2,0 4,3 0,1 1,4 5,-3 5,3 7,4 0,-3 -1,-4 1,-9 1,-5 2,-3 1,-8 -2,1 -3,3 -5,2 -4,-2 0,-4 -4,-3z"/>
    <path class="fil8" d="M349 712c-1,4 -1,9 0,13 3,-2 18,-14 19,-16 -3,-1 -2,1 -4,0 3,-3 4,-2 6,-7 -6,-1 -8,6 -12,9 -2,3 -3,4 -4,5 -2,3 -2,4 -5,6 0,-4 0,-6 0,-10z"/>
    <path class="fil8" d="M448 37c1,5 0,1 1,3l6 4c-1,2 0,0 -2,3l6 1c1,-1 4,3 10,4 0,-3 0,-4 -3,-8 -2,-2 -4,-3 -6,-2l0 -2c0,-1 0,-1 0,-1 0,-2 1,0 -1,-3 1,4 1,2 -1,5 -4,1 -5,-2 -10,-4z"/>
    <path class="fil8" d="M280 785c2,-2 3,-5 5,-8 5,-9 12,-11 13,-18 -5,1 -14,12 -17,18 -2,3 -4,4 -1,8z"/>
    <path class="fil8" d="M717 928c5,-1 3,-1 5,-2 1,-1 0,1 3,0 4,-6 8,-13 11,-20 -3,1 -9,8 -10,11 -2,2 -3,3 -4,5 -2,3 -3,3 -5,6z"/>
    <path class="fil8" d="M366 629c2,3 0,5 0,7 0,2 -1,2 3,6l1 -3c0,-1 -1,0 0,-2 1,-1 4,-1 6,-1 5,-1 4,-1 5,-5 -2,0 -4,1 -5,2 -6,-4 -1,-3 -10,-4z"/>
    <path class="fil8" d="M429 85c-5,0 -4,-1 -7,-1l1 3c2,0 5,-1 6,0 4,1 1,2 7,2 1,-6 3,-1 3,-10l-2 2c-4,-2 -2,-2 -6,-3l0 -2c0,0 -2,-1 0,3l1 2c0,0 0,0 0,1 1,1 1,0 1,2l-4 1z"/>
    <path class="fil8" d="M341 679l1 -4c-3,0 -5,0 -7,2 -2,3 -12,10 -13,15 6,0 1,-1 9,-7 3,-3 7,-5 9,-8l1 2z"/>
    <path class="fil8" d="M424 396c7,0 4,2 12,6 3,1 5,5 11,-2l0 -3c-3,3 0,2 -5,5 -3,-4 -2,-2 -3,-6 -1,2 2,1 -1,5 -4,-6 2,-3 -5,-5 0,0 0,0 -1,0 0,0 0,0 0,0 -4,-2 -2,-3 -8,-2l0 2z"/>
    <path class="fil8" d="M322 228l1 0c1,-2 5,-1 9,-2l1 -7c-4,1 -7,2 -11,3l0 6z"/>
    <path class="fil8" d="M571 107l4 -1c1,3 -1,0 1,3 3,-1 4,-1 7,-3 -4,-3 -3,-1 -8,-4l-3 -2c-1,3 0,4 -1,7z"/>
    <path class="fil8" d="M285 741c8,-1 4,-9 13,-13l-5 -1c-1,3 -2,4 -4,7 -2,4 -3,2 -4,7z"/>
    <path class="fil8" d="M373 687c-1,-2 -8,-5 -10,-6l2 8c8,0 4,-1 5,-1l1 -2 2 1z"/>
    <path class="fil8" d="M692 761c2,-1 4,-3 4,-6l-5 -1c-1,1 -1,1 -1,2 0,2 -3,2 2,5z"/>
    <path class="fil8" d="M361 357c3,2 1,0 4,3 1,2 3,4 4,5l0 -1c0,-3 -3,-6 -5,-8 -5,-4 -3,0 -3,1z"/>
   </g>
   <path class="fil9" d="M238 198c1,6 3,-2 3,9 -7,0 -4,-1 -6,-6 1,-1 2,-2 3,-3zm1 -17l0 1 4 0c-2,6 -2,-2 -3,7l-5 -3 -5 3 5 1c-4,0 -4,-2 -5,2l-1 -3c-6,0 -3,2 -6,-1l-1 3c-3,-2 -2,-2 -6,-1 -1,6 2,7 8,7l-3 1c2,5 -1,3 2,8l-1 1c3,5 13,13 19,15 7,-5 11,-11 17,-17 7,-6 14,-10 11,-22 -9,-6 -20,-1 -30,-2z"/>
   <path class="fil10" d="M235 201c2,5 -1,6 6,6 0,-11 -2,-3 -3,-9 -1,1 -2,2 -3,3z"/>
  </g>
 </g>
</svg>
